G04 FreePCB version 1.200*
G04 C:\Users\Jaco\Desktop\fishino UNO\Dec4Coil4Rele\CAMb\bottom_mask.grb*
G04  layer *
G04 Scale: 100 percent, Rotated: No, Reflected: No *
%FSLAX26Y26*%
%MOIN*%
%LNTop*%
%ADD10C,0.005000*%
%ADD11O,0.114000X0.075055*%
%ADD12O,0.114000X0.075000*%
%ADD13C,0.094000*%
%ADD14R,0.102614X0.102614*%
%ADD15C,0.133992*%
%ADD16C,0.134000*%
%ADD17C,0.102000*%
%ADD18C,0.094740*%
%ADD19C,0.153000*%
%ADD20C,0.153795*%
%ADD21C,0.081000*%
%ADD22R,0.134000X0.134000*%
%ADD23C,0.101000*%
%ADD24C,0.091000*%
%ADD25C,0.093992*%
%ADD26O,0.075000X0.114000*%
%ADD27C,0.071000*%
%ADD28C,0.016000*%
G90*
G70D02*

G04 ----------------------- Draw board outline (positive)*
%LPD*%
G54D10*
G01X0Y0D02*
G01X3700000Y0D01*
G04 end of side 1*
G01X3700000Y2600000D01*
G04 end of side 2*
G01X0Y2600000D01*
G04 end of side 3*
G01X0Y0D01*

G04 -------------- Draw Parts, Pads, Traces, Vias and Text (positive)*
%LPD*%
G04 Draw part atmega*
G54D11*
G01X1600000Y1500000D03*
G54D12*
G01X1600000Y1400000D03*
G01X1600000Y1300000D03*
G01X1600000Y1200000D03*
G01X1600000Y1100000D03*
G01X1600000Y1000000D03*
G01X1600000Y900000D03*
G01X1600000Y800000D03*
G01X1600000Y700000D03*
G01X1600000Y600000D03*
G01X1600000Y500000D03*
G01X1600000Y400000D03*
G01X1600000Y300000D03*
G01X1600000Y200000D03*
G01X1900000Y200000D03*
G01X1900000Y300000D03*
G01X1900000Y400000D03*
G01X1900000Y500000D03*
G01X1900000Y600000D03*
G01X1900000Y700000D03*
G01X1900000Y800000D03*
G01X1900000Y900000D03*
G01X1900000Y1000000D03*
G01X1900000Y1100000D03*
G01X1900000Y1200000D03*
G01X1900000Y1300000D03*
G01X1900000Y1400000D03*
G01X1900000Y1500000D03*
G04 Draw part a7*
G54D13*
G01X1500000Y1400000D03*
G01X1500000Y1700000D03*
G04 Draw part a16*
G54D12*
G01X2300000Y1700000D03*
G01X2300000Y1600000D03*
G01X2300000Y1500000D03*
G01X2300000Y1400000D03*
G01X2300000Y1300000D03*
G01X2300000Y1200000D03*
G01X2300000Y1100000D03*
G01X2300000Y1000000D03*
G01X2300000Y900000D03*
G01X2600000Y900000D03*
G01X2600000Y1000000D03*
G01X2600000Y1100000D03*
G01X2600000Y1200000D03*
G01X2600000Y1300000D03*
G01X2600000Y1400000D03*
G01X2600000Y1500000D03*
G01X2600000Y1600000D03*
G01X2600000Y1700000D03*
G04 Draw part a18*
G54D14*
G01X2800000Y1800000D03*
G01X3100000Y1800000D03*
G01X3200000Y1800000D03*
G01X3200000Y2000000D03*
G01X3100000Y2000000D03*
G01X2800000Y2000000D03*
G04 Draw part a19*
G01X2800000Y1400000D03*
G01X3100000Y1400000D03*
G01X3200000Y1400000D03*
G01X3200000Y1600000D03*
G01X3100000Y1600000D03*
G01X2800000Y1600000D03*
G04 Draw part a20*
G01X2800000Y1000000D03*
G01X3100000Y1000000D03*
G01X3200000Y1000000D03*
G01X3200000Y1200000D03*
G01X3100000Y1200000D03*
G01X2800000Y1200000D03*
G04 Draw part a21*
G01X2800000Y600000D03*
G01X3100000Y600000D03*
G01X3200000Y600000D03*
G01X3200000Y800000D03*
G01X3100000Y800000D03*
G01X2800000Y800000D03*
G04 Draw part a26*
G54D15*
G01X3500000Y2400000D03*
G01X3500000Y2200000D03*
G01X3500000Y2000000D03*
G04 Draw part a27*
G01X3500000Y1800000D03*
G01X3500000Y1600000D03*
G01X3500000Y1400000D03*
G04 Draw part a28*
G01X3500000Y1200000D03*
G01X3500000Y1000000D03*
G01X3500000Y800000D03*
G04 Draw part a29*
G01X3500000Y600000D03*
G01X3500000Y400000D03*
G01X3500000Y200000D03*
G04 Draw part b11*
G54D16*
G01X1700000Y2400000D03*
G01X1500000Y2400000D03*
G04 Draw part b14*
G54D17*
G01X2650000Y2450000D03*
G01X2750000Y2450000D03*
G01X2850000Y2450000D03*
G04 Draw part b16*
G01X2850000Y2300000D03*
G01X2750000Y2300000D03*
G01X2650000Y2300000D03*
G04 Draw part b17*
G54D13*
G01X2100000Y400000D03*
G01X2100000Y100000D03*
G04 Draw part b44*
G04 Draw part d3*
G04 Draw part e1*
G54D12*
G01X800000Y1500000D03*
G01X800000Y1600000D03*
G01X800000Y1700000D03*
G01X800000Y1800000D03*
G01X800000Y1900000D03*
G01X800000Y2000000D03*
G01X800000Y2100000D03*
G01X800000Y2200000D03*
G01X800000Y2300000D03*
G01X500000Y2300000D03*
G01X500000Y2200000D03*
G01X500000Y2100000D03*
G01X500000Y2000000D03*
G01X500000Y1900000D03*
G01X500000Y1800000D03*
G01X500000Y1700000D03*
G01X500000Y1600000D03*
G01X500000Y1500000D03*
G04 Draw part e2*
G01X800000Y300000D03*
G01X800000Y400000D03*
G01X800000Y500000D03*
G01X800000Y600000D03*
G01X800000Y700000D03*
G01X800000Y800000D03*
G01X800000Y900000D03*
G01X800000Y1000000D03*
G01X800000Y1100000D03*
G01X500000Y1100000D03*
G01X500000Y1000000D03*
G01X500000Y900000D03*
G01X500000Y800000D03*
G01X500000Y700000D03*
G01X500000Y600000D03*
G01X500000Y500000D03*
G01X500000Y400000D03*
G01X500000Y300000D03*
G04 Draw part c1*
G54D15*
G01X200000Y2400000D03*
G01X200000Y2200000D03*
G01X200000Y2000000D03*
G04 Draw part c2*
G01X200000Y1800000D03*
G01X200000Y1600000D03*
G01X200000Y1400000D03*
G04 Draw part c3*
G01X200000Y1200000D03*
G01X200000Y1000000D03*
G01X200000Y800000D03*
G04 Draw part c4*
G01X200000Y600000D03*
G01X200000Y400000D03*
G01X200000Y200000D03*
G04 Draw part c5*
G54D18*
G01X1600000Y1700000D03*
G01X1700000Y1700000D03*
G01X1800000Y1700000D03*
G01X1900000Y1700000D03*
G04 Draw part c9*
G01X2600000Y300000D03*
G01X2700000Y300000D03*
G01X2800000Y300000D03*
G01X2900000Y300000D03*
G04 Draw part c10*
G01X2600000Y200000D03*
G01X2700000Y200000D03*
G01X2800000Y200000D03*
G01X2900000Y200000D03*
G04 Draw part c11*
G54D19*
G01X2200000Y2005000D03*
G54D20*
G01X2200000Y2300000D03*
G04 Draw part v1*
G54D21*
G01X2648000Y1900000D03*
G01X2550000Y1900000D03*
G04 Draw part f1*
G54D22*
G01X1700000Y2100000D03*
G01X1550000Y2100000D03*
G01X1400000Y2100000D03*
G01X1250000Y2100000D03*
G04 Draw part d2*
G54D23*
G01X2200000Y2525000D03*
G01X2505000Y2525000D03*
G04 Draw part b1*
G54D24*
G01X1200000Y700000D03*
G01X1400000Y700000D03*
G04 Draw part b4*
G01X1200000Y1100000D03*
G01X1200000Y900000D03*
G04 Draw part b6*
G01X1300000Y1100000D03*
G01X1300000Y900000D03*
G04 Draw part b7*
G54D25*
G01X2300000Y300000D03*
G01X2300000Y200000D03*
G04 Draw part b9*
G54D24*
G01X2000000Y900000D03*
G01X2000000Y700000D03*
G04 Draw part d1*
G54D26*
G01X1400000Y1700000D03*
G01X1300000Y1700000D03*
G01X1200000Y1700000D03*
G01X1100000Y1700000D03*
G01X1100000Y1400000D03*
G01X1200000Y1400000D03*
G01X1300000Y1400000D03*
G01X1400000Y1400000D03*
G04 Draw part d4*
G54D13*
G01X1100000Y2175000D03*
G01X1100000Y1875000D03*
G04 Draw part d5*
G01X1200000Y1300000D03*
G01X1500000Y1300000D03*
G04 Draw part d6*
G54D27*
G01X1200000Y1800000D03*
G01X1400000Y1800000D03*
G04 Draw part d7*
G54D16*
G01X1100000Y2400000D03*
G01X1300000Y2400000D03*

G04 Draw traces*

G04 Draw Text*

G04 Draw solder mask cutouts*
G54D28*
M00*
M02*
