;Holesize 1 =   28.0 PLATED MILS
;Holesize 2 =   27.0 PLATED MILS
;Holesize 3 =   39.0 PLATED MILS
;Holesize 4 =   43.0 PLATED MILS
;Holesize 5 =  118.0 PLATED MILS
;Holesize 6 =   59.0 PLATED MILS
;Holesize 7 =   47.0 PLATED MILS
;Holesize 8 =   35.0 PLATED MILS
;Holesize 9 =   45.0 PLATED MILS
;Holesize 10 =   20.0 PLATED MILS
M48
INCH
T01C0.028
T02C0.027
T03C0.039
T04C0.043
T05C0.118
T06C0.059
T07C0.047
T08C0.035
T09C0.045
T10C0.020
%
G05
G90
T01
X016000Y015000
X016000Y014000
X016000Y013000
X016000Y012000
X016000Y011000
X016000Y010000
X016000Y009000
X016000Y008000
X016000Y007000
X016000Y006000
X016000Y005000
X016000Y004000
X016000Y003000
X016000Y002000
X019000Y002000
X019000Y003000
X019000Y004000
X019000Y005000
X019000Y006000
X019000Y007000
X019000Y008000
X019000Y009000
X019000Y010000
X019000Y011000
X019000Y012000
X019000Y013000
X019000Y014000
X019000Y015000
X026480Y019000
X025500Y019000
T02
X015000Y014000
X015000Y017000
X023000Y017000
X023000Y016000
X023000Y015000
X023000Y014000
X023000Y013000
X023000Y012000
X023000Y011000
X023000Y010000
X023000Y009000
X026000Y009000
X026000Y010000
X026000Y011000
X026000Y012000
X026000Y013000
X026000Y014000
X026000Y015000
X026000Y016000
X026000Y017000
X021000Y004000
X021000Y001000
X008000Y015000
X008000Y016000
X008000Y017000
X008000Y018000
X008000Y019000
X008000Y020000
X008000Y021000
X008000Y022000
X008000Y023000
X005000Y023000
X005000Y022000
X005000Y021000
X005000Y020000
X005000Y019000
X005000Y018000
X005000Y017000
X005000Y016000
X005000Y015000
X008000Y003000
X008000Y004000
X008000Y005000
X008000Y006000
X008000Y007000
X008000Y008000
X008000Y009000
X008000Y010000
X008000Y011000
X005000Y011000
X005000Y010000
X005000Y009000
X005000Y008000
X005000Y007000
X005000Y006000
X005000Y005000
X005000Y004000
X005000Y003000
X023000Y003000
X023000Y002000
X014000Y017000
X013000Y017000
X012000Y017000
X011000Y017000
X011000Y014000
X012000Y014000
X013000Y014000
X014000Y014000
X011000Y021750
X011000Y018750
X012000Y013000
X015000Y013000
T03
X028000Y018000
X031000Y018000
X032000Y018000
X032000Y020000
X031000Y020000
X028000Y020000
X028000Y014000
X031000Y014000
X032000Y014000
X032000Y016000
X031000Y016000
X028000Y016000
X028000Y010000
X031000Y010000
X032000Y010000
X032000Y012000
X031000Y012000
X028000Y012000
X028000Y006000
X031000Y006000
X032000Y006000
X032000Y008000
X031000Y008000
X028000Y008000
X035000Y024000
X035000Y022000
X035000Y020000
X035000Y018000
X035000Y016000
X035000Y014000
X035000Y012000
X035000Y010000
X035000Y008000
X035000Y006000
X035000Y004000
X035000Y002000
X017000Y024000
X015000Y024000
X002000Y024000
X002000Y022000
X002000Y020000
X002000Y018000
X002000Y016000
X002000Y014000
X002000Y012000
X002000Y010000
X002000Y008000
X002000Y006000
X002000Y004000
X002000Y002000
T04
X026500Y024500
X027500Y024500
X028500Y024500
X028500Y023000
X027500Y023000
X026500Y023000
X016000Y017000
X017000Y017000
X018000Y017000
X019000Y017000
X026000Y003000
X027000Y003000
X028000Y003000
X029000Y003000
X026000Y002000
X027000Y002000
X028000Y002000
X029000Y002000
T05
X031500Y024500
X010500Y001500
T06
X022000Y020050
X022000Y023000
T07
X017000Y021000
X015500Y021000
X014000Y021000
X012500Y021000
X011000Y024000
X013000Y024000
T08
X022000Y025250
X025050Y025250
X012000Y011000
X012000Y009000
X013000Y011000
X013000Y009000
X020000Y009000
X020000Y007000
T09
X012000Y007000
X014000Y007000
T10
X012000Y018000
X014000Y018000
M30
