G04 FreePCB version 1.200*
G04 C:\Users\Jaco\Desktop\fishino UNO\Dec4Coil4Rele\CAMb\bottom_copper.grb*
G04 bottom copper layer *
G04 Scale: 100 percent, Rotated: No, Reflected: No *
%FSLAX26Y26*%
%MOIN*%
%LNTop*%
%ADD10C,0.005000*%
%ADD11O,0.129496X0.090551*%
%ADD12O,0.129496X0.090496*%
%ADD13C,0.109496*%
%ADD14R,0.118110X0.118110*%
%ADD15C,0.149488*%
%ADD16C,0.149496*%
%ADD17C,0.117496*%
%AMTHERM18*7,0,0,0.117496,0.086000,0.010000,0.0*%
%ADD18THERM18*%
%ADD19C,0.149606*%
%ADD20C,0.110236*%
%AMTHERM21*7,0,0,0.110236,0.078740,0.010000,0.0*%
%ADD21THERM21*%
%AMTHERM22*7,0,0,0.168496,0.137000,0.010000,0.0*%
%ADD22THERM22*%
%ADD23C,0.169291*%
%AMTHERM24*7,0,0,0.096496,0.065000,0.010000,0.0*%
%ADD24THERM24*%
%ADD25C,0.096496*%
%ADD26R,0.149496X0.149496*%
%ADD27C,0.116496*%
%ADD28C,0.106496*%
%AMTHERM29*7,0,0,0.106496,0.075000,0.010000,0.0*%
%ADD29THERM29*%
%ADD30C,0.109488*%
%AMTHERM31*7,0,0,0.109488,0.077992,0.010000,0.0*%
%ADD31THERM31*%
%ADD32O,0.090496X0.129496*%
%ADD33C,0.086496*%
%ADD34C,0.081496*%
%ADD35C,0.101496*%
%ADD36C,0.061496*%
%ADD37C,0.071496*%
%ADD38C,0.056496*%
%ADD39C,0.091496*%
%ADD40C,0.111496*%
%ADD41O,0.098000X0.059055*%
%ADD42O,0.098000X0.059000*%
%ADD43C,0.078000*%
%ADD44R,0.086614X0.086614*%
%ADD45C,0.117992*%
%ADD46C,0.118000*%
%ADD47C,0.086000*%
%ADD48C,0.078740*%
%ADD49C,0.137000*%
%ADD50C,0.137795*%
%ADD51C,0.065000*%
%ADD52R,0.118000X0.118000*%
%ADD53C,0.085000*%
%ADD54C,0.075000*%
%ADD55C,0.077992*%
%ADD56O,0.059000X0.098000*%
%ADD57C,0.055000*%
%ADD58C,0.050000*%
%ADD59C,0.070000*%
%ADD60C,0.030000*%
%ADD61C,0.040000*%
%ADD62C,0.025000*%
%ADD63C,0.020000*%
%ADD64C,0.060000*%
%ADD65C,0.080000*%
G90*
G70D02*

G04 ----------------------- Draw board outline (positive)*
%LPD*%
G54D10*
G01X0Y0D02*
G01X3700000Y0D01*
G04 end of side 1*
G01X3700000Y2600000D01*
G04 end of side 2*
G01X0Y2600000D01*
G04 end of side 3*
G01X0Y0D01*

G04 ----------------------- Draw copper areas (positive)*
%LPD*%
G36*
G01X25000Y2575000D02*
G01X25000Y25000D01*
G01X3675000Y25000D01*
G01X3675000Y2575000D01*
G01X25000Y2575000D01*
G37*

G04 -------------------- Draw Copper Area Clearances (scratch)*
%LPC*%

G04 Draw clearances for pads*
G54D11*
G01X1600000Y1500000D03*
G54D12*
G01X1600000Y1400000D03*
G01X1600000Y1300000D03*
G01X1600000Y1200000D03*
G01X1600000Y1100000D03*
G01X1600000Y1000000D03*
G01X1600000Y900000D03*
G36*
G01X1535251Y754751D02*
G01X1535251Y795000D01*
G01X1595000Y795000D01*
G01X1595000Y754751D01*
G01X1535251Y754751D01*
G37*
G36*
G01X1605000Y754751D02*
G01X1605000Y795000D01*
G01X1664748Y795000D01*
G01X1664748Y754751D01*
G01X1605000Y754751D01*
G37*
G36*
G01X1605000Y805000D02*
G01X1605000Y845248D01*
G01X1664748Y845248D01*
G01X1664748Y805000D01*
G01X1605000Y805000D01*
G37*
G36*
G01X1535251Y805000D02*
G01X1535251Y845248D01*
G01X1595000Y845248D01*
G01X1595000Y805000D01*
G01X1535251Y805000D01*
G37*
G01X1600000Y700000D03*
G01X1600000Y600000D03*
G01X1600000Y500000D03*
G01X1600000Y400000D03*
G01X1600000Y300000D03*
G01X1600000Y200000D03*
G01X1900000Y200000D03*
G01X1900000Y300000D03*
G01X1900000Y400000D03*
G01X1900000Y500000D03*
G01X1900000Y600000D03*
G01X1900000Y700000D03*
G01X1900000Y800000D03*
G36*
G01X1835251Y854751D02*
G01X1835251Y895000D01*
G01X1895000Y895000D01*
G01X1895000Y854751D01*
G01X1835251Y854751D01*
G37*
G36*
G01X1905000Y854751D02*
G01X1905000Y895000D01*
G01X1964748Y895000D01*
G01X1964748Y854751D01*
G01X1905000Y854751D01*
G37*
G36*
G01X1905000Y905000D02*
G01X1905000Y945248D01*
G01X1964748Y945248D01*
G01X1964748Y905000D01*
G01X1905000Y905000D01*
G37*
G36*
G01X1835251Y905000D02*
G01X1835251Y945248D01*
G01X1895000Y945248D01*
G01X1895000Y905000D01*
G01X1835251Y905000D01*
G37*
G01X1900000Y1000000D03*
G01X1900000Y1100000D03*
G01X1900000Y1200000D03*
G01X1900000Y1300000D03*
G01X1900000Y1400000D03*
G01X1900000Y1500000D03*
G54D13*
G01X1500000Y1400000D03*
G01X1500000Y1700000D03*
G36*
G01X2235251Y1654751D02*
G01X2235251Y1695000D01*
G01X2295000Y1695000D01*
G01X2295000Y1654751D01*
G01X2235251Y1654751D01*
G37*
G36*
G01X2305000Y1654751D02*
G01X2305000Y1695000D01*
G01X2364748Y1695000D01*
G01X2364748Y1654751D01*
G01X2305000Y1654751D01*
G37*
G36*
G01X2305000Y1705000D02*
G01X2305000Y1745248D01*
G01X2364748Y1745248D01*
G01X2364748Y1705000D01*
G01X2305000Y1705000D01*
G37*
G36*
G01X2235251Y1705000D02*
G01X2235251Y1745248D01*
G01X2295000Y1745248D01*
G01X2295000Y1705000D01*
G01X2235251Y1705000D01*
G37*
G54D12*
G01X2300000Y1600000D03*
G01X2300000Y1500000D03*
G36*
G01X2235251Y1354751D02*
G01X2235251Y1395000D01*
G01X2295000Y1395000D01*
G01X2295000Y1354751D01*
G01X2235251Y1354751D01*
G37*
G36*
G01X2305000Y1354751D02*
G01X2305000Y1395000D01*
G01X2364748Y1395000D01*
G01X2364748Y1354751D01*
G01X2305000Y1354751D01*
G37*
G36*
G01X2305000Y1405000D02*
G01X2305000Y1445248D01*
G01X2364748Y1445248D01*
G01X2364748Y1405000D01*
G01X2305000Y1405000D01*
G37*
G36*
G01X2235251Y1405000D02*
G01X2235251Y1445248D01*
G01X2295000Y1445248D01*
G01X2295000Y1405000D01*
G01X2235251Y1405000D01*
G37*
G36*
G01X2235251Y1254751D02*
G01X2235251Y1295000D01*
G01X2295000Y1295000D01*
G01X2295000Y1254751D01*
G01X2235251Y1254751D01*
G37*
G36*
G01X2305000Y1254751D02*
G01X2305000Y1295000D01*
G01X2364748Y1295000D01*
G01X2364748Y1254751D01*
G01X2305000Y1254751D01*
G37*
G36*
G01X2305000Y1305000D02*
G01X2305000Y1345248D01*
G01X2364748Y1345248D01*
G01X2364748Y1305000D01*
G01X2305000Y1305000D01*
G37*
G36*
G01X2235251Y1305000D02*
G01X2235251Y1345248D01*
G01X2295000Y1345248D01*
G01X2295000Y1305000D01*
G01X2235251Y1305000D01*
G37*
G36*
G01X2235251Y1154751D02*
G01X2235251Y1195000D01*
G01X2295000Y1195000D01*
G01X2295000Y1154751D01*
G01X2235251Y1154751D01*
G37*
G36*
G01X2305000Y1154751D02*
G01X2305000Y1195000D01*
G01X2364748Y1195000D01*
G01X2364748Y1154751D01*
G01X2305000Y1154751D01*
G37*
G36*
G01X2305000Y1205000D02*
G01X2305000Y1245248D01*
G01X2364748Y1245248D01*
G01X2364748Y1205000D01*
G01X2305000Y1205000D01*
G37*
G36*
G01X2235251Y1205000D02*
G01X2235251Y1245248D01*
G01X2295000Y1245248D01*
G01X2295000Y1205000D01*
G01X2235251Y1205000D01*
G37*
G01X2300000Y1100000D03*
G01X2300000Y1000000D03*
G36*
G01X2235251Y854751D02*
G01X2235251Y895000D01*
G01X2295000Y895000D01*
G01X2295000Y854751D01*
G01X2235251Y854751D01*
G37*
G36*
G01X2305000Y854751D02*
G01X2305000Y895000D01*
G01X2364748Y895000D01*
G01X2364748Y854751D01*
G01X2305000Y854751D01*
G37*
G36*
G01X2305000Y905000D02*
G01X2305000Y945248D01*
G01X2364748Y945248D01*
G01X2364748Y905000D01*
G01X2305000Y905000D01*
G37*
G36*
G01X2235251Y905000D02*
G01X2235251Y945248D01*
G01X2295000Y945248D01*
G01X2295000Y905000D01*
G01X2235251Y905000D01*
G37*
G01X2600000Y900000D03*
G01X2600000Y1000000D03*
G01X2600000Y1100000D03*
G01X2600000Y1200000D03*
G01X2600000Y1300000D03*
G01X2600000Y1400000D03*
G01X2600000Y1500000D03*
G01X2600000Y1600000D03*
G01X2600000Y1700000D03*
G54D14*
G01X2800000Y1800000D03*
G01X3100000Y1800000D03*
G01X3200000Y1800000D03*
G01X3200000Y2000000D03*
G01X3100000Y2000000D03*
G01X2800000Y2000000D03*
G01X2800000Y1400000D03*
G01X3100000Y1400000D03*
G01X3200000Y1400000D03*
G01X3200000Y1600000D03*
G01X3100000Y1600000D03*
G01X2800000Y1600000D03*
G01X2800000Y1000000D03*
G01X3100000Y1000000D03*
G01X3200000Y1000000D03*
G01X3200000Y1200000D03*
G01X3100000Y1200000D03*
G01X2800000Y1200000D03*
G01X2800000Y600000D03*
G01X3100000Y600000D03*
G01X3200000Y600000D03*
G01X3200000Y800000D03*
G01X3100000Y800000D03*
G01X2800000Y800000D03*
G54D15*
G01X3500000Y2400000D03*
G01X3500000Y2200000D03*
G01X3500000Y2000000D03*
G01X3500000Y1800000D03*
G01X3500000Y1600000D03*
G01X3500000Y1400000D03*
G01X3500000Y1200000D03*
G01X3500000Y1000000D03*
G01X3500000Y800000D03*
G01X3500000Y600000D03*
G01X3500000Y400000D03*
G01X3500000Y200000D03*
G54D16*
G01X1700000Y2400000D03*
G01X1500000Y2400000D03*
G54D17*
G01X2650000Y2450000D03*
G54D18*
G01X2750000Y2450000D03*
G54D17*
G01X2850000Y2450000D03*
G01X2850000Y2300000D03*
G54D18*
G01X2750000Y2300000D03*
G54D17*
G01X2650000Y2300000D03*
G54D13*
G01X2100000Y400000D03*
G01X2100000Y100000D03*
G54D19*
G01X3150000Y2450000D03*
G01X1050000Y150000D03*
G54D12*
G01X800000Y1500000D03*
G01X800000Y1600000D03*
G01X800000Y1700000D03*
G01X800000Y1800000D03*
G01X800000Y1900000D03*
G01X800000Y2000000D03*
G01X800000Y2100000D03*
G01X800000Y2200000D03*
G36*
G01X735251Y2254751D02*
G01X735251Y2295000D01*
G01X795000Y2295000D01*
G01X795000Y2254751D01*
G01X735251Y2254751D01*
G37*
G36*
G01X805000Y2254751D02*
G01X805000Y2295000D01*
G01X864748Y2295000D01*
G01X864748Y2254751D01*
G01X805000Y2254751D01*
G37*
G36*
G01X805000Y2305000D02*
G01X805000Y2345248D01*
G01X864748Y2345248D01*
G01X864748Y2305000D01*
G01X805000Y2305000D01*
G37*
G36*
G01X735251Y2305000D02*
G01X735251Y2345248D01*
G01X795000Y2345248D01*
G01X795000Y2305000D01*
G01X735251Y2305000D01*
G37*
G01X500000Y2300000D03*
G01X500000Y2200000D03*
G01X500000Y2100000D03*
G01X500000Y2000000D03*
G01X500000Y1900000D03*
G01X500000Y1800000D03*
G01X500000Y1700000D03*
G01X500000Y1600000D03*
G01X500000Y1500000D03*
G01X800000Y300000D03*
G01X800000Y400000D03*
G01X800000Y500000D03*
G01X800000Y600000D03*
G01X800000Y700000D03*
G01X800000Y800000D03*
G01X800000Y900000D03*
G01X800000Y1000000D03*
G36*
G01X735251Y1054751D02*
G01X735251Y1095000D01*
G01X795000Y1095000D01*
G01X795000Y1054751D01*
G01X735251Y1054751D01*
G37*
G36*
G01X805000Y1054751D02*
G01X805000Y1095000D01*
G01X864748Y1095000D01*
G01X864748Y1054751D01*
G01X805000Y1054751D01*
G37*
G36*
G01X805000Y1105000D02*
G01X805000Y1145248D01*
G01X864748Y1145248D01*
G01X864748Y1105000D01*
G01X805000Y1105000D01*
G37*
G36*
G01X735251Y1105000D02*
G01X735251Y1145248D01*
G01X795000Y1145248D01*
G01X795000Y1105000D01*
G01X735251Y1105000D01*
G37*
G01X500000Y1100000D03*
G01X500000Y1000000D03*
G01X500000Y900000D03*
G01X500000Y800000D03*
G01X500000Y700000D03*
G01X500000Y600000D03*
G01X500000Y500000D03*
G01X500000Y400000D03*
G01X500000Y300000D03*
G54D15*
G01X200000Y2400000D03*
G01X200000Y2200000D03*
G01X200000Y2000000D03*
G01X200000Y1800000D03*
G01X200000Y1600000D03*
G01X200000Y1400000D03*
G01X200000Y1200000D03*
G01X200000Y1000000D03*
G01X200000Y800000D03*
G01X200000Y600000D03*
G01X200000Y400000D03*
G01X200000Y200000D03*
G54D20*
G01X1600000Y1700000D03*
G01X1700000Y1700000D03*
G01X1800000Y1700000D03*
G54D21*
G01X1900000Y1700000D03*
G54D20*
G01X2600000Y300000D03*
G01X2700000Y300000D03*
G01X2800000Y300000D03*
G01X2900000Y300000D03*
G54D21*
G01X2600000Y200000D03*
G01X2700000Y200000D03*
G01X2800000Y200000D03*
G01X2900000Y200000D03*
G54D22*
G01X2200000Y2005000D03*
G54D23*
G01X2200000Y2300000D03*
G54D24*
G01X2648000Y1900000D03*
G54D25*
G01X2550000Y1900000D03*
G54D26*
G01X1700000Y2100000D03*
G01X1550000Y2100000D03*
G01X1400000Y2100000D03*
G36*
G01X1175251Y2025251D02*
G01X1175251Y2095000D01*
G01X1245000Y2095000D01*
G01X1245000Y2025251D01*
G01X1175251Y2025251D01*
G37*
G36*
G01X1255000Y2025251D02*
G01X1255000Y2095000D01*
G01X1324748Y2095000D01*
G01X1324748Y2025251D01*
G01X1255000Y2025251D01*
G37*
G36*
G01X1255000Y2105000D02*
G01X1255000Y2174748D01*
G01X1324748Y2174748D01*
G01X1324748Y2105000D01*
G01X1255000Y2105000D01*
G37*
G36*
G01X1175251Y2105000D02*
G01X1175251Y2174748D01*
G01X1245000Y2174748D01*
G01X1245000Y2105000D01*
G01X1175251Y2105000D01*
G37*
G54D27*
G01X2200000Y2525000D03*
G01X2505000Y2525000D03*
G54D28*
G01X1200000Y700000D03*
G01X1400000Y700000D03*
G54D29*
G01X1200000Y1100000D03*
G54D28*
G01X1200000Y900000D03*
G54D29*
G01X1300000Y1100000D03*
G54D28*
G01X1300000Y900000D03*
G54D30*
G01X2300000Y300000D03*
G54D31*
G01X2300000Y200000D03*
G54D29*
G01X2000000Y900000D03*
G54D28*
G01X2000000Y700000D03*
G54D32*
G01X1400000Y1700000D03*
G01X1300000Y1700000D03*
G01X1200000Y1700000D03*
G01X1100000Y1700000D03*
G36*
G01X1054751Y1335251D02*
G01X1054751Y1395000D01*
G01X1095000Y1395000D01*
G01X1095000Y1335251D01*
G01X1054751Y1335251D01*
G37*
G36*
G01X1105000Y1335251D02*
G01X1105000Y1395000D01*
G01X1145248Y1395000D01*
G01X1145248Y1335251D01*
G01X1105000Y1335251D01*
G37*
G36*
G01X1105000Y1405000D02*
G01X1105000Y1464748D01*
G01X1145248Y1464748D01*
G01X1145248Y1405000D01*
G01X1105000Y1405000D01*
G37*
G36*
G01X1054751Y1405000D02*
G01X1054751Y1464748D01*
G01X1095000Y1464748D01*
G01X1095000Y1405000D01*
G01X1054751Y1405000D01*
G37*
G01X1200000Y1400000D03*
G01X1300000Y1400000D03*
G01X1400000Y1400000D03*
G54D13*
G01X1100000Y2175000D03*
G01X1100000Y1875000D03*
G01X1200000Y1300000D03*
G01X1500000Y1300000D03*
G54D33*
G01X1200000Y1800000D03*
G01X1400000Y1800000D03*
G54D16*
G01X1100000Y2400000D03*
G01X1300000Y2400000D03*

G04 Draw clearances for traces*
G54D34*
G01X3500000Y2000000D02*
G01X3300000Y1800000D01*
G01X3300000Y1800000D02*
G01X3200000Y1800000D01*
G54D35*
G01X3200000Y1800000D02*
G01X3300000Y1800000D01*
G01X3300000Y1800000D02*
G01X3500000Y2000000D01*
G54D36*
G01X1600000Y1200000D02*
G01X1300000Y1200000D01*
G01X1300000Y1200000D02*
G01X1200000Y1300000D01*
G01X1200000Y1300000D02*
G01X1200000Y1400000D01*
G54D37*
G01X2600000Y1600000D02*
G01X2700000Y1600000D01*
G01X2700000Y1600000D02*
G01X2700000Y1700000D01*
G01X2700000Y1700000D02*
G01X3100000Y1700000D01*
G01X3100000Y1700000D02*
G01X3100000Y1800000D01*
G54D34*
G01X3500000Y1400000D02*
G01X3225000Y1400000D01*
G01X3225000Y1400000D02*
G01X3200000Y1400000D01*
G54D35*
G01X3200000Y1400000D02*
G01X3475000Y1400000D01*
G01X3475000Y1400000D02*
G01X3500000Y1400000D01*
G54D34*
G01X3500000Y2200000D02*
G01X3300000Y2000000D01*
G01X3300000Y2000000D02*
G01X3300000Y1950000D01*
G01X3300000Y1950000D02*
G01X3250000Y1900000D01*
G01X3250000Y1900000D02*
G01X3000000Y1900000D01*
G01X3000000Y1900000D02*
G01X2900000Y1800000D01*
G01X2900000Y1800000D02*
G01X2800000Y1800000D01*
G54D35*
G01X2800000Y1800000D02*
G01X2900000Y1800000D01*
G01X2900000Y1800000D02*
G01X3000000Y1900000D01*
G01X3000000Y1900000D02*
G01X3250000Y1900000D01*
G01X3250000Y1900000D02*
G01X3300000Y1950000D01*
G01X3300000Y1950000D02*
G01X3300000Y2000000D01*
G01X3300000Y2000000D02*
G01X3500000Y2200000D01*
G54D36*
G01X1900000Y1000000D02*
G01X2100000Y1000000D01*
G01X2100000Y1000000D02*
G01X2100000Y800000D01*
G01X2100000Y800000D02*
G01X2600000Y300000D01*
G54D37*
G01X800000Y2100000D02*
G01X800000Y2200000D01*
G54D38*
G01X2600000Y1500000D02*
G01X2850000Y1500000D01*
G01X2850000Y1500000D02*
G01X2950000Y1600000D01*
G01X2950000Y1600000D02*
G01X3100000Y1600000D01*
G54D37*
G01X2600000Y1500000D02*
G01X2850000Y1500000D01*
G01X2850000Y1500000D02*
G01X2950000Y1600000D01*
G01X2950000Y1600000D02*
G01X3100000Y1600000D01*
G54D34*
G01X3500000Y800000D02*
G01X3300000Y1000000D01*
G01X3300000Y1000000D02*
G01X3200000Y1000000D01*
G54D35*
G01X3200000Y1000000D02*
G01X3300000Y1000000D01*
G01X3300000Y1000000D02*
G01X3500000Y800000D01*
G54D34*
G01X3500000Y1600000D02*
G01X3400000Y1500000D01*
G01X3400000Y1500000D02*
G01X3000000Y1500000D01*
G01X3000000Y1500000D02*
G01X2900000Y1400000D01*
G01X2900000Y1400000D02*
G01X2825000Y1400000D01*
G01X2825000Y1400000D02*
G01X2800000Y1400000D01*
G54D35*
G01X2800000Y1400000D02*
G01X2900000Y1400000D01*
G01X2900000Y1400000D02*
G01X3000000Y1500000D01*
G01X3000000Y1500000D02*
G01X3400000Y1500000D01*
G01X3400000Y1500000D02*
G01X3475000Y1575000D01*
G01X3475000Y1575000D02*
G01X3500000Y1600000D01*
G54D34*
G01X3200000Y2000000D02*
G01X3200000Y2100000D01*
G01X3200000Y2100000D02*
G01X3500000Y2400000D01*
G54D35*
G01X3200000Y2000000D02*
G01X3200000Y2100000D01*
G01X3200000Y2100000D02*
G01X3500000Y2400000D01*
G54D36*
G01X1900000Y1100000D02*
G01X2140000Y1100000D01*
G01X2140000Y1100000D02*
G01X2140000Y820000D01*
G01X2140000Y820000D02*
G01X2240000Y720000D01*
G01X2240000Y720000D02*
G01X2300000Y720000D01*
G01X2300000Y720000D02*
G01X2700000Y320000D01*
G01X2700000Y320000D02*
G01X2700000Y300000D01*
G54D37*
G01X800000Y1900000D02*
G01X800000Y2000000D01*
G54D34*
G01X3500000Y200000D02*
G01X3200000Y500000D01*
G01X3200000Y500000D02*
G01X3200000Y575000D01*
G01X3200000Y575000D02*
G01X3200000Y600000D01*
G54D35*
G01X3200000Y600000D02*
G01X3200000Y500000D01*
G01X3200000Y500000D02*
G01X3500000Y200000D01*
G54D34*
G01X3500000Y1000000D02*
G01X3400000Y1100000D01*
G01X3400000Y1100000D02*
G01X3000000Y1100000D01*
G01X3000000Y1100000D02*
G01X2900000Y1200000D01*
G01X2900000Y1200000D02*
G01X2825000Y1200000D01*
G01X2825000Y1200000D02*
G01X2800000Y1200000D01*
G54D35*
G01X2800000Y1200000D02*
G01X2900000Y1200000D01*
G01X2900000Y1200000D02*
G01X3000000Y1100000D01*
G01X3000000Y1100000D02*
G01X3400000Y1100000D01*
G01X3400000Y1100000D02*
G01X3500000Y1000000D01*
G54D34*
G01X3500000Y1800000D02*
G01X3300000Y1600000D01*
G01X3300000Y1600000D02*
G01X3200000Y1600000D01*
G54D35*
G01X3200000Y1600000D02*
G01X3300000Y1600000D01*
G01X3300000Y1600000D02*
G01X3500000Y1800000D01*
G54D36*
G01X1900000Y1200000D02*
G01X2180000Y1200000D01*
G01X2180000Y1200000D02*
G01X2180000Y840000D01*
G01X2180000Y840000D02*
G01X2260000Y760000D01*
G01X2260000Y760000D02*
G01X2360000Y760000D01*
G01X2360000Y760000D02*
G01X2800000Y320000D01*
G01X2800000Y320000D02*
G01X2800000Y300000D01*
G54D37*
G01X800000Y1700000D02*
G01X900000Y1700000D01*
G01X900000Y1700000D02*
G01X900000Y1300000D01*
G01X900000Y1300000D02*
G01X1080000Y1120000D01*
G01X1080000Y1120000D02*
G01X1080000Y700000D01*
G01X1080000Y700000D02*
G01X1275000Y500000D01*
G01X1275000Y500000D02*
G01X1575000Y500000D01*
G01X1575000Y500000D02*
G01X1600000Y500000D01*
G01X800000Y1700000D02*
G01X800000Y1800000D01*
G54D38*
G01X1700000Y1700000D02*
G01X1700000Y1400000D01*
G01X1700000Y1400000D02*
G01X1600000Y1400000D01*
G54D37*
G01X1600000Y1400000D02*
G01X1700000Y1400000D01*
G01X1700000Y1400000D02*
G01X1700000Y1700000D01*
G54D34*
G01X3500000Y400000D02*
G01X3300000Y600000D01*
G01X3300000Y600000D02*
G01X3300000Y650000D01*
G01X3300000Y650000D02*
G01X3250000Y700000D01*
G01X3250000Y700000D02*
G01X3000000Y700000D01*
G01X3000000Y700000D02*
G01X2900000Y800000D01*
G01X2900000Y800000D02*
G01X2825000Y800000D01*
G01X2825000Y800000D02*
G01X2800000Y800000D01*
G54D35*
G01X2800000Y800000D02*
G01X2900000Y800000D01*
G01X2900000Y800000D02*
G01X3000000Y700000D01*
G01X3000000Y700000D02*
G01X3250000Y700000D01*
G01X3250000Y700000D02*
G01X3300000Y650000D01*
G01X3300000Y650000D02*
G01X3300000Y600000D01*
G01X3300000Y600000D02*
G01X3475000Y425000D01*
G01X3475000Y425000D02*
G01X3500000Y400000D01*
G54D34*
G01X3500000Y1200000D02*
G01X3200000Y1200000D01*
G54D35*
G01X3200000Y1200000D02*
G01X3475000Y1200000D01*
G01X3475000Y1200000D02*
G01X3500000Y1200000D01*
G54D36*
G01X1900000Y1300000D02*
G01X2220000Y1300000D01*
G01X2220000Y1300000D02*
G01X2220000Y860000D01*
G01X2220000Y860000D02*
G01X2280000Y800000D01*
G01X2280000Y800000D02*
G01X2420000Y800000D01*
G01X2420000Y800000D02*
G01X2900000Y320000D01*
G01X2900000Y320000D02*
G01X2900000Y300000D01*
G54D37*
G01X1600000Y400000D02*
G01X1300000Y400000D01*
G01X1300000Y400000D02*
G01X1020000Y680000D01*
G01X1020000Y680000D02*
G01X1020000Y1080000D01*
G01X1020000Y1080000D02*
G01X800000Y1300000D01*
G01X800000Y1300000D02*
G01X800000Y1600000D01*
G54D35*
G01X2650000Y2450000D02*
G01X2650000Y2525000D01*
G01X2650000Y2525000D02*
G01X2525000Y2525000D01*
G01X2525000Y2525000D02*
G01X2505000Y2525000D01*
G01X2650000Y2450000D02*
G01X2500000Y2450000D01*
G01X2500000Y2450000D02*
G01X2500000Y2525000D01*
G01X2500000Y2525000D02*
G01X2505000Y2525000D01*
G01X2650000Y2450000D02*
G01X2650000Y2475000D01*
G01X2650000Y2475000D02*
G01X2500000Y2475000D01*
G01X2500000Y2475000D02*
G01X2505000Y2525000D01*
G54D34*
G01X3200000Y800000D02*
G01X3300000Y800000D01*
G01X3300000Y800000D02*
G01X3500000Y600000D01*
G54D35*
G01X3200000Y800000D02*
G01X3300000Y800000D01*
G01X3300000Y800000D02*
G01X3475000Y625000D01*
G01X3475000Y625000D02*
G01X3500000Y600000D01*
G54D38*
G01X1600000Y1300000D02*
G01X1750000Y1300000D01*
G01X1750000Y1300000D02*
G01X1750000Y1600000D01*
G01X1750000Y1600000D02*
G01X1800000Y1650000D01*
G01X1800000Y1650000D02*
G01X1800000Y1700000D01*
G54D37*
G01X1600000Y1300000D02*
G01X1750000Y1300000D01*
G01X1750000Y1300000D02*
G01X1750000Y1600000D01*
G01X1750000Y1600000D02*
G01X1800000Y1650000D01*
G01X1800000Y1650000D02*
G01X1800000Y1700000D01*
G54D38*
G01X1900000Y1400000D02*
G01X2000000Y1400000D01*
G01X2000000Y1400000D02*
G01X2100000Y1500000D01*
G01X2100000Y1500000D02*
G01X2300000Y1500000D01*
G54D37*
G01X1900000Y1400000D02*
G01X2000000Y1400000D01*
G01X2000000Y1400000D02*
G01X2100000Y1500000D01*
G01X2100000Y1500000D02*
G01X2300000Y1500000D01*
G54D38*
G01X1600000Y300000D02*
G01X1325000Y300000D01*
G01X1325000Y300000D02*
G01X950000Y675000D01*
G01X950000Y675000D02*
G01X950000Y900000D01*
G01X950000Y900000D02*
G01X825000Y900000D01*
G01X825000Y900000D02*
G01X800000Y900000D01*
G54D37*
G01X800000Y900000D02*
G01X950000Y900000D01*
G01X950000Y900000D02*
G01X950000Y675000D01*
G01X950000Y675000D02*
G01X1325000Y300000D01*
G01X1325000Y300000D02*
G01X1575000Y300000D01*
G01X1575000Y300000D02*
G01X1600000Y300000D01*
G01X800000Y900000D02*
G01X800000Y1000000D01*
G54D38*
G01X2600000Y1100000D02*
G01X2850000Y1100000D01*
G01X2850000Y1100000D02*
G01X2950000Y1000000D01*
G01X2950000Y1000000D02*
G01X3100000Y1000000D01*
G54D37*
G01X2600000Y1100000D02*
G01X2850000Y1100000D01*
G01X2850000Y1100000D02*
G01X2950000Y1000000D01*
G01X2950000Y1000000D02*
G01X3100000Y1000000D01*
G54D38*
G01X1900000Y1500000D02*
G01X2000000Y1500000D01*
G01X2000000Y1500000D02*
G01X2100000Y1600000D01*
G01X2100000Y1600000D02*
G01X2275000Y1600000D01*
G01X2275000Y1600000D02*
G01X2300000Y1600000D01*
G54D37*
G01X1900000Y1500000D02*
G01X2000000Y1500000D01*
G01X2000000Y1500000D02*
G01X2100000Y1600000D01*
G01X2100000Y1600000D02*
G01X2300000Y1600000D01*
G54D38*
G01X1600000Y200000D02*
G01X1350000Y200000D01*
G01X1350000Y200000D02*
G01X875000Y675000D01*
G01X875000Y675000D02*
G01X850000Y700000D01*
G01X850000Y700000D02*
G01X825000Y700000D01*
G01X825000Y700000D02*
G01X800000Y700000D01*
G54D37*
G01X1600000Y200000D02*
G01X1350000Y200000D01*
G01X1350000Y200000D02*
G01X850000Y700000D01*
G01X850000Y700000D02*
G01X800000Y700000D01*
G01X800000Y700000D02*
G01X800000Y800000D01*
G01X1500000Y1400000D02*
G01X1500000Y1500000D01*
G01X1500000Y1500000D02*
G01X1600000Y1500000D01*
G01X1600000Y1500000D02*
G01X1600000Y1700000D01*
G54D35*
G01X200000Y2400000D02*
G01X225000Y2400000D01*
G01X225000Y2400000D02*
G01X475000Y2150000D01*
G01X475000Y2150000D02*
G01X500000Y2125000D01*
G01X500000Y2125000D02*
G01X500000Y2100000D01*
G01X500000Y2100000D02*
G01X500000Y2200000D01*
G54D37*
G01X2600000Y1000000D02*
G01X2700000Y1000000D01*
G01X2700000Y1000000D02*
G01X2700000Y900000D01*
G01X2700000Y900000D02*
G01X3000000Y900000D01*
G01X3000000Y900000D02*
G01X3100000Y900000D01*
G01X3100000Y900000D02*
G01X3100000Y800000D01*
G01X800000Y500000D02*
G01X975000Y500000D01*
G01X975000Y500000D02*
G01X1350000Y125000D01*
G01X1350000Y125000D02*
G01X1725000Y125000D01*
G01X1725000Y125000D02*
G01X1750000Y125000D01*
G01X1750000Y125000D02*
G01X1750000Y200000D01*
G01X1750000Y200000D02*
G01X1875000Y200000D01*
G01X1875000Y200000D02*
G01X1900000Y200000D01*
G01X800000Y500000D02*
G01X800000Y600000D01*
G54D35*
G01X200000Y2000000D02*
G01X500000Y2000000D01*
G54D38*
G01X225000Y2000000D02*
G01X200000Y2000000D01*
G54D35*
G01X500000Y1900000D02*
G01X500000Y1975000D01*
G01X500000Y1975000D02*
G01X500000Y2000000D01*
G01X200000Y1800000D02*
G01X475000Y1800000D01*
G01X475000Y1800000D02*
G01X500000Y1800000D01*
G54D38*
G01X225000Y1800000D02*
G01X200000Y1800000D01*
G54D35*
G01X500000Y1700000D02*
G01X500000Y1775000D01*
G01X500000Y1775000D02*
G01X500000Y1800000D01*
G54D37*
G01X2100000Y100000D02*
G01X2100000Y300000D01*
G01X2100000Y300000D02*
G01X2300000Y300000D01*
G01X1400000Y700000D02*
G01X1600000Y700000D01*
G01X1400000Y700000D02*
G01X1300000Y800000D01*
G01X1300000Y800000D02*
G01X1300000Y900000D01*
G54D35*
G01X200000Y1400000D02*
G01X500000Y1400000D01*
G01X500000Y1400000D02*
G01X500000Y1500000D01*
G54D38*
G01X225000Y1400000D02*
G01X200000Y1400000D01*
G54D35*
G01X500000Y1600000D02*
G01X500000Y1525000D01*
G01X500000Y1525000D02*
G01X500000Y1500000D01*
G54D37*
G01X1600000Y600000D02*
G01X1300000Y600000D01*
G01X1300000Y600000D02*
G01X1200000Y700000D01*
G01X1200000Y700000D02*
G01X1200000Y900000D01*
G54D35*
G01X200000Y1600000D02*
G01X75000Y1600000D01*
G01X75000Y1600000D02*
G01X75000Y1300000D01*
G54D39*
G01X75000Y1300000D02*
G01X500000Y1300000D01*
G01X500000Y1300000D02*
G01X500000Y1100000D01*
G54D35*
G01X2100000Y2525000D02*
G01X500000Y2525000D01*
G01X500000Y2525000D02*
G01X500000Y2300000D01*
G01X200000Y1000000D02*
G01X100000Y1000000D01*
G01X100000Y1000000D02*
G01X75000Y1000000D01*
G01X75000Y1000000D02*
G01X75000Y400000D01*
G01X75000Y400000D02*
G01X175000Y400000D01*
G01X175000Y400000D02*
G01X200000Y400000D01*
G01X200000Y1600000D02*
G01X75000Y1600000D01*
G01X75000Y1600000D02*
G01X75000Y1000000D01*
G01X75000Y1000000D02*
G01X175000Y1000000D01*
G01X175000Y1000000D02*
G01X200000Y1000000D01*
G01X200000Y2200000D02*
G01X75000Y2200000D01*
G01X75000Y2200000D02*
G01X75000Y1600000D01*
G01X75000Y1600000D02*
G01X200000Y1600000D01*
G01X2200000Y2300000D02*
G01X2000000Y2300000D01*
G01X2000000Y2300000D02*
G01X2000000Y2525000D01*
G01X2000000Y2525000D02*
G01X2200000Y2525000D01*
G01X2200000Y2300000D02*
G01X2200000Y2525000D01*
G01X2200000Y2300000D02*
G01X2200000Y2350000D01*
G01X2200000Y2350000D02*
G01X2025000Y2350000D01*
G01X2025000Y2350000D02*
G01X2025000Y2400000D01*
G01X2025000Y2400000D02*
G01X2175000Y2400000D01*
G01X2175000Y2400000D02*
G01X2175000Y2450000D01*
G01X2175000Y2450000D02*
G01X2025000Y2450000D01*
G01X2025000Y2450000D02*
G01X2025000Y2500000D01*
G01X2025000Y2500000D02*
G01X2175000Y2500000D01*
G01X2175000Y2500000D02*
G01X2200000Y2525000D01*
G01X500000Y2300000D02*
G01X500000Y2525000D01*
G01X500000Y2525000D02*
G01X75000Y2525000D01*
G01X75000Y2525000D02*
G01X75000Y2200000D01*
G01X75000Y2200000D02*
G01X200000Y2200000D01*
G54D40*
G01X1700000Y2100000D02*
G01X1700000Y2200000D01*
G01X1700000Y2200000D02*
G01X1800000Y2300000D01*
G01X1800000Y2300000D02*
G01X2200000Y2300000D01*
G54D35*
G01X200000Y1200000D02*
G01X500000Y900000D01*
G01X500000Y900000D02*
G01X500000Y1000000D01*
G01X200000Y800000D02*
G01X500000Y800000D01*
G54D38*
G01X225000Y800000D02*
G01X200000Y800000D01*
G54D35*
G01X500000Y700000D02*
G01X500000Y775000D01*
G01X500000Y775000D02*
G01X500000Y800000D01*
G54D40*
G01X1700000Y2400000D02*
G01X1550000Y2250000D01*
G01X1550000Y2250000D02*
G01X1550000Y2100000D01*
G54D35*
G01X200000Y600000D02*
G01X500000Y600000D01*
G54D38*
G01X225000Y600000D02*
G01X200000Y600000D01*
G54D35*
G01X500000Y500000D02*
G01X500000Y600000D01*
G54D38*
G01X1900000Y300000D02*
G01X2000000Y300000D01*
G01X2000000Y300000D02*
G01X2000000Y75000D01*
G01X2000000Y75000D02*
G01X1325000Y75000D01*
G01X1325000Y75000D02*
G01X1000000Y400000D01*
G01X1000000Y400000D02*
G01X800000Y400000D01*
G54D37*
G01X800000Y400000D02*
G01X1000000Y400000D01*
G01X1000000Y400000D02*
G01X1325000Y75000D01*
G01X1325000Y75000D02*
G01X2000000Y75000D01*
G01X2000000Y75000D02*
G01X2000000Y300000D01*
G01X2000000Y300000D02*
G01X1900000Y300000D01*
G01X800000Y300000D02*
G01X800000Y400000D01*
G01X2650000Y2300000D02*
G01X2550000Y2300000D01*
G01X2550000Y2300000D02*
G01X2550000Y1900000D01*
G54D35*
G01X2650000Y2300000D02*
G01X2550000Y2300000D01*
G01X2550000Y2300000D02*
G01X2550000Y1900000D01*
G54D37*
G01X1900000Y700000D02*
G01X2000000Y700000D01*
G54D36*
G01X1500000Y1700000D02*
G01X1500000Y1600000D01*
G01X1500000Y1600000D02*
G01X1400000Y1500000D01*
G01X1400000Y1500000D02*
G01X1400000Y1380000D01*
G01X1400000Y1380000D02*
G01X1400000Y1400000D01*
G01X1400000Y1400000D02*
G01X1400000Y1300000D01*
G01X1400000Y1300000D02*
G01X1500000Y1300000D01*
G54D40*
G01X1500000Y2400000D02*
G01X1400000Y2300000D01*
G01X1400000Y2300000D02*
G01X1400000Y2125000D01*
G01X1400000Y2125000D02*
G01X1400000Y2100000D01*
G54D35*
G01X200000Y200000D02*
G01X500000Y200000D01*
G01X500000Y200000D02*
G01X500000Y325000D01*
G01X500000Y325000D02*
G01X500000Y300000D01*
G54D38*
G01X225000Y200000D02*
G01X200000Y200000D01*
G54D35*
G01X500000Y300000D02*
G01X500000Y400000D01*
G54D36*
G01X1400000Y1800000D02*
G01X1300000Y1800000D01*
G01X1300000Y1800000D02*
G01X1300000Y1700000D01*
G01X1100000Y1875000D02*
G01X1225000Y1875000D01*
G01X1225000Y1875000D02*
G01X1300000Y1800000D01*
G01X1300000Y1800000D02*
G01X1400000Y1800000D01*
G54D38*
G01X1900000Y400000D02*
G01X2100000Y400000D01*
G54D37*
G01X1900000Y400000D02*
G01X2100000Y400000D01*
G54D38*
G01X3100000Y1200000D02*
G01X3100000Y1400000D01*
G54D34*
G01X2850000Y2300000D02*
G01X2850000Y2450000D01*
G54D38*
G01X2600000Y900000D02*
G01X2600000Y800000D01*
G01X2600000Y800000D02*
G01X2700000Y700000D01*
G01X2700000Y700000D02*
G01X2850000Y700000D01*
G01X2850000Y700000D02*
G01X2950000Y600000D01*
G01X2950000Y600000D02*
G01X3100000Y600000D01*
G54D35*
G01X2850000Y2450000D02*
G01X2850000Y2300000D01*
G54D38*
G01X3100000Y2000000D02*
G01X3100000Y2300000D01*
G01X3100000Y2300000D02*
G01X3200000Y2300000D01*
G01X3200000Y2300000D02*
G01X3400000Y2500000D01*
G01X3400000Y2500000D02*
G01X3600000Y2500000D01*
G01X3600000Y2500000D02*
G01X3600000Y1300000D01*
G01X3600000Y1300000D02*
G01X3100000Y1300000D01*
G01X3100000Y1300000D02*
G01X3100000Y1400000D01*
G01X3100000Y2000000D02*
G01X3100000Y2300000D01*
G01X3100000Y2300000D02*
G01X2875000Y2300000D01*
G01X2875000Y2300000D02*
G01X2850000Y2300000D01*
G54D37*
G01X2600000Y900000D02*
G01X2600000Y800000D01*
G01X2600000Y800000D02*
G01X2700000Y700000D01*
G01X2700000Y700000D02*
G01X2850000Y700000D01*
G01X2850000Y700000D02*
G01X2950000Y600000D01*
G01X2950000Y600000D02*
G01X3100000Y600000D01*
G01X3100000Y600000D02*
G01X3100000Y100000D01*
G01X3100000Y100000D02*
G01X3600000Y100000D01*
G01X3600000Y100000D02*
G01X3600000Y2500000D01*
G01X3600000Y2500000D02*
G01X3400000Y2500000D01*
G01X3400000Y2500000D02*
G01X3200000Y2300000D01*
G01X3200000Y2300000D02*
G01X2850000Y2300000D01*
G01X3100000Y1200000D02*
G01X3100000Y1300000D01*
G01X3100000Y1300000D02*
G01X3600000Y1300000D01*
G01X3600000Y1300000D02*
G01X3100000Y1300000D01*
G01X3100000Y1300000D02*
G01X3100000Y1400000D01*
G01X3100000Y2000000D02*
G01X3100000Y2300000D01*
G01X3100000Y2300000D02*
G01X2850000Y2300000D01*
G54D35*
G01X2850000Y2300000D02*
G01X2900000Y2300000D01*
G01X2900000Y2300000D02*
G01X2900000Y2450000D01*
G01X2900000Y2450000D02*
G01X2850000Y2450000D01*
G01X2850000Y2450000D02*
G01X2950000Y2450000D01*
G01X2950000Y2450000D02*
G01X2950000Y2300000D01*
G01X2950000Y2300000D02*
G01X2850000Y2300000D01*
G01X2850000Y2300000D02*
G01X2850000Y2525000D01*
G01X2850000Y2525000D02*
G01X2950000Y2525000D01*
G01X2950000Y2525000D02*
G01X2950000Y2475000D01*
G01X2950000Y2475000D02*
G01X2850000Y2475000D01*
G01X2850000Y2475000D02*
G01X2850000Y2250000D01*
G01X2850000Y2250000D02*
G01X2950000Y2250000D01*
G01X2950000Y2250000D02*
G01X2950000Y2475000D01*
G01X2950000Y2475000D02*
G01X2900000Y2475000D01*
G01X2900000Y2475000D02*
G01X2900000Y2300000D01*
G01X2900000Y2300000D02*
G01X2850000Y2300000D01*
G01X2850000Y2300000D02*
G01X3100000Y2300000D01*
G01X3100000Y2300000D02*
G01X3100000Y2250000D01*
G01X3100000Y2250000D02*
G01X2850000Y2250000D01*
G01X2850000Y2250000D02*
G01X2850000Y2300000D01*
G01X2850000Y2300000D02*
G01X2850000Y2450000D01*
G54D36*
G01X1200000Y1800000D02*
G01X1200000Y1700000D01*
G01X1200000Y1800000D02*
G01X1000000Y1800000D01*
G01X1000000Y1800000D02*
G01X1000000Y2300000D01*
G01X1000000Y2300000D02*
G01X1100000Y2400000D01*
G01X1300000Y2375000D02*
G01X1300000Y2400000D01*
G01X1100000Y2175000D02*
G01X1300000Y2375000D01*
G01X1300000Y2375000D02*
G01X1300000Y2400000D01*

G04 Draw clearances for text*

G04 -------------- Draw Parts, Pads, Traces, Vias and Text (positive)*
%LPD*%
G04 Draw part atmega*
G54D41*
G01X1600000Y1500000D03*
G54D42*
G01X1600000Y1400000D03*
G01X1600000Y1300000D03*
G01X1600000Y1200000D03*
G01X1600000Y1100000D03*
G01X1600000Y1000000D03*
G01X1600000Y900000D03*
G01X1600000Y800000D03*
G01X1600000Y700000D03*
G01X1600000Y600000D03*
G01X1600000Y500000D03*
G01X1600000Y400000D03*
G01X1600000Y300000D03*
G01X1600000Y200000D03*
G01X1900000Y200000D03*
G01X1900000Y300000D03*
G01X1900000Y400000D03*
G01X1900000Y500000D03*
G01X1900000Y600000D03*
G01X1900000Y700000D03*
G01X1900000Y800000D03*
G01X1900000Y900000D03*
G01X1900000Y1000000D03*
G01X1900000Y1100000D03*
G01X1900000Y1200000D03*
G01X1900000Y1300000D03*
G01X1900000Y1400000D03*
G01X1900000Y1500000D03*
G04 Draw part a7*
G54D43*
G01X1500000Y1400000D03*
G01X1500000Y1700000D03*
G04 Draw part a16*
G54D42*
G01X2300000Y1700000D03*
G01X2300000Y1600000D03*
G01X2300000Y1500000D03*
G01X2300000Y1400000D03*
G01X2300000Y1300000D03*
G01X2300000Y1200000D03*
G01X2300000Y1100000D03*
G01X2300000Y1000000D03*
G01X2300000Y900000D03*
G01X2600000Y900000D03*
G01X2600000Y1000000D03*
G01X2600000Y1100000D03*
G01X2600000Y1200000D03*
G01X2600000Y1300000D03*
G01X2600000Y1400000D03*
G01X2600000Y1500000D03*
G01X2600000Y1600000D03*
G01X2600000Y1700000D03*
G04 Draw part a18*
G54D44*
G01X2800000Y1800000D03*
G01X3100000Y1800000D03*
G01X3200000Y1800000D03*
G01X3200000Y2000000D03*
G01X3100000Y2000000D03*
G01X2800000Y2000000D03*
G04 Draw part a19*
G01X2800000Y1400000D03*
G01X3100000Y1400000D03*
G01X3200000Y1400000D03*
G01X3200000Y1600000D03*
G01X3100000Y1600000D03*
G01X2800000Y1600000D03*
G04 Draw part a20*
G01X2800000Y1000000D03*
G01X3100000Y1000000D03*
G01X3200000Y1000000D03*
G01X3200000Y1200000D03*
G01X3100000Y1200000D03*
G01X2800000Y1200000D03*
G04 Draw part a21*
G01X2800000Y600000D03*
G01X3100000Y600000D03*
G01X3200000Y600000D03*
G01X3200000Y800000D03*
G01X3100000Y800000D03*
G01X2800000Y800000D03*
G04 Draw part a26*
G54D45*
G01X3500000Y2400000D03*
G01X3500000Y2200000D03*
G01X3500000Y2000000D03*
G04 Draw part a27*
G01X3500000Y1800000D03*
G01X3500000Y1600000D03*
G01X3500000Y1400000D03*
G04 Draw part a28*
G01X3500000Y1200000D03*
G01X3500000Y1000000D03*
G01X3500000Y800000D03*
G04 Draw part a29*
G01X3500000Y600000D03*
G01X3500000Y400000D03*
G01X3500000Y200000D03*
G04 Draw part b11*
G54D46*
G01X1700000Y2400000D03*
G01X1500000Y2400000D03*
G04 Draw part b14*
G54D47*
G01X2650000Y2450000D03*
G01X2750000Y2450000D03*
G01X2850000Y2450000D03*
G04 Draw part b16*
G01X2850000Y2300000D03*
G01X2750000Y2300000D03*
G01X2650000Y2300000D03*
G04 Draw part b17*
G54D43*
G01X2100000Y400000D03*
G01X2100000Y100000D03*
G04 Draw part b44*
G04 Draw part d3*
G04 Draw part e1*
G54D42*
G01X800000Y1500000D03*
G01X800000Y1600000D03*
G01X800000Y1700000D03*
G01X800000Y1800000D03*
G01X800000Y1900000D03*
G01X800000Y2000000D03*
G01X800000Y2100000D03*
G01X800000Y2200000D03*
G01X800000Y2300000D03*
G01X500000Y2300000D03*
G01X500000Y2200000D03*
G01X500000Y2100000D03*
G01X500000Y2000000D03*
G01X500000Y1900000D03*
G01X500000Y1800000D03*
G01X500000Y1700000D03*
G01X500000Y1600000D03*
G01X500000Y1500000D03*
G04 Draw part e2*
G01X800000Y300000D03*
G01X800000Y400000D03*
G01X800000Y500000D03*
G01X800000Y600000D03*
G01X800000Y700000D03*
G01X800000Y800000D03*
G01X800000Y900000D03*
G01X800000Y1000000D03*
G01X800000Y1100000D03*
G01X500000Y1100000D03*
G01X500000Y1000000D03*
G01X500000Y900000D03*
G01X500000Y800000D03*
G01X500000Y700000D03*
G01X500000Y600000D03*
G01X500000Y500000D03*
G01X500000Y400000D03*
G01X500000Y300000D03*
G04 Draw part c1*
G54D45*
G01X200000Y2400000D03*
G01X200000Y2200000D03*
G01X200000Y2000000D03*
G04 Draw part c2*
G01X200000Y1800000D03*
G01X200000Y1600000D03*
G01X200000Y1400000D03*
G04 Draw part c3*
G01X200000Y1200000D03*
G01X200000Y1000000D03*
G01X200000Y800000D03*
G04 Draw part c4*
G01X200000Y600000D03*
G01X200000Y400000D03*
G01X200000Y200000D03*
G04 Draw part c5*
G54D48*
G01X1600000Y1700000D03*
G01X1700000Y1700000D03*
G01X1800000Y1700000D03*
G01X1900000Y1700000D03*
G04 Draw part c9*
G01X2600000Y300000D03*
G01X2700000Y300000D03*
G01X2800000Y300000D03*
G01X2900000Y300000D03*
G04 Draw part c10*
G01X2600000Y200000D03*
G01X2700000Y200000D03*
G01X2800000Y200000D03*
G01X2900000Y200000D03*
G04 Draw part c11*
G54D49*
G01X2200000Y2005000D03*
G54D50*
G01X2200000Y2300000D03*
G04 Draw part v1*
G54D51*
G01X2648000Y1900000D03*
G01X2550000Y1900000D03*
G04 Draw part f1*
G54D52*
G01X1700000Y2100000D03*
G01X1550000Y2100000D03*
G01X1400000Y2100000D03*
G01X1250000Y2100000D03*
G04 Draw part d2*
G54D53*
G01X2200000Y2525000D03*
G01X2505000Y2525000D03*
G04 Draw part b1*
G54D54*
G01X1200000Y700000D03*
G01X1400000Y700000D03*
G04 Draw part b4*
G01X1200000Y1100000D03*
G01X1200000Y900000D03*
G04 Draw part b6*
G01X1300000Y1100000D03*
G01X1300000Y900000D03*
G04 Draw part b7*
G54D55*
G01X2300000Y300000D03*
G01X2300000Y200000D03*
G04 Draw part b9*
G54D54*
G01X2000000Y900000D03*
G01X2000000Y700000D03*
G04 Draw part d1*
G54D56*
G01X1400000Y1700000D03*
G01X1300000Y1700000D03*
G01X1200000Y1700000D03*
G01X1100000Y1700000D03*
G01X1100000Y1400000D03*
G01X1200000Y1400000D03*
G01X1300000Y1400000D03*
G01X1400000Y1400000D03*
G04 Draw part d4*
G54D43*
G01X1100000Y2175000D03*
G01X1100000Y1875000D03*
G04 Draw part d5*
G01X1200000Y1300000D03*
G01X1500000Y1300000D03*
G04 Draw part d6*
G54D57*
G01X1200000Y1800000D03*
G01X1400000Y1800000D03*
G04 Draw part d7*
G54D46*
G01X1100000Y2400000D03*
G01X1300000Y2400000D03*

G04 Draw traces*
G54D58*
G01X3500000Y2000000D02*
G01X3300000Y1800000D01*
G01X3300000Y1800000D02*
G01X3200000Y1800000D01*
G54D59*
G01X3200000Y1800000D02*
G01X3300000Y1800000D01*
G01X3300000Y1800000D02*
G01X3500000Y2000000D01*
G54D60*
G01X1600000Y1200000D02*
G01X1300000Y1200000D01*
G01X1300000Y1200000D02*
G01X1200000Y1300000D01*
G01X1200000Y1300000D02*
G01X1200000Y1400000D01*
G54D61*
G01X2600000Y1600000D02*
G01X2700000Y1600000D01*
G01X2700000Y1600000D02*
G01X2700000Y1700000D01*
G01X2700000Y1700000D02*
G01X3100000Y1700000D01*
G01X3100000Y1700000D02*
G01X3100000Y1800000D01*
G54D58*
G01X3500000Y1400000D02*
G01X3225000Y1400000D01*
G01X3225000Y1400000D02*
G01X3200000Y1400000D01*
G54D59*
G01X3200000Y1400000D02*
G01X3475000Y1400000D01*
G01X3475000Y1400000D02*
G01X3500000Y1400000D01*
G54D58*
G01X3500000Y2200000D02*
G01X3300000Y2000000D01*
G01X3300000Y2000000D02*
G01X3300000Y1950000D01*
G01X3300000Y1950000D02*
G01X3250000Y1900000D01*
G01X3250000Y1900000D02*
G01X3000000Y1900000D01*
G01X3000000Y1900000D02*
G01X2900000Y1800000D01*
G01X2900000Y1800000D02*
G01X2800000Y1800000D01*
G54D59*
G01X2800000Y1800000D02*
G01X2900000Y1800000D01*
G01X2900000Y1800000D02*
G01X3000000Y1900000D01*
G01X3000000Y1900000D02*
G01X3250000Y1900000D01*
G01X3250000Y1900000D02*
G01X3300000Y1950000D01*
G01X3300000Y1950000D02*
G01X3300000Y2000000D01*
G01X3300000Y2000000D02*
G01X3500000Y2200000D01*
G54D60*
G01X1900000Y1000000D02*
G01X2100000Y1000000D01*
G01X2100000Y1000000D02*
G01X2100000Y800000D01*
G01X2100000Y800000D02*
G01X2600000Y300000D01*
G54D61*
G01X800000Y2100000D02*
G01X800000Y2200000D01*
G54D62*
G01X2600000Y1500000D02*
G01X2850000Y1500000D01*
G01X2850000Y1500000D02*
G01X2950000Y1600000D01*
G01X2950000Y1600000D02*
G01X3100000Y1600000D01*
G54D61*
G01X2600000Y1500000D02*
G01X2850000Y1500000D01*
G01X2850000Y1500000D02*
G01X2950000Y1600000D01*
G01X2950000Y1600000D02*
G01X3100000Y1600000D01*
G54D58*
G01X3500000Y800000D02*
G01X3300000Y1000000D01*
G01X3300000Y1000000D02*
G01X3200000Y1000000D01*
G54D59*
G01X3200000Y1000000D02*
G01X3300000Y1000000D01*
G01X3300000Y1000000D02*
G01X3500000Y800000D01*
G54D58*
G01X3500000Y1600000D02*
G01X3400000Y1500000D01*
G01X3400000Y1500000D02*
G01X3000000Y1500000D01*
G01X3000000Y1500000D02*
G01X2900000Y1400000D01*
G01X2900000Y1400000D02*
G01X2825000Y1400000D01*
G01X2825000Y1400000D02*
G01X2800000Y1400000D01*
G54D59*
G01X2800000Y1400000D02*
G01X2900000Y1400000D01*
G01X2900000Y1400000D02*
G01X3000000Y1500000D01*
G01X3000000Y1500000D02*
G01X3400000Y1500000D01*
G01X3400000Y1500000D02*
G01X3475000Y1575000D01*
G01X3475000Y1575000D02*
G01X3500000Y1600000D01*
G54D58*
G01X3200000Y2000000D02*
G01X3200000Y2100000D01*
G01X3200000Y2100000D02*
G01X3500000Y2400000D01*
G54D59*
G01X3200000Y2000000D02*
G01X3200000Y2100000D01*
G01X3200000Y2100000D02*
G01X3500000Y2400000D01*
G54D60*
G01X1900000Y1100000D02*
G01X2140000Y1100000D01*
G01X2140000Y1100000D02*
G01X2140000Y820000D01*
G01X2140000Y820000D02*
G01X2240000Y720000D01*
G01X2240000Y720000D02*
G01X2300000Y720000D01*
G01X2300000Y720000D02*
G01X2700000Y320000D01*
G01X2700000Y320000D02*
G01X2700000Y300000D01*
G54D61*
G01X800000Y1900000D02*
G01X800000Y2000000D01*
G54D58*
G01X3500000Y200000D02*
G01X3200000Y500000D01*
G01X3200000Y500000D02*
G01X3200000Y575000D01*
G01X3200000Y575000D02*
G01X3200000Y600000D01*
G54D59*
G01X3200000Y600000D02*
G01X3200000Y500000D01*
G01X3200000Y500000D02*
G01X3500000Y200000D01*
G54D58*
G01X3500000Y1000000D02*
G01X3400000Y1100000D01*
G01X3400000Y1100000D02*
G01X3000000Y1100000D01*
G01X3000000Y1100000D02*
G01X2900000Y1200000D01*
G01X2900000Y1200000D02*
G01X2825000Y1200000D01*
G01X2825000Y1200000D02*
G01X2800000Y1200000D01*
G54D59*
G01X2800000Y1200000D02*
G01X2900000Y1200000D01*
G01X2900000Y1200000D02*
G01X3000000Y1100000D01*
G01X3000000Y1100000D02*
G01X3400000Y1100000D01*
G01X3400000Y1100000D02*
G01X3500000Y1000000D01*
G54D58*
G01X3500000Y1800000D02*
G01X3300000Y1600000D01*
G01X3300000Y1600000D02*
G01X3200000Y1600000D01*
G54D59*
G01X3200000Y1600000D02*
G01X3300000Y1600000D01*
G01X3300000Y1600000D02*
G01X3500000Y1800000D01*
G54D60*
G01X1900000Y1200000D02*
G01X2180000Y1200000D01*
G01X2180000Y1200000D02*
G01X2180000Y840000D01*
G01X2180000Y840000D02*
G01X2260000Y760000D01*
G01X2260000Y760000D02*
G01X2360000Y760000D01*
G01X2360000Y760000D02*
G01X2800000Y320000D01*
G01X2800000Y320000D02*
G01X2800000Y300000D01*
G54D61*
G01X800000Y1700000D02*
G01X900000Y1700000D01*
G01X900000Y1700000D02*
G01X900000Y1300000D01*
G01X900000Y1300000D02*
G01X1080000Y1120000D01*
G01X1080000Y1120000D02*
G01X1080000Y700000D01*
G01X1080000Y700000D02*
G01X1275000Y500000D01*
G01X1275000Y500000D02*
G01X1575000Y500000D01*
G01X1575000Y500000D02*
G01X1600000Y500000D01*
G01X800000Y1700000D02*
G01X800000Y1800000D01*
G54D62*
G01X1700000Y1700000D02*
G01X1700000Y1400000D01*
G01X1700000Y1400000D02*
G01X1600000Y1400000D01*
G54D61*
G01X1600000Y1400000D02*
G01X1700000Y1400000D01*
G01X1700000Y1400000D02*
G01X1700000Y1700000D01*
G54D58*
G01X3500000Y400000D02*
G01X3300000Y600000D01*
G01X3300000Y600000D02*
G01X3300000Y650000D01*
G01X3300000Y650000D02*
G01X3250000Y700000D01*
G01X3250000Y700000D02*
G01X3000000Y700000D01*
G01X3000000Y700000D02*
G01X2900000Y800000D01*
G01X2900000Y800000D02*
G01X2825000Y800000D01*
G01X2825000Y800000D02*
G01X2800000Y800000D01*
G54D59*
G01X2800000Y800000D02*
G01X2900000Y800000D01*
G01X2900000Y800000D02*
G01X3000000Y700000D01*
G01X3000000Y700000D02*
G01X3250000Y700000D01*
G01X3250000Y700000D02*
G01X3300000Y650000D01*
G01X3300000Y650000D02*
G01X3300000Y600000D01*
G01X3300000Y600000D02*
G01X3475000Y425000D01*
G01X3475000Y425000D02*
G01X3500000Y400000D01*
G54D58*
G01X3500000Y1200000D02*
G01X3200000Y1200000D01*
G54D59*
G01X3200000Y1200000D02*
G01X3475000Y1200000D01*
G01X3475000Y1200000D02*
G01X3500000Y1200000D01*
G54D60*
G01X1900000Y1300000D02*
G01X2220000Y1300000D01*
G01X2220000Y1300000D02*
G01X2220000Y860000D01*
G01X2220000Y860000D02*
G01X2280000Y800000D01*
G01X2280000Y800000D02*
G01X2420000Y800000D01*
G01X2420000Y800000D02*
G01X2900000Y320000D01*
G01X2900000Y320000D02*
G01X2900000Y300000D01*
G54D61*
G01X1600000Y400000D02*
G01X1300000Y400000D01*
G01X1300000Y400000D02*
G01X1020000Y680000D01*
G01X1020000Y680000D02*
G01X1020000Y1080000D01*
G01X1020000Y1080000D02*
G01X800000Y1300000D01*
G01X800000Y1300000D02*
G01X800000Y1600000D01*
G54D59*
G01X2650000Y2450000D02*
G01X2650000Y2525000D01*
G01X2650000Y2525000D02*
G01X2525000Y2525000D01*
G01X2525000Y2525000D02*
G01X2505000Y2525000D01*
G01X2650000Y2450000D02*
G01X2500000Y2450000D01*
G01X2500000Y2450000D02*
G01X2500000Y2525000D01*
G01X2500000Y2525000D02*
G01X2505000Y2525000D01*
G01X2650000Y2450000D02*
G01X2650000Y2475000D01*
G01X2650000Y2475000D02*
G01X2500000Y2475000D01*
G01X2500000Y2475000D02*
G01X2505000Y2525000D01*
G54D58*
G01X3200000Y800000D02*
G01X3300000Y800000D01*
G01X3300000Y800000D02*
G01X3500000Y600000D01*
G54D59*
G01X3200000Y800000D02*
G01X3300000Y800000D01*
G01X3300000Y800000D02*
G01X3475000Y625000D01*
G01X3475000Y625000D02*
G01X3500000Y600000D01*
G54D62*
G01X1600000Y1300000D02*
G01X1750000Y1300000D01*
G01X1750000Y1300000D02*
G01X1750000Y1600000D01*
G01X1750000Y1600000D02*
G01X1800000Y1650000D01*
G01X1800000Y1650000D02*
G01X1800000Y1700000D01*
G54D61*
G01X1600000Y1300000D02*
G01X1750000Y1300000D01*
G01X1750000Y1300000D02*
G01X1750000Y1600000D01*
G01X1750000Y1600000D02*
G01X1800000Y1650000D01*
G01X1800000Y1650000D02*
G01X1800000Y1700000D01*
G54D62*
G01X1900000Y1400000D02*
G01X2000000Y1400000D01*
G01X2000000Y1400000D02*
G01X2100000Y1500000D01*
G01X2100000Y1500000D02*
G01X2300000Y1500000D01*
G54D61*
G01X1900000Y1400000D02*
G01X2000000Y1400000D01*
G01X2000000Y1400000D02*
G01X2100000Y1500000D01*
G01X2100000Y1500000D02*
G01X2300000Y1500000D01*
G54D62*
G01X1600000Y300000D02*
G01X1325000Y300000D01*
G01X1325000Y300000D02*
G01X950000Y675000D01*
G01X950000Y675000D02*
G01X950000Y900000D01*
G01X950000Y900000D02*
G01X825000Y900000D01*
G01X825000Y900000D02*
G01X800000Y900000D01*
G54D61*
G01X800000Y900000D02*
G01X950000Y900000D01*
G01X950000Y900000D02*
G01X950000Y675000D01*
G01X950000Y675000D02*
G01X1325000Y300000D01*
G01X1325000Y300000D02*
G01X1575000Y300000D01*
G01X1575000Y300000D02*
G01X1600000Y300000D01*
G01X800000Y900000D02*
G01X800000Y1000000D01*
G54D62*
G01X2600000Y1100000D02*
G01X2850000Y1100000D01*
G01X2850000Y1100000D02*
G01X2950000Y1000000D01*
G01X2950000Y1000000D02*
G01X3100000Y1000000D01*
G54D61*
G01X2600000Y1100000D02*
G01X2850000Y1100000D01*
G01X2850000Y1100000D02*
G01X2950000Y1000000D01*
G01X2950000Y1000000D02*
G01X3100000Y1000000D01*
G54D62*
G01X1900000Y1500000D02*
G01X2000000Y1500000D01*
G01X2000000Y1500000D02*
G01X2100000Y1600000D01*
G01X2100000Y1600000D02*
G01X2275000Y1600000D01*
G01X2275000Y1600000D02*
G01X2300000Y1600000D01*
G54D61*
G01X1900000Y1500000D02*
G01X2000000Y1500000D01*
G01X2000000Y1500000D02*
G01X2100000Y1600000D01*
G01X2100000Y1600000D02*
G01X2300000Y1600000D01*
G54D62*
G01X1600000Y200000D02*
G01X1350000Y200000D01*
G01X1350000Y200000D02*
G01X875000Y675000D01*
G01X875000Y675000D02*
G01X850000Y700000D01*
G01X850000Y700000D02*
G01X825000Y700000D01*
G01X825000Y700000D02*
G01X800000Y700000D01*
G54D61*
G01X1600000Y200000D02*
G01X1350000Y200000D01*
G01X1350000Y200000D02*
G01X850000Y700000D01*
G01X850000Y700000D02*
G01X800000Y700000D01*
G01X800000Y700000D02*
G01X800000Y800000D01*
G01X1500000Y1400000D02*
G01X1500000Y1500000D01*
G01X1500000Y1500000D02*
G01X1600000Y1500000D01*
G01X1600000Y1500000D02*
G01X1600000Y1700000D01*
G54D59*
G01X200000Y2400000D02*
G01X225000Y2400000D01*
G01X225000Y2400000D02*
G01X475000Y2150000D01*
G01X475000Y2150000D02*
G01X500000Y2125000D01*
G01X500000Y2125000D02*
G01X500000Y2100000D01*
G01X500000Y2100000D02*
G01X500000Y2200000D01*
G54D61*
G01X2600000Y1000000D02*
G01X2700000Y1000000D01*
G01X2700000Y1000000D02*
G01X2700000Y900000D01*
G01X2700000Y900000D02*
G01X3000000Y900000D01*
G01X3000000Y900000D02*
G01X3100000Y900000D01*
G01X3100000Y900000D02*
G01X3100000Y800000D01*
G01X800000Y500000D02*
G01X975000Y500000D01*
G01X975000Y500000D02*
G01X1350000Y125000D01*
G01X1350000Y125000D02*
G01X1725000Y125000D01*
G01X1725000Y125000D02*
G01X1750000Y125000D01*
G01X1750000Y125000D02*
G01X1750000Y200000D01*
G01X1750000Y200000D02*
G01X1875000Y200000D01*
G01X1875000Y200000D02*
G01X1900000Y200000D01*
G01X800000Y500000D02*
G01X800000Y600000D01*
G54D59*
G01X800000Y2300000D02*
G01X650000Y2300000D01*
G01X650000Y2300000D02*
G01X650000Y1250000D01*
G01X650000Y1250000D02*
G01X650000Y1100000D01*
G01X650000Y1100000D02*
G01X800000Y1100000D01*
G54D62*
G01X1900000Y900000D02*
G01X1800000Y900000D01*
G01X1800000Y900000D02*
G01X1800000Y1550000D01*
G01X1800000Y1550000D02*
G01X1900000Y1650000D01*
G01X1900000Y1650000D02*
G01X1900000Y1700000D01*
G01X1900000Y900000D02*
G01X1800000Y900000D01*
G01X1800000Y900000D02*
G01X1800000Y800000D01*
G01X1800000Y800000D02*
G01X1600000Y800000D01*
G54D59*
G01X2750000Y2450000D02*
G01X2750000Y2325000D01*
G54D58*
G01X2750000Y2325000D02*
G01X2750000Y2300000D01*
G54D59*
G01X2100000Y1825000D02*
G01X2400000Y1825000D01*
G01X2400000Y1825000D02*
G01X2425000Y1825000D01*
G01X2425000Y1825000D02*
G01X2425000Y1800000D01*
G01X2425000Y1800000D02*
G01X2675000Y1800000D01*
G01X2675000Y1800000D02*
G01X2675000Y2125000D01*
G01X2675000Y2125000D02*
G01X2750000Y2125000D01*
G01X2750000Y2125000D02*
G01X2750000Y2300000D01*
G54D62*
G01X2100000Y1825000D02*
G01X2400000Y1825000D01*
G01X2400000Y1825000D02*
G01X2400000Y1700000D01*
G01X2400000Y1700000D02*
G01X2325000Y1700000D01*
G01X2325000Y1700000D02*
G01X2300000Y1700000D01*
G54D61*
G01X2300000Y900000D02*
G01X2400000Y900000D01*
G01X2400000Y900000D02*
G01X2400000Y1800000D01*
G01X2400000Y1800000D02*
G01X2650000Y1800000D01*
G01X2650000Y1800000D02*
G01X2650000Y1900000D01*
G01X2650000Y1900000D02*
G01X2648000Y1900000D01*
G01X1900000Y1700000D02*
G01X1900000Y1825000D01*
G01X1900000Y1825000D02*
G01X2200000Y1825000D01*
G01X2200000Y1825000D02*
G01X2200000Y2025000D01*
G01X2200000Y2025000D02*
G01X2200000Y2005000D01*
G01X1900000Y900000D02*
G01X1800000Y900000D01*
G01X1800000Y900000D02*
G01X1800000Y1550000D01*
G01X1800000Y1550000D02*
G01X1900000Y1650000D01*
G01X1900000Y1650000D02*
G01X1900000Y1700000D01*
G54D59*
G01X2300000Y1700000D02*
G01X2300000Y1800000D01*
G01X2300000Y1800000D02*
G01X2375000Y1800000D01*
G01X2375000Y1800000D02*
G01X2375000Y1700000D01*
G01X2375000Y1700000D02*
G01X2300000Y1700000D01*
G01X2300000Y1700000D02*
G01X2350000Y1750000D01*
G01X2350000Y1750000D02*
G01X2350000Y1775000D01*
G01X2350000Y1775000D02*
G01X2350000Y1825000D01*
G01X2350000Y1825000D02*
G01X2200000Y1825000D01*
G01X2200000Y1825000D02*
G01X2200000Y2000000D01*
G01X2200000Y2000000D02*
G01X2200000Y2005000D01*
G54D61*
G01X1600000Y800000D02*
G01X1500000Y800000D01*
G01X1500000Y800000D02*
G01X1400000Y900000D01*
G01X1400000Y900000D02*
G01X1400000Y1000000D01*
G01X1400000Y1000000D02*
G01X1300000Y1100000D01*
G01X1300000Y1100000D02*
G01X1200000Y1100000D01*
G01X2600000Y200000D02*
G01X2300000Y200000D01*
G01X2600000Y200000D02*
G01X2900000Y200000D01*
G01X1900000Y900000D02*
G01X2000000Y900000D01*
G01X1600000Y800000D02*
G01X1800000Y800000D01*
G01X1800000Y800000D02*
G01X1800000Y900000D01*
G01X1800000Y900000D02*
G01X1900000Y900000D01*
G54D63*
G01X2900000Y200000D02*
G01X3000000Y200000D01*
G01X3000000Y200000D02*
G01X3000000Y360000D01*
G01X3000000Y360000D02*
G01X2860000Y500000D01*
G01X2860000Y500000D02*
G01X2780000Y500000D01*
G01X2780000Y500000D02*
G01X2380000Y900000D01*
G01X2380000Y900000D02*
G01X2300000Y900000D01*
G54D60*
G01X1100000Y1400000D02*
G01X1100000Y1200000D01*
G01X1100000Y1200000D02*
G01X1200000Y1100000D01*
G54D59*
G01X2200000Y2005000D02*
G01X2200000Y1825000D01*
G01X2200000Y1825000D02*
G01X1675000Y1825000D01*
G01X1675000Y1825000D02*
G01X1600000Y1900000D01*
G01X1600000Y1900000D02*
G01X1350000Y1900000D01*
G01X1350000Y1900000D02*
G01X1250000Y2000000D01*
G01X1250000Y2000000D02*
G01X1250000Y2125000D01*
G01X1250000Y2125000D02*
G01X1250000Y2100000D01*
G54D60*
G01X2300000Y1400000D02*
G01X2400000Y1400000D01*
G01X2400000Y1400000D02*
G01X2400000Y1300000D01*
G01X2400000Y1300000D02*
G01X2300000Y1300000D01*
G01X2300000Y1300000D02*
G01X2400000Y1300000D01*
G01X2400000Y1300000D02*
G01X2400000Y1200000D01*
G01X2400000Y1200000D02*
G01X2325000Y1200000D01*
G01X2325000Y1200000D02*
G01X2300000Y1200000D01*
G54D59*
G01X200000Y2000000D02*
G01X500000Y2000000D01*
G54D62*
G01X225000Y2000000D02*
G01X200000Y2000000D01*
G54D59*
G01X500000Y1900000D02*
G01X500000Y1975000D01*
G01X500000Y1975000D02*
G01X500000Y2000000D01*
G01X200000Y1800000D02*
G01X475000Y1800000D01*
G01X475000Y1800000D02*
G01X500000Y1800000D01*
G54D62*
G01X225000Y1800000D02*
G01X200000Y1800000D01*
G54D59*
G01X500000Y1700000D02*
G01X500000Y1775000D01*
G01X500000Y1775000D02*
G01X500000Y1800000D01*
G54D61*
G01X2100000Y100000D02*
G01X2100000Y300000D01*
G01X2100000Y300000D02*
G01X2300000Y300000D01*
G01X1400000Y700000D02*
G01X1600000Y700000D01*
G01X1400000Y700000D02*
G01X1300000Y800000D01*
G01X1300000Y800000D02*
G01X1300000Y900000D01*
G54D59*
G01X200000Y1400000D02*
G01X500000Y1400000D01*
G01X500000Y1400000D02*
G01X500000Y1500000D01*
G54D62*
G01X225000Y1400000D02*
G01X200000Y1400000D01*
G54D59*
G01X500000Y1600000D02*
G01X500000Y1525000D01*
G01X500000Y1525000D02*
G01X500000Y1500000D01*
G54D61*
G01X1600000Y600000D02*
G01X1300000Y600000D01*
G01X1300000Y600000D02*
G01X1200000Y700000D01*
G01X1200000Y700000D02*
G01X1200000Y900000D01*
G54D59*
G01X200000Y1600000D02*
G01X75000Y1600000D01*
G01X75000Y1600000D02*
G01X75000Y1300000D01*
G54D64*
G01X75000Y1300000D02*
G01X500000Y1300000D01*
G01X500000Y1300000D02*
G01X500000Y1100000D01*
G54D59*
G01X2100000Y2525000D02*
G01X500000Y2525000D01*
G01X500000Y2525000D02*
G01X500000Y2300000D01*
G01X200000Y1000000D02*
G01X100000Y1000000D01*
G01X100000Y1000000D02*
G01X75000Y1000000D01*
G01X75000Y1000000D02*
G01X75000Y400000D01*
G01X75000Y400000D02*
G01X175000Y400000D01*
G01X175000Y400000D02*
G01X200000Y400000D01*
G01X200000Y1600000D02*
G01X75000Y1600000D01*
G01X75000Y1600000D02*
G01X75000Y1000000D01*
G01X75000Y1000000D02*
G01X175000Y1000000D01*
G01X175000Y1000000D02*
G01X200000Y1000000D01*
G01X200000Y2200000D02*
G01X75000Y2200000D01*
G01X75000Y2200000D02*
G01X75000Y1600000D01*
G01X75000Y1600000D02*
G01X200000Y1600000D01*
G01X2200000Y2300000D02*
G01X2000000Y2300000D01*
G01X2000000Y2300000D02*
G01X2000000Y2525000D01*
G01X2000000Y2525000D02*
G01X2200000Y2525000D01*
G01X2200000Y2300000D02*
G01X2200000Y2525000D01*
G01X2200000Y2300000D02*
G01X2200000Y2350000D01*
G01X2200000Y2350000D02*
G01X2025000Y2350000D01*
G01X2025000Y2350000D02*
G01X2025000Y2400000D01*
G01X2025000Y2400000D02*
G01X2175000Y2400000D01*
G01X2175000Y2400000D02*
G01X2175000Y2450000D01*
G01X2175000Y2450000D02*
G01X2025000Y2450000D01*
G01X2025000Y2450000D02*
G01X2025000Y2500000D01*
G01X2025000Y2500000D02*
G01X2175000Y2500000D01*
G01X2175000Y2500000D02*
G01X2200000Y2525000D01*
G01X500000Y2300000D02*
G01X500000Y2525000D01*
G01X500000Y2525000D02*
G01X75000Y2525000D01*
G01X75000Y2525000D02*
G01X75000Y2200000D01*
G01X75000Y2200000D02*
G01X200000Y2200000D01*
G54D65*
G01X1700000Y2100000D02*
G01X1700000Y2200000D01*
G01X1700000Y2200000D02*
G01X1800000Y2300000D01*
G01X1800000Y2300000D02*
G01X2200000Y2300000D01*
G54D59*
G01X200000Y1200000D02*
G01X500000Y900000D01*
G01X500000Y900000D02*
G01X500000Y1000000D01*
G01X200000Y800000D02*
G01X500000Y800000D01*
G54D62*
G01X225000Y800000D02*
G01X200000Y800000D01*
G54D59*
G01X500000Y700000D02*
G01X500000Y775000D01*
G01X500000Y775000D02*
G01X500000Y800000D01*
G54D65*
G01X1700000Y2400000D02*
G01X1550000Y2250000D01*
G01X1550000Y2250000D02*
G01X1550000Y2100000D01*
G54D59*
G01X200000Y600000D02*
G01X500000Y600000D01*
G54D62*
G01X225000Y600000D02*
G01X200000Y600000D01*
G54D59*
G01X500000Y500000D02*
G01X500000Y600000D01*
G54D62*
G01X1900000Y300000D02*
G01X2000000Y300000D01*
G01X2000000Y300000D02*
G01X2000000Y75000D01*
G01X2000000Y75000D02*
G01X1325000Y75000D01*
G01X1325000Y75000D02*
G01X1000000Y400000D01*
G01X1000000Y400000D02*
G01X800000Y400000D01*
G54D61*
G01X800000Y400000D02*
G01X1000000Y400000D01*
G01X1000000Y400000D02*
G01X1325000Y75000D01*
G01X1325000Y75000D02*
G01X2000000Y75000D01*
G01X2000000Y75000D02*
G01X2000000Y300000D01*
G01X2000000Y300000D02*
G01X1900000Y300000D01*
G01X800000Y300000D02*
G01X800000Y400000D01*
G01X2650000Y2300000D02*
G01X2550000Y2300000D01*
G01X2550000Y2300000D02*
G01X2550000Y1900000D01*
G54D59*
G01X2650000Y2300000D02*
G01X2550000Y2300000D01*
G01X2550000Y2300000D02*
G01X2550000Y1900000D01*
G54D61*
G01X1900000Y700000D02*
G01X2000000Y700000D01*
G54D60*
G01X1500000Y1700000D02*
G01X1500000Y1600000D01*
G01X1500000Y1600000D02*
G01X1400000Y1500000D01*
G01X1400000Y1500000D02*
G01X1400000Y1380000D01*
G01X1400000Y1380000D02*
G01X1400000Y1400000D01*
G01X1400000Y1400000D02*
G01X1400000Y1300000D01*
G01X1400000Y1300000D02*
G01X1500000Y1300000D01*
G54D65*
G01X1500000Y2400000D02*
G01X1400000Y2300000D01*
G01X1400000Y2300000D02*
G01X1400000Y2125000D01*
G01X1400000Y2125000D02*
G01X1400000Y2100000D01*
G54D59*
G01X200000Y200000D02*
G01X500000Y200000D01*
G01X500000Y200000D02*
G01X500000Y325000D01*
G01X500000Y325000D02*
G01X500000Y300000D01*
G54D62*
G01X225000Y200000D02*
G01X200000Y200000D01*
G54D59*
G01X500000Y300000D02*
G01X500000Y400000D01*
G54D60*
G01X1400000Y1800000D02*
G01X1300000Y1800000D01*
G01X1300000Y1800000D02*
G01X1300000Y1700000D01*
G01X1100000Y1875000D02*
G01X1225000Y1875000D01*
G01X1225000Y1875000D02*
G01X1300000Y1800000D01*
G01X1300000Y1800000D02*
G01X1400000Y1800000D01*
G54D62*
G01X1900000Y400000D02*
G01X2100000Y400000D01*
G54D61*
G01X1900000Y400000D02*
G01X2100000Y400000D01*
G54D62*
G01X3100000Y1200000D02*
G01X3100000Y1400000D01*
G54D58*
G01X2850000Y2300000D02*
G01X2850000Y2450000D01*
G54D62*
G01X2600000Y900000D02*
G01X2600000Y800000D01*
G01X2600000Y800000D02*
G01X2700000Y700000D01*
G01X2700000Y700000D02*
G01X2850000Y700000D01*
G01X2850000Y700000D02*
G01X2950000Y600000D01*
G01X2950000Y600000D02*
G01X3100000Y600000D01*
G54D59*
G01X2850000Y2450000D02*
G01X2850000Y2300000D01*
G54D62*
G01X3100000Y2000000D02*
G01X3100000Y2300000D01*
G01X3100000Y2300000D02*
G01X3200000Y2300000D01*
G01X3200000Y2300000D02*
G01X3400000Y2500000D01*
G01X3400000Y2500000D02*
G01X3600000Y2500000D01*
G01X3600000Y2500000D02*
G01X3600000Y1300000D01*
G01X3600000Y1300000D02*
G01X3100000Y1300000D01*
G01X3100000Y1300000D02*
G01X3100000Y1400000D01*
G01X3100000Y2000000D02*
G01X3100000Y2300000D01*
G01X3100000Y2300000D02*
G01X2875000Y2300000D01*
G01X2875000Y2300000D02*
G01X2850000Y2300000D01*
G54D61*
G01X2600000Y900000D02*
G01X2600000Y800000D01*
G01X2600000Y800000D02*
G01X2700000Y700000D01*
G01X2700000Y700000D02*
G01X2850000Y700000D01*
G01X2850000Y700000D02*
G01X2950000Y600000D01*
G01X2950000Y600000D02*
G01X3100000Y600000D01*
G01X3100000Y600000D02*
G01X3100000Y100000D01*
G01X3100000Y100000D02*
G01X3600000Y100000D01*
G01X3600000Y100000D02*
G01X3600000Y2500000D01*
G01X3600000Y2500000D02*
G01X3400000Y2500000D01*
G01X3400000Y2500000D02*
G01X3200000Y2300000D01*
G01X3200000Y2300000D02*
G01X2850000Y2300000D01*
G01X3100000Y1200000D02*
G01X3100000Y1300000D01*
G01X3100000Y1300000D02*
G01X3600000Y1300000D01*
G01X3600000Y1300000D02*
G01X3100000Y1300000D01*
G01X3100000Y1300000D02*
G01X3100000Y1400000D01*
G01X3100000Y2000000D02*
G01X3100000Y2300000D01*
G01X3100000Y2300000D02*
G01X2850000Y2300000D01*
G54D59*
G01X2850000Y2300000D02*
G01X2900000Y2300000D01*
G01X2900000Y2300000D02*
G01X2900000Y2450000D01*
G01X2900000Y2450000D02*
G01X2850000Y2450000D01*
G01X2850000Y2450000D02*
G01X2950000Y2450000D01*
G01X2950000Y2450000D02*
G01X2950000Y2300000D01*
G01X2950000Y2300000D02*
G01X2850000Y2300000D01*
G01X2850000Y2300000D02*
G01X2850000Y2525000D01*
G01X2850000Y2525000D02*
G01X2950000Y2525000D01*
G01X2950000Y2525000D02*
G01X2950000Y2475000D01*
G01X2950000Y2475000D02*
G01X2850000Y2475000D01*
G01X2850000Y2475000D02*
G01X2850000Y2250000D01*
G01X2850000Y2250000D02*
G01X2950000Y2250000D01*
G01X2950000Y2250000D02*
G01X2950000Y2475000D01*
G01X2950000Y2475000D02*
G01X2900000Y2475000D01*
G01X2900000Y2475000D02*
G01X2900000Y2300000D01*
G01X2900000Y2300000D02*
G01X2850000Y2300000D01*
G01X2850000Y2300000D02*
G01X3100000Y2300000D01*
G01X3100000Y2300000D02*
G01X3100000Y2250000D01*
G01X3100000Y2250000D02*
G01X2850000Y2250000D01*
G01X2850000Y2250000D02*
G01X2850000Y2300000D01*
G01X2850000Y2300000D02*
G01X2850000Y2450000D01*
G54D60*
G01X1200000Y1800000D02*
G01X1200000Y1700000D01*
G01X1200000Y1800000D02*
G01X1000000Y1800000D01*
G01X1000000Y1800000D02*
G01X1000000Y2300000D01*
G01X1000000Y2300000D02*
G01X1100000Y2400000D01*
G01X1300000Y2375000D02*
G01X1300000Y2400000D01*
G01X1100000Y2175000D02*
G01X1300000Y2375000D01*
G01X1300000Y2375000D02*
G01X1300000Y2400000D01*

G04 Draw Text*
M00*
M02*
