G04 FreePCB version 1.200*
G04 C:\Users\Jaco\Desktop\fishino UNO\Dec4Coil4Rele\CAMb\top_silk.grb*
G04 top silk layer *
G04 Scale: 100 percent, Rotated: No, Reflected: No *
%FSLAX26Y26*%
%MOIN*%
%LNTop*%
%ADD10C,0.005000*%
%ADD11C,0.007000*%
%ADD12C,0.010000*%
%ADD13C,0.019685*%
%ADD14C,0.015748*%
%ADD15C,0.011811*%
G90*
G70D02*

G04 ----------------------- Draw board outline (positive)*
%LPD*%
G54D10*
G01X0Y0D02*
G01X3700000Y0D01*
G04 end of side 1*
G01X3700000Y2600000D01*
G04 end of side 2*
G01X0Y2600000D01*
G04 end of side 3*
G01X0Y0D01*

G04 -------------- Draw Parts, Pads, Traces, Vias and Text (positive)*
%LPD*%
G04 Draw part atmega*
G04 draw part outline for part atmega*
G54D11*
G01X1650000Y1550000D02*
G01X1650000Y150000D01*
G01X1650000Y150000D02*
G01X1850000Y150000D01*
G01X1850000Y150000D02*
G01X1850000Y1550000D01*
G01X1850000Y1550000D02*
G01X1650000Y1550000D01*
G01X1700000Y1550000D02*
G01X1700000Y1500000D01*
G01X1700000Y1500000D02*
G01X1800000Y1500000D01*
G01X1800000Y1500000D02*
G01X1800000Y1550000D01*
G01X1800000Y1550000D02*
G01X1700000Y1550000D01*
G04 draw reference designator for part atmega*
G01X1777272Y1656818D02*
G01X1777272Y1625000D01*
G01X1772727Y1654545D02*
G01X1777272Y1650000D01*
G01X1768181Y1656818D02*
G01X1772727Y1654545D01*
G01X1761363Y1656818D02*
G01X1768181Y1656818D01*
G01X1761363Y1656818D02*
G01X1756818Y1654545D01*
G01X1756818Y1654545D02*
G01X1752272Y1650000D01*
G01X1752272Y1650000D02*
G01X1750000Y1643181D01*
G01X1750000Y1643181D02*
G01X1750000Y1638636D01*
G01X1750000Y1638636D02*
G01X1752272Y1631818D01*
G01X1752272Y1631818D02*
G01X1756818Y1627272D01*
G01X1756818Y1627272D02*
G01X1761363Y1625000D01*
G01X1768181Y1625000D02*
G01X1761363Y1625000D01*
G01X1772727Y1627272D02*
G01X1768181Y1625000D01*
G01X1777272Y1631818D02*
G01X1772727Y1627272D01*
G01X1802272Y1672727D02*
G01X1802272Y1634090D01*
G01X1802272Y1634090D02*
G01X1804545Y1627272D01*
G01X1804545Y1627272D02*
G01X1809090Y1625000D01*
G01X1813636Y1625000D02*
G01X1809090Y1625000D01*
G01X1811363Y1656818D02*
G01X1795454Y1656818D01*
G01X1831818Y1656818D02*
G01X1831818Y1625000D01*
G01X1838636Y1654545D02*
G01X1831818Y1647727D01*
G01X1843181Y1656818D02*
G01X1838636Y1654545D01*
G01X1850000Y1656818D02*
G01X1843181Y1656818D01*
G01X1850000Y1656818D02*
G01X1854545Y1654545D01*
G01X1854545Y1654545D02*
G01X1856818Y1647727D01*
G01X1856818Y1647727D02*
G01X1856818Y1625000D01*
G01X1863636Y1654545D02*
G01X1856818Y1647727D01*
G01X1868181Y1656818D02*
G01X1863636Y1654545D01*
G01X1875000Y1656818D02*
G01X1868181Y1656818D01*
G01X1875000Y1656818D02*
G01X1879545Y1654545D01*
G01X1879545Y1654545D02*
G01X1881818Y1647727D01*
G01X1881818Y1647727D02*
G01X1881818Y1625000D01*
G01X1927272Y1643181D02*
G01X1900000Y1643181D01*
G01X1927272Y1647727D02*
G01X1927272Y1643181D01*
G01X1925000Y1652272D02*
G01X1927272Y1647727D01*
G01X1922727Y1654545D02*
G01X1925000Y1652272D01*
G01X1918181Y1656818D02*
G01X1922727Y1654545D01*
G01X1911363Y1656818D02*
G01X1918181Y1656818D01*
G01X1911363Y1656818D02*
G01X1906818Y1654545D01*
G01X1906818Y1654545D02*
G01X1902272Y1650000D01*
G01X1902272Y1650000D02*
G01X1900000Y1643181D01*
G01X1900000Y1643181D02*
G01X1900000Y1638636D01*
G01X1900000Y1638636D02*
G01X1902272Y1631818D01*
G01X1902272Y1631818D02*
G01X1906818Y1627272D01*
G01X1906818Y1627272D02*
G01X1911363Y1625000D01*
G01X1918181Y1625000D02*
G01X1911363Y1625000D01*
G01X1922727Y1627272D02*
G01X1918181Y1625000D01*
G01X1927272Y1631818D02*
G01X1922727Y1627272D01*
G01X1972727Y1656818D02*
G01X1972727Y1620454D01*
G01X1972727Y1620454D02*
G01X1970454Y1613636D01*
G01X1970454Y1613636D02*
G01X1968181Y1611363D01*
G01X1968181Y1611363D02*
G01X1963636Y1609090D01*
G01X1956818Y1609090D02*
G01X1963636Y1609090D01*
G01X1952272Y1611363D02*
G01X1956818Y1609090D01*
G01X1968181Y1654545D02*
G01X1972727Y1650000D01*
G01X1963636Y1656818D02*
G01X1968181Y1654545D01*
G01X1956818Y1656818D02*
G01X1963636Y1656818D01*
G01X1956818Y1656818D02*
G01X1952272Y1654545D01*
G01X1952272Y1654545D02*
G01X1947727Y1650000D01*
G01X1947727Y1650000D02*
G01X1945454Y1643181D01*
G01X1945454Y1643181D02*
G01X1945454Y1638636D01*
G01X1945454Y1638636D02*
G01X1947727Y1631818D01*
G01X1947727Y1631818D02*
G01X1952272Y1627272D01*
G01X1952272Y1627272D02*
G01X1956818Y1625000D01*
G01X1963636Y1625000D02*
G01X1956818Y1625000D01*
G01X1968181Y1627272D02*
G01X1963636Y1625000D01*
G01X1972727Y1631818D02*
G01X1968181Y1627272D01*
G01X2018181Y1656818D02*
G01X2018181Y1625000D01*
G01X2013636Y1654545D02*
G01X2018181Y1650000D01*
G01X2009090Y1656818D02*
G01X2013636Y1654545D01*
G01X2002272Y1656818D02*
G01X2009090Y1656818D01*
G01X2002272Y1656818D02*
G01X1997727Y1654545D01*
G01X1997727Y1654545D02*
G01X1993181Y1650000D01*
G01X1993181Y1650000D02*
G01X1990909Y1643181D01*
G01X1990909Y1643181D02*
G01X1990909Y1638636D01*
G01X1990909Y1638636D02*
G01X1993181Y1631818D01*
G01X1993181Y1631818D02*
G01X1997727Y1627272D01*
G01X1997727Y1627272D02*
G01X2002272Y1625000D01*
G01X2009090Y1625000D02*
G01X2002272Y1625000D01*
G01X2013636Y1627272D02*
G01X2009090Y1625000D01*
G01X2018181Y1631818D02*
G01X2013636Y1627272D01*
G04 Draw part a7*
G04 draw part outline for part a7*
G01X1467000Y1470000D02*
G01X1467000Y1630000D01*
G01X1467000Y1630000D02*
G01X1533000Y1630000D01*
G01X1533000Y1630000D02*
G01X1533000Y1470000D01*
G01X1533000Y1470000D02*
G01X1467000Y1470000D01*
G04 draw reference designator for part a7*
G01X1395181Y1577272D02*
G01X1427000Y1577272D01*
G01X1397454Y1572727D02*
G01X1402000Y1577272D01*
G01X1395181Y1568181D02*
G01X1397454Y1572727D01*
G01X1395181Y1561363D02*
G01X1395181Y1568181D01*
G01X1395181Y1561363D02*
G01X1397454Y1556818D01*
G01X1397454Y1556818D02*
G01X1402000Y1552272D01*
G01X1402000Y1552272D02*
G01X1408818Y1550000D01*
G01X1408818Y1550000D02*
G01X1413363Y1550000D01*
G01X1413363Y1550000D02*
G01X1420181Y1552272D01*
G01X1420181Y1552272D02*
G01X1424727Y1556818D01*
G01X1424727Y1556818D02*
G01X1427000Y1561363D01*
G01X1427000Y1568181D02*
G01X1427000Y1561363D01*
G01X1424727Y1572727D02*
G01X1427000Y1568181D01*
G01X1420181Y1577272D02*
G01X1424727Y1572727D01*
G01X1379272Y1627272D02*
G01X1427000Y1604545D01*
G01X1379272Y1627272D02*
G01X1379272Y1595454D01*
G04 Draw part a16*
G04 draw part outline for part a16*
G01X2350000Y1750000D02*
G01X2350000Y850000D01*
G01X2350000Y850000D02*
G01X2550000Y850000D01*
G01X2550000Y850000D02*
G01X2550000Y1750000D01*
G01X2550000Y1750000D02*
G01X2350000Y1750000D01*
G01X2400000Y1750000D02*
G01X2400000Y1700000D01*
G01X2400000Y1700000D02*
G01X2500000Y1700000D01*
G01X2500000Y1700000D02*
G01X2500000Y1750000D01*
G01X2500000Y1750000D02*
G01X2400000Y1750000D01*
G04 draw reference designator for part a16*
G01X2477272Y1831818D02*
G01X2477272Y1800000D01*
G01X2472727Y1829545D02*
G01X2477272Y1825000D01*
G01X2468181Y1831818D02*
G01X2472727Y1829545D01*
G01X2461363Y1831818D02*
G01X2468181Y1831818D01*
G01X2461363Y1831818D02*
G01X2456818Y1829545D01*
G01X2456818Y1829545D02*
G01X2452272Y1825000D01*
G01X2452272Y1825000D02*
G01X2450000Y1818181D01*
G01X2450000Y1818181D02*
G01X2450000Y1813636D01*
G01X2450000Y1813636D02*
G01X2452272Y1806818D01*
G01X2452272Y1806818D02*
G01X2456818Y1802272D01*
G01X2456818Y1802272D02*
G01X2461363Y1800000D01*
G01X2468181Y1800000D02*
G01X2461363Y1800000D01*
G01X2472727Y1802272D02*
G01X2468181Y1800000D01*
G01X2477272Y1806818D02*
G01X2472727Y1802272D01*
G01X2500000Y1840909D02*
G01X2495454Y1838636D01*
G01X2506818Y1847727D02*
G01X2500000Y1840909D01*
G01X2506818Y1847727D02*
G01X2506818Y1800000D01*
G01X2550000Y1845454D02*
G01X2552272Y1840909D01*
G01X2543181Y1847727D02*
G01X2550000Y1845454D01*
G01X2538636Y1847727D02*
G01X2543181Y1847727D01*
G01X2538636Y1847727D02*
G01X2531818Y1845454D01*
G01X2531818Y1845454D02*
G01X2527272Y1838636D01*
G01X2527272Y1838636D02*
G01X2525000Y1827272D01*
G01X2525000Y1827272D02*
G01X2525000Y1815909D01*
G01X2525000Y1815909D02*
G01X2527272Y1806818D01*
G01X2527272Y1806818D02*
G01X2531818Y1802272D01*
G01X2531818Y1802272D02*
G01X2538636Y1800000D01*
G01X2540909Y1800000D02*
G01X2538636Y1800000D01*
G01X2547727Y1802272D02*
G01X2540909Y1800000D01*
G01X2552272Y1806818D02*
G01X2547727Y1802272D01*
G01X2554545Y1813636D02*
G01X2552272Y1806818D01*
G01X2554545Y1815909D02*
G01X2554545Y1813636D01*
G01X2552272Y1822727D02*
G01X2554545Y1815909D01*
G01X2547727Y1827272D02*
G01X2552272Y1822727D01*
G01X2540909Y1829545D02*
G01X2547727Y1827272D01*
G01X2538636Y1829545D02*
G01X2540909Y1829545D01*
G01X2538636Y1829545D02*
G01X2531818Y1827272D01*
G01X2531818Y1827272D02*
G01X2527272Y1822727D01*
G01X2527272Y1822727D02*
G01X2525000Y1815909D01*
G04 Draw part a18*
G04 draw part outline for part a18*
G54D12*
G01X2750000Y2050000D02*
G01X2750000Y1750000D01*
G01X2750000Y1750000D02*
G01X3250000Y1750000D01*
G01X3250000Y1750000D02*
G01X3250000Y2050000D01*
G01X3250000Y2050000D02*
G01X2750000Y2050000D01*
G01X3100000Y2000000D02*
G01X3100000Y1950000D01*
G01X3100000Y1950000D02*
G01X3090000Y1940000D01*
G01X3090000Y1940000D02*
G01X3110000Y1920000D01*
G01X3110000Y1920000D02*
G01X3090000Y1900000D01*
G01X3090000Y1900000D02*
G01X3110000Y1880000D01*
G01X3110000Y1880000D02*
G01X3090000Y1860000D01*
G01X3090000Y1860000D02*
G01X3100000Y1850000D01*
G01X3100000Y1850000D02*
G01X3100000Y1800000D01*
G01X3200000Y2000000D02*
G01X3200000Y1940000D01*
G01X2800000Y2000000D02*
G01X2800000Y1800000D01*
G01X2800000Y1800000D02*
G01X2800000Y1900000D01*
G01X2800000Y1900000D02*
G01X3170000Y1900000D01*
G01X3170000Y1900000D02*
G01X3200000Y1870000D01*
G01X3200000Y1800000D02*
G01X3200000Y1850000D01*
G04 draw reference designator for part a18*
G54D10*
G01X2927272Y1931818D02*
G01X2927272Y1900000D01*
G01X2922727Y1929545D02*
G01X2927272Y1925000D01*
G01X2918181Y1931818D02*
G01X2922727Y1929545D01*
G01X2911363Y1931818D02*
G01X2918181Y1931818D01*
G01X2911363Y1931818D02*
G01X2906818Y1929545D01*
G01X2906818Y1929545D02*
G01X2902272Y1925000D01*
G01X2902272Y1925000D02*
G01X2900000Y1918181D01*
G01X2900000Y1918181D02*
G01X2900000Y1913636D01*
G01X2900000Y1913636D02*
G01X2902272Y1906818D01*
G01X2902272Y1906818D02*
G01X2906818Y1902272D01*
G01X2906818Y1902272D02*
G01X2911363Y1900000D01*
G01X2918181Y1900000D02*
G01X2911363Y1900000D01*
G01X2922727Y1902272D02*
G01X2918181Y1900000D01*
G01X2927272Y1906818D02*
G01X2922727Y1902272D01*
G01X2950000Y1940909D02*
G01X2945454Y1938636D01*
G01X2956818Y1947727D02*
G01X2950000Y1940909D01*
G01X2956818Y1947727D02*
G01X2956818Y1900000D01*
G01X2986363Y1947727D02*
G01X2979545Y1945454D01*
G01X2979545Y1945454D02*
G01X2977272Y1940909D01*
G01X2977272Y1940909D02*
G01X2977272Y1936363D01*
G01X2977272Y1936363D02*
G01X2979545Y1931818D01*
G01X2979545Y1931818D02*
G01X2984090Y1929545D01*
G01X2984090Y1929545D02*
G01X2993181Y1927272D01*
G01X2993181Y1927272D02*
G01X3000000Y1925000D01*
G01X3000000Y1925000D02*
G01X3004545Y1920454D01*
G01X3004545Y1920454D02*
G01X3006818Y1915909D01*
G01X3006818Y1915909D02*
G01X3006818Y1909090D01*
G01X3006818Y1909090D02*
G01X3004545Y1904545D01*
G01X3004545Y1904545D02*
G01X3002272Y1902272D01*
G01X3002272Y1902272D02*
G01X2995454Y1900000D01*
G01X2986363Y1900000D02*
G01X2995454Y1900000D01*
G01X2979545Y1902272D02*
G01X2986363Y1900000D01*
G01X2977272Y1904545D02*
G01X2979545Y1902272D01*
G01X2975000Y1909090D02*
G01X2977272Y1904545D01*
G01X2975000Y1915909D02*
G01X2975000Y1909090D01*
G01X2977272Y1920454D02*
G01X2975000Y1915909D01*
G01X2981818Y1925000D02*
G01X2977272Y1920454D01*
G01X2988636Y1927272D02*
G01X2981818Y1925000D01*
G01X2997727Y1929545D02*
G01X2988636Y1927272D01*
G01X3002272Y1931818D02*
G01X2997727Y1929545D01*
G01X3004545Y1936363D02*
G01X3002272Y1931818D01*
G01X3004545Y1940909D02*
G01X3004545Y1936363D01*
G01X3002272Y1945454D02*
G01X3004545Y1940909D01*
G01X2995454Y1947727D02*
G01X3002272Y1945454D01*
G01X2986363Y1947727D02*
G01X2995454Y1947727D01*
G04 Draw part a19*
G04 draw part outline for part a19*
G54D12*
G01X2750000Y1650000D02*
G01X2750000Y1350000D01*
G01X2750000Y1350000D02*
G01X3250000Y1350000D01*
G01X3250000Y1350000D02*
G01X3250000Y1650000D01*
G01X3250000Y1650000D02*
G01X2750000Y1650000D01*
G01X3100000Y1600000D02*
G01X3100000Y1550000D01*
G01X3100000Y1550000D02*
G01X3090000Y1540000D01*
G01X3090000Y1540000D02*
G01X3110000Y1520000D01*
G01X3110000Y1520000D02*
G01X3090000Y1500000D01*
G01X3090000Y1500000D02*
G01X3110000Y1480000D01*
G01X3110000Y1480000D02*
G01X3090000Y1460000D01*
G01X3090000Y1460000D02*
G01X3100000Y1450000D01*
G01X3100000Y1450000D02*
G01X3100000Y1400000D01*
G01X3200000Y1600000D02*
G01X3200000Y1540000D01*
G01X2800000Y1600000D02*
G01X2800000Y1400000D01*
G01X2800000Y1400000D02*
G01X2800000Y1500000D01*
G01X2800000Y1500000D02*
G01X3170000Y1500000D01*
G01X3170000Y1500000D02*
G01X3200000Y1470000D01*
G01X3200000Y1400000D02*
G01X3200000Y1450000D01*
G04 draw reference designator for part a19*
G54D10*
G01X2927272Y1531818D02*
G01X2927272Y1500000D01*
G01X2922727Y1529545D02*
G01X2927272Y1525000D01*
G01X2918181Y1531818D02*
G01X2922727Y1529545D01*
G01X2911363Y1531818D02*
G01X2918181Y1531818D01*
G01X2911363Y1531818D02*
G01X2906818Y1529545D01*
G01X2906818Y1529545D02*
G01X2902272Y1525000D01*
G01X2902272Y1525000D02*
G01X2900000Y1518181D01*
G01X2900000Y1518181D02*
G01X2900000Y1513636D01*
G01X2900000Y1513636D02*
G01X2902272Y1506818D01*
G01X2902272Y1506818D02*
G01X2906818Y1502272D01*
G01X2906818Y1502272D02*
G01X2911363Y1500000D01*
G01X2918181Y1500000D02*
G01X2911363Y1500000D01*
G01X2922727Y1502272D02*
G01X2918181Y1500000D01*
G01X2927272Y1506818D02*
G01X2922727Y1502272D01*
G01X2950000Y1540909D02*
G01X2945454Y1538636D01*
G01X2956818Y1547727D02*
G01X2950000Y1540909D01*
G01X2956818Y1547727D02*
G01X2956818Y1500000D01*
G01X3004545Y1531818D02*
G01X3002272Y1525000D01*
G01X3002272Y1525000D02*
G01X2997727Y1520454D01*
G01X2997727Y1520454D02*
G01X2990909Y1518181D01*
G01X2988636Y1518181D02*
G01X2990909Y1518181D01*
G01X2981818Y1520454D02*
G01X2988636Y1518181D01*
G01X2977272Y1525000D02*
G01X2981818Y1520454D01*
G01X2975000Y1531818D02*
G01X2977272Y1525000D01*
G01X2975000Y1534090D02*
G01X2975000Y1531818D01*
G01X2977272Y1540909D02*
G01X2975000Y1534090D01*
G01X2981818Y1545454D02*
G01X2977272Y1540909D01*
G01X2988636Y1547727D02*
G01X2981818Y1545454D01*
G01X2990909Y1547727D02*
G01X2988636Y1547727D01*
G01X2990909Y1547727D02*
G01X2997727Y1545454D01*
G01X2997727Y1545454D02*
G01X3002272Y1540909D01*
G01X3002272Y1540909D02*
G01X3004545Y1531818D01*
G01X3004545Y1531818D02*
G01X3004545Y1520454D01*
G01X3004545Y1520454D02*
G01X3002272Y1509090D01*
G01X3002272Y1509090D02*
G01X2997727Y1502272D01*
G01X2997727Y1502272D02*
G01X2990909Y1500000D01*
G01X2986363Y1500000D02*
G01X2990909Y1500000D01*
G01X2979545Y1502272D02*
G01X2986363Y1500000D01*
G01X2977272Y1506818D02*
G01X2979545Y1502272D01*
G04 Draw part a20*
G04 draw part outline for part a20*
G54D12*
G01X2750000Y1250000D02*
G01X2750000Y950000D01*
G01X2750000Y950000D02*
G01X3250000Y950000D01*
G01X3250000Y950000D02*
G01X3250000Y1250000D01*
G01X3250000Y1250000D02*
G01X2750000Y1250000D01*
G01X3100000Y1200000D02*
G01X3100000Y1150000D01*
G01X3100000Y1150000D02*
G01X3090000Y1140000D01*
G01X3090000Y1140000D02*
G01X3110000Y1120000D01*
G01X3110000Y1120000D02*
G01X3090000Y1100000D01*
G01X3090000Y1100000D02*
G01X3110000Y1080000D01*
G01X3110000Y1080000D02*
G01X3090000Y1060000D01*
G01X3090000Y1060000D02*
G01X3100000Y1050000D01*
G01X3100000Y1050000D02*
G01X3100000Y1000000D01*
G01X3200000Y1200000D02*
G01X3200000Y1140000D01*
G01X2800000Y1200000D02*
G01X2800000Y1000000D01*
G01X2800000Y1000000D02*
G01X2800000Y1100000D01*
G01X2800000Y1100000D02*
G01X3170000Y1100000D01*
G01X3170000Y1100000D02*
G01X3200000Y1070000D01*
G01X3200000Y1000000D02*
G01X3200000Y1050000D01*
G04 draw reference designator for part a20*
G54D10*
G01X2927272Y1131818D02*
G01X2927272Y1100000D01*
G01X2922727Y1129545D02*
G01X2927272Y1125000D01*
G01X2918181Y1131818D02*
G01X2922727Y1129545D01*
G01X2911363Y1131818D02*
G01X2918181Y1131818D01*
G01X2911363Y1131818D02*
G01X2906818Y1129545D01*
G01X2906818Y1129545D02*
G01X2902272Y1125000D01*
G01X2902272Y1125000D02*
G01X2900000Y1118181D01*
G01X2900000Y1118181D02*
G01X2900000Y1113636D01*
G01X2900000Y1113636D02*
G01X2902272Y1106818D01*
G01X2902272Y1106818D02*
G01X2906818Y1102272D01*
G01X2906818Y1102272D02*
G01X2911363Y1100000D01*
G01X2918181Y1100000D02*
G01X2911363Y1100000D01*
G01X2922727Y1102272D02*
G01X2918181Y1100000D01*
G01X2927272Y1106818D02*
G01X2922727Y1102272D01*
G01X2947727Y1138636D02*
G01X2947727Y1136363D01*
G01X2950000Y1143181D02*
G01X2947727Y1138636D01*
G01X2952272Y1145454D02*
G01X2950000Y1143181D01*
G01X2956818Y1147727D02*
G01X2952272Y1145454D01*
G01X2965909Y1147727D02*
G01X2956818Y1147727D01*
G01X2965909Y1147727D02*
G01X2970454Y1145454D01*
G01X2970454Y1145454D02*
G01X2972727Y1143181D01*
G01X2972727Y1143181D02*
G01X2975000Y1138636D01*
G01X2975000Y1138636D02*
G01X2975000Y1134090D01*
G01X2975000Y1134090D02*
G01X2972727Y1129545D01*
G01X2972727Y1129545D02*
G01X2968181Y1122727D01*
G01X2968181Y1122727D02*
G01X2945454Y1100000D01*
G01X2977272Y1100000D02*
G01X2945454Y1100000D01*
G01X3009090Y1147727D02*
G01X3002272Y1145454D01*
G01X3002272Y1145454D02*
G01X2997727Y1138636D01*
G01X2997727Y1138636D02*
G01X2995454Y1127272D01*
G01X2995454Y1127272D02*
G01X2995454Y1120454D01*
G01X2995454Y1120454D02*
G01X2997727Y1109090D01*
G01X2997727Y1109090D02*
G01X3002272Y1102272D01*
G01X3002272Y1102272D02*
G01X3009090Y1100000D01*
G01X3013636Y1100000D02*
G01X3009090Y1100000D01*
G01X3020454Y1102272D02*
G01X3013636Y1100000D01*
G01X3025000Y1109090D02*
G01X3020454Y1102272D01*
G01X3027272Y1120454D02*
G01X3025000Y1109090D01*
G01X3027272Y1127272D02*
G01X3027272Y1120454D01*
G01X3025000Y1138636D02*
G01X3027272Y1127272D01*
G01X3020454Y1145454D02*
G01X3025000Y1138636D01*
G01X3013636Y1147727D02*
G01X3020454Y1145454D01*
G01X3009090Y1147727D02*
G01X3013636Y1147727D01*
G04 Draw part a21*
G04 draw part outline for part a21*
G54D12*
G01X2750000Y850000D02*
G01X2750000Y550000D01*
G01X2750000Y550000D02*
G01X3250000Y550000D01*
G01X3250000Y550000D02*
G01X3250000Y850000D01*
G01X3250000Y850000D02*
G01X2750000Y850000D01*
G01X3100000Y800000D02*
G01X3100000Y750000D01*
G01X3100000Y750000D02*
G01X3090000Y740000D01*
G01X3090000Y740000D02*
G01X3110000Y720000D01*
G01X3110000Y720000D02*
G01X3090000Y700000D01*
G01X3090000Y700000D02*
G01X3110000Y680000D01*
G01X3110000Y680000D02*
G01X3090000Y660000D01*
G01X3090000Y660000D02*
G01X3100000Y650000D01*
G01X3100000Y650000D02*
G01X3100000Y600000D01*
G01X3200000Y800000D02*
G01X3200000Y740000D01*
G01X2800000Y800000D02*
G01X2800000Y600000D01*
G01X2800000Y600000D02*
G01X2800000Y700000D01*
G01X2800000Y700000D02*
G01X3170000Y700000D01*
G01X3170000Y700000D02*
G01X3200000Y670000D01*
G01X3200000Y600000D02*
G01X3200000Y650000D01*
G04 draw reference designator for part a21*
G54D10*
G01X2927272Y731818D02*
G01X2927272Y700000D01*
G01X2922727Y729545D02*
G01X2927272Y725000D01*
G01X2918181Y731818D02*
G01X2922727Y729545D01*
G01X2911363Y731818D02*
G01X2918181Y731818D01*
G01X2911363Y731818D02*
G01X2906818Y729545D01*
G01X2906818Y729545D02*
G01X2902272Y725000D01*
G01X2902272Y725000D02*
G01X2900000Y718181D01*
G01X2900000Y718181D02*
G01X2900000Y713636D01*
G01X2900000Y713636D02*
G01X2902272Y706818D01*
G01X2902272Y706818D02*
G01X2906818Y702272D01*
G01X2906818Y702272D02*
G01X2911363Y700000D01*
G01X2918181Y700000D02*
G01X2911363Y700000D01*
G01X2922727Y702272D02*
G01X2918181Y700000D01*
G01X2927272Y706818D02*
G01X2922727Y702272D01*
G01X2947727Y738636D02*
G01X2947727Y736363D01*
G01X2950000Y743181D02*
G01X2947727Y738636D01*
G01X2952272Y745454D02*
G01X2950000Y743181D01*
G01X2956818Y747727D02*
G01X2952272Y745454D01*
G01X2965909Y747727D02*
G01X2956818Y747727D01*
G01X2965909Y747727D02*
G01X2970454Y745454D01*
G01X2970454Y745454D02*
G01X2972727Y743181D01*
G01X2972727Y743181D02*
G01X2975000Y738636D01*
G01X2975000Y738636D02*
G01X2975000Y734090D01*
G01X2975000Y734090D02*
G01X2972727Y729545D01*
G01X2972727Y729545D02*
G01X2968181Y722727D01*
G01X2968181Y722727D02*
G01X2945454Y700000D01*
G01X2977272Y700000D02*
G01X2945454Y700000D01*
G01X3000000Y740909D02*
G01X2995454Y738636D01*
G01X3006818Y747727D02*
G01X3000000Y740909D01*
G01X3006818Y747727D02*
G01X3006818Y700000D01*
G04 Draw part a26*
G04 draw part outline for part a26*
G54D11*
G01X3428003Y2471996D02*
G01X3428003Y1928003D01*
G01X3428003Y1928003D02*
G01X3571996Y1928003D01*
G01X3571996Y1928003D02*
G01X3571996Y2471996D01*
G01X3571996Y2471996D02*
G01X3428003Y2471996D01*
G04 draw reference designator for part a26*
G54D10*
G01X3531818Y2272727D02*
G01X3500000Y2272727D01*
G01X3529545Y2277272D02*
G01X3525000Y2272727D01*
G01X3531818Y2281818D02*
G01X3529545Y2277272D01*
G01X3531818Y2288636D02*
G01X3531818Y2281818D01*
G01X3531818Y2288636D02*
G01X3529545Y2293181D01*
G01X3529545Y2293181D02*
G01X3525000Y2297727D01*
G01X3525000Y2297727D02*
G01X3518181Y2300000D01*
G01X3518181Y2300000D02*
G01X3513636Y2300000D01*
G01X3513636Y2300000D02*
G01X3506818Y2297727D01*
G01X3506818Y2297727D02*
G01X3502272Y2293181D01*
G01X3502272Y2293181D02*
G01X3500000Y2288636D01*
G01X3500000Y2281818D02*
G01X3500000Y2288636D01*
G01X3502272Y2277272D02*
G01X3500000Y2281818D01*
G01X3506818Y2272727D02*
G01X3502272Y2277272D01*
G01X3538636Y2252272D02*
G01X3536363Y2252272D01*
G01X3543181Y2250000D02*
G01X3538636Y2252272D01*
G01X3545454Y2247727D02*
G01X3543181Y2250000D01*
G01X3547727Y2243181D02*
G01X3545454Y2247727D01*
G01X3547727Y2234090D02*
G01X3547727Y2243181D01*
G01X3547727Y2234090D02*
G01X3545454Y2229545D01*
G01X3545454Y2229545D02*
G01X3543181Y2227272D01*
G01X3543181Y2227272D02*
G01X3538636Y2225000D01*
G01X3538636Y2225000D02*
G01X3534090Y2225000D01*
G01X3534090Y2225000D02*
G01X3529545Y2227272D01*
G01X3529545Y2227272D02*
G01X3522727Y2231818D01*
G01X3522727Y2231818D02*
G01X3500000Y2254545D01*
G01X3500000Y2222727D02*
G01X3500000Y2254545D01*
G01X3545454Y2179545D02*
G01X3540909Y2177272D01*
G01X3547727Y2186363D02*
G01X3545454Y2179545D01*
G01X3547727Y2190909D02*
G01X3547727Y2186363D01*
G01X3547727Y2190909D02*
G01X3545454Y2197727D01*
G01X3545454Y2197727D02*
G01X3538636Y2202272D01*
G01X3538636Y2202272D02*
G01X3527272Y2204545D01*
G01X3527272Y2204545D02*
G01X3515909Y2204545D01*
G01X3515909Y2204545D02*
G01X3506818Y2202272D01*
G01X3506818Y2202272D02*
G01X3502272Y2197727D01*
G01X3502272Y2197727D02*
G01X3500000Y2190909D01*
G01X3500000Y2188636D02*
G01X3500000Y2190909D01*
G01X3502272Y2181818D02*
G01X3500000Y2188636D01*
G01X3506818Y2177272D02*
G01X3502272Y2181818D01*
G01X3513636Y2175000D02*
G01X3506818Y2177272D01*
G01X3515909Y2175000D02*
G01X3513636Y2175000D01*
G01X3522727Y2177272D02*
G01X3515909Y2175000D01*
G01X3527272Y2181818D02*
G01X3522727Y2177272D01*
G01X3529545Y2188636D02*
G01X3527272Y2181818D01*
G01X3529545Y2190909D02*
G01X3529545Y2188636D01*
G01X3529545Y2190909D02*
G01X3527272Y2197727D01*
G01X3527272Y2197727D02*
G01X3522727Y2202272D01*
G01X3522727Y2202272D02*
G01X3515909Y2204545D01*
G04 Draw part a27*
G04 draw part outline for part a27*
G54D11*
G01X3428003Y1871996D02*
G01X3428003Y1328003D01*
G01X3428003Y1328003D02*
G01X3571996Y1328003D01*
G01X3571996Y1328003D02*
G01X3571996Y1871996D01*
G01X3571996Y1871996D02*
G01X3428003Y1871996D01*
G04 draw reference designator for part a27*
G54D10*
G01X3531818Y1672727D02*
G01X3500000Y1672727D01*
G01X3529545Y1677272D02*
G01X3525000Y1672727D01*
G01X3531818Y1681818D02*
G01X3529545Y1677272D01*
G01X3531818Y1688636D02*
G01X3531818Y1681818D01*
G01X3531818Y1688636D02*
G01X3529545Y1693181D01*
G01X3529545Y1693181D02*
G01X3525000Y1697727D01*
G01X3525000Y1697727D02*
G01X3518181Y1700000D01*
G01X3518181Y1700000D02*
G01X3513636Y1700000D01*
G01X3513636Y1700000D02*
G01X3506818Y1697727D01*
G01X3506818Y1697727D02*
G01X3502272Y1693181D01*
G01X3502272Y1693181D02*
G01X3500000Y1688636D01*
G01X3500000Y1681818D02*
G01X3500000Y1688636D01*
G01X3502272Y1677272D02*
G01X3500000Y1681818D01*
G01X3506818Y1672727D02*
G01X3502272Y1677272D01*
G01X3538636Y1652272D02*
G01X3536363Y1652272D01*
G01X3543181Y1650000D02*
G01X3538636Y1652272D01*
G01X3545454Y1647727D02*
G01X3543181Y1650000D01*
G01X3547727Y1643181D02*
G01X3545454Y1647727D01*
G01X3547727Y1634090D02*
G01X3547727Y1643181D01*
G01X3547727Y1634090D02*
G01X3545454Y1629545D01*
G01X3545454Y1629545D02*
G01X3543181Y1627272D01*
G01X3543181Y1627272D02*
G01X3538636Y1625000D01*
G01X3538636Y1625000D02*
G01X3534090Y1625000D01*
G01X3534090Y1625000D02*
G01X3529545Y1627272D01*
G01X3529545Y1627272D02*
G01X3522727Y1631818D01*
G01X3522727Y1631818D02*
G01X3500000Y1654545D01*
G01X3500000Y1622727D02*
G01X3500000Y1654545D01*
G01X3547727Y1572727D02*
G01X3500000Y1595454D01*
G01X3547727Y1572727D02*
G01X3547727Y1604545D01*
G04 Draw part a28*
G04 draw part outline for part a28*
G54D11*
G01X3428003Y1271996D02*
G01X3428003Y728003D01*
G01X3428003Y728003D02*
G01X3571996Y728003D01*
G01X3571996Y728003D02*
G01X3571996Y1271996D01*
G01X3571996Y1271996D02*
G01X3428003Y1271996D01*
G04 draw reference designator for part a28*
G54D10*
G01X3531818Y1072727D02*
G01X3500000Y1072727D01*
G01X3529545Y1077272D02*
G01X3525000Y1072727D01*
G01X3531818Y1081818D02*
G01X3529545Y1077272D01*
G01X3531818Y1088636D02*
G01X3531818Y1081818D01*
G01X3531818Y1088636D02*
G01X3529545Y1093181D01*
G01X3529545Y1093181D02*
G01X3525000Y1097727D01*
G01X3525000Y1097727D02*
G01X3518181Y1100000D01*
G01X3518181Y1100000D02*
G01X3513636Y1100000D01*
G01X3513636Y1100000D02*
G01X3506818Y1097727D01*
G01X3506818Y1097727D02*
G01X3502272Y1093181D01*
G01X3502272Y1093181D02*
G01X3500000Y1088636D01*
G01X3500000Y1081818D02*
G01X3500000Y1088636D01*
G01X3502272Y1077272D02*
G01X3500000Y1081818D01*
G01X3506818Y1072727D02*
G01X3502272Y1077272D01*
G01X3538636Y1052272D02*
G01X3536363Y1052272D01*
G01X3543181Y1050000D02*
G01X3538636Y1052272D01*
G01X3545454Y1047727D02*
G01X3543181Y1050000D01*
G01X3547727Y1043181D02*
G01X3545454Y1047727D01*
G01X3547727Y1034090D02*
G01X3547727Y1043181D01*
G01X3547727Y1034090D02*
G01X3545454Y1029545D01*
G01X3545454Y1029545D02*
G01X3543181Y1027272D01*
G01X3543181Y1027272D02*
G01X3538636Y1025000D01*
G01X3538636Y1025000D02*
G01X3534090Y1025000D01*
G01X3534090Y1025000D02*
G01X3529545Y1027272D01*
G01X3529545Y1027272D02*
G01X3522727Y1031818D01*
G01X3522727Y1031818D02*
G01X3500000Y1054545D01*
G01X3500000Y1022727D02*
G01X3500000Y1054545D01*
G01X3547727Y993181D02*
G01X3545454Y1000000D01*
G01X3545454Y1000000D02*
G01X3540909Y1002272D01*
G01X3540909Y1002272D02*
G01X3536363Y1002272D01*
G01X3536363Y1002272D02*
G01X3531818Y1000000D01*
G01X3531818Y1000000D02*
G01X3529545Y995454D01*
G01X3529545Y995454D02*
G01X3527272Y986363D01*
G01X3527272Y986363D02*
G01X3525000Y979545D01*
G01X3525000Y979545D02*
G01X3520454Y975000D01*
G01X3520454Y975000D02*
G01X3515909Y972727D01*
G01X3515909Y972727D02*
G01X3509090Y972727D01*
G01X3509090Y972727D02*
G01X3504545Y975000D01*
G01X3504545Y975000D02*
G01X3502272Y977272D01*
G01X3502272Y977272D02*
G01X3500000Y984090D01*
G01X3500000Y993181D02*
G01X3500000Y984090D01*
G01X3502272Y1000000D02*
G01X3500000Y993181D01*
G01X3504545Y1002272D02*
G01X3502272Y1000000D01*
G01X3509090Y1004545D02*
G01X3504545Y1002272D01*
G01X3515909Y1004545D02*
G01X3509090Y1004545D01*
G01X3520454Y1002272D02*
G01X3515909Y1004545D01*
G01X3525000Y997727D02*
G01X3520454Y1002272D01*
G01X3527272Y990909D02*
G01X3525000Y997727D01*
G01X3529545Y981818D02*
G01X3527272Y990909D01*
G01X3531818Y977272D02*
G01X3529545Y981818D01*
G01X3536363Y975000D02*
G01X3531818Y977272D01*
G01X3540909Y975000D02*
G01X3536363Y975000D01*
G01X3545454Y977272D02*
G01X3540909Y975000D01*
G01X3547727Y984090D02*
G01X3545454Y977272D01*
G01X3547727Y993181D02*
G01X3547727Y984090D01*
G04 Draw part a29*
G04 draw part outline for part a29*
G54D11*
G01X3428003Y671996D02*
G01X3428003Y128003D01*
G01X3428003Y128003D02*
G01X3571996Y128003D01*
G01X3571996Y128003D02*
G01X3571996Y671996D01*
G01X3571996Y671996D02*
G01X3428003Y671996D01*
G04 draw reference designator for part a29*
G54D10*
G01X3531818Y472727D02*
G01X3500000Y472727D01*
G01X3529545Y477272D02*
G01X3525000Y472727D01*
G01X3531818Y481818D02*
G01X3529545Y477272D01*
G01X3531818Y488636D02*
G01X3531818Y481818D01*
G01X3531818Y488636D02*
G01X3529545Y493181D01*
G01X3529545Y493181D02*
G01X3525000Y497727D01*
G01X3525000Y497727D02*
G01X3518181Y500000D01*
G01X3518181Y500000D02*
G01X3513636Y500000D01*
G01X3513636Y500000D02*
G01X3506818Y497727D01*
G01X3506818Y497727D02*
G01X3502272Y493181D01*
G01X3502272Y493181D02*
G01X3500000Y488636D01*
G01X3500000Y481818D02*
G01X3500000Y488636D01*
G01X3502272Y477272D02*
G01X3500000Y481818D01*
G01X3506818Y472727D02*
G01X3502272Y477272D01*
G01X3538636Y452272D02*
G01X3536363Y452272D01*
G01X3543181Y450000D02*
G01X3538636Y452272D01*
G01X3545454Y447727D02*
G01X3543181Y450000D01*
G01X3547727Y443181D02*
G01X3545454Y447727D01*
G01X3547727Y434090D02*
G01X3547727Y443181D01*
G01X3547727Y434090D02*
G01X3545454Y429545D01*
G01X3545454Y429545D02*
G01X3543181Y427272D01*
G01X3543181Y427272D02*
G01X3538636Y425000D01*
G01X3538636Y425000D02*
G01X3534090Y425000D01*
G01X3534090Y425000D02*
G01X3529545Y427272D01*
G01X3529545Y427272D02*
G01X3522727Y431818D01*
G01X3522727Y431818D02*
G01X3500000Y454545D01*
G01X3500000Y422727D02*
G01X3500000Y454545D01*
G01X3531818Y375000D02*
G01X3525000Y377272D01*
G01X3525000Y377272D02*
G01X3520454Y381818D01*
G01X3520454Y381818D02*
G01X3518181Y388636D01*
G01X3518181Y390909D02*
G01X3518181Y388636D01*
G01X3520454Y397727D02*
G01X3518181Y390909D01*
G01X3525000Y402272D02*
G01X3520454Y397727D01*
G01X3531818Y404545D02*
G01X3525000Y402272D01*
G01X3534090Y404545D02*
G01X3531818Y404545D01*
G01X3540909Y402272D02*
G01X3534090Y404545D01*
G01X3545454Y397727D02*
G01X3540909Y402272D01*
G01X3547727Y390909D02*
G01X3545454Y397727D01*
G01X3547727Y388636D02*
G01X3547727Y390909D01*
G01X3547727Y388636D02*
G01X3545454Y381818D01*
G01X3545454Y381818D02*
G01X3540909Y377272D01*
G01X3540909Y377272D02*
G01X3531818Y375000D01*
G01X3531818Y375000D02*
G01X3520454Y375000D01*
G01X3520454Y375000D02*
G01X3509090Y377272D01*
G01X3509090Y377272D02*
G01X3502272Y381818D01*
G01X3502272Y381818D02*
G01X3500000Y388636D01*
G01X3500000Y393181D02*
G01X3500000Y388636D01*
G01X3502272Y400000D02*
G01X3500000Y393181D01*
G01X3506818Y402272D02*
G01X3502272Y400000D01*
G04 Draw part b11*
G04 draw part outline for part b11*
G54D11*
G01X1772000Y2472000D02*
G01X1428000Y2472000D01*
G01X1428000Y2472000D02*
G01X1428000Y2328000D01*
G01X1428000Y2328000D02*
G01X1772000Y2328000D01*
G01X1772000Y2328000D02*
G01X1772000Y2472000D01*
G04 draw reference designator for part b11*
G54D10*
G01X1650000Y2352272D02*
G01X1650000Y2400000D01*
G01X1645454Y2370454D02*
G01X1650000Y2375000D01*
G01X1640909Y2368181D02*
G01X1645454Y2370454D01*
G01X1634090Y2368181D02*
G01X1640909Y2368181D01*
G01X1634090Y2368181D02*
G01X1629545Y2370454D01*
G01X1629545Y2370454D02*
G01X1625000Y2375000D01*
G01X1625000Y2375000D02*
G01X1622727Y2381818D01*
G01X1622727Y2381818D02*
G01X1622727Y2386363D01*
G01X1622727Y2386363D02*
G01X1625000Y2393181D01*
G01X1625000Y2393181D02*
G01X1629545Y2397727D01*
G01X1629545Y2397727D02*
G01X1634090Y2400000D01*
G01X1640909Y2400000D02*
G01X1634090Y2400000D01*
G01X1645454Y2397727D02*
G01X1640909Y2400000D01*
G01X1650000Y2393181D02*
G01X1645454Y2397727D01*
G01X1600000Y2359090D02*
G01X1604545Y2361363D01*
G01X1593181Y2352272D02*
G01X1600000Y2359090D01*
G01X1593181Y2352272D02*
G01X1593181Y2400000D01*
G01X1570454Y2359090D02*
G01X1575000Y2361363D01*
G01X1563636Y2352272D02*
G01X1570454Y2359090D01*
G01X1563636Y2352272D02*
G01X1563636Y2400000D01*
G04 Draw part b14*
G04 draw part outline for part b14*
G54D11*
G01X2580000Y2380000D02*
G01X2920000Y2380000D01*
G01X2920000Y2380000D02*
G01X2920000Y2540000D01*
G01X2920000Y2540000D02*
G01X2580000Y2540000D01*
G01X2580000Y2540000D02*
G01X2580000Y2380000D01*
G01X2580000Y2520000D02*
G01X2920000Y2520000D01*
G04 draw reference designator for part b14*
G01X2925000Y2497727D02*
G01X2925000Y2450000D01*
G01X2929545Y2479545D02*
G01X2925000Y2475000D01*
G01X2934090Y2481818D02*
G01X2929545Y2479545D01*
G01X2940909Y2481818D02*
G01X2934090Y2481818D01*
G01X2940909Y2481818D02*
G01X2945454Y2479545D01*
G01X2945454Y2479545D02*
G01X2950000Y2475000D01*
G01X2950000Y2475000D02*
G01X2952272Y2468181D01*
G01X2952272Y2468181D02*
G01X2952272Y2463636D01*
G01X2952272Y2463636D02*
G01X2950000Y2456818D01*
G01X2950000Y2456818D02*
G01X2945454Y2452272D01*
G01X2945454Y2452272D02*
G01X2940909Y2450000D01*
G01X2934090Y2450000D02*
G01X2940909Y2450000D01*
G01X2929545Y2452272D02*
G01X2934090Y2450000D01*
G01X2925000Y2456818D02*
G01X2929545Y2452272D01*
G01X2975000Y2490909D02*
G01X2970454Y2488636D01*
G01X2981818Y2497727D02*
G01X2975000Y2490909D01*
G01X2981818Y2497727D02*
G01X2981818Y2450000D01*
G01X3022727Y2497727D02*
G01X3000000Y2465909D01*
G01X3034090Y2465909D02*
G01X3000000Y2465909D01*
G01X3022727Y2497727D02*
G01X3022727Y2450000D01*
G04 Draw part b16*
G04 draw part outline for part b16*
G01X2920000Y2370000D02*
G01X2580000Y2370000D01*
G01X2580000Y2370000D02*
G01X2580000Y2210000D01*
G01X2580000Y2210000D02*
G01X2920000Y2210000D01*
G01X2920000Y2210000D02*
G01X2920000Y2370000D01*
G01X2920000Y2230000D02*
G01X2580000Y2230000D01*
G04 draw reference designator for part b16*
G01X2750000Y2112272D02*
G01X2750000Y2160000D01*
G01X2745454Y2130454D02*
G01X2750000Y2135000D01*
G01X2740909Y2128181D02*
G01X2745454Y2130454D01*
G01X2734090Y2128181D02*
G01X2740909Y2128181D01*
G01X2734090Y2128181D02*
G01X2729545Y2130454D01*
G01X2729545Y2130454D02*
G01X2725000Y2135000D01*
G01X2725000Y2135000D02*
G01X2722727Y2141818D01*
G01X2722727Y2141818D02*
G01X2722727Y2146363D01*
G01X2722727Y2146363D02*
G01X2725000Y2153181D01*
G01X2725000Y2153181D02*
G01X2729545Y2157727D01*
G01X2729545Y2157727D02*
G01X2734090Y2160000D01*
G01X2740909Y2160000D02*
G01X2734090Y2160000D01*
G01X2745454Y2157727D02*
G01X2740909Y2160000D01*
G01X2750000Y2153181D02*
G01X2745454Y2157727D01*
G01X2700000Y2119090D02*
G01X2704545Y2121363D01*
G01X2693181Y2112272D02*
G01X2700000Y2119090D01*
G01X2693181Y2112272D02*
G01X2693181Y2160000D01*
G01X2650000Y2114545D02*
G01X2647727Y2119090D01*
G01X2656818Y2112272D02*
G01X2650000Y2114545D01*
G01X2661363Y2112272D02*
G01X2656818Y2112272D01*
G01X2661363Y2112272D02*
G01X2668181Y2114545D01*
G01X2668181Y2114545D02*
G01X2672727Y2121363D01*
G01X2672727Y2121363D02*
G01X2675000Y2132727D01*
G01X2675000Y2132727D02*
G01X2675000Y2144090D01*
G01X2675000Y2144090D02*
G01X2672727Y2153181D01*
G01X2672727Y2153181D02*
G01X2668181Y2157727D01*
G01X2668181Y2157727D02*
G01X2661363Y2160000D01*
G01X2659090Y2160000D02*
G01X2661363Y2160000D01*
G01X2652272Y2157727D02*
G01X2659090Y2160000D01*
G01X2647727Y2153181D02*
G01X2652272Y2157727D01*
G01X2645454Y2146363D02*
G01X2647727Y2153181D01*
G01X2645454Y2144090D02*
G01X2645454Y2146363D01*
G01X2647727Y2137272D02*
G01X2645454Y2144090D01*
G01X2652272Y2132727D02*
G01X2647727Y2137272D01*
G01X2659090Y2130454D02*
G01X2652272Y2132727D01*
G01X2661363Y2130454D02*
G01X2659090Y2130454D01*
G01X2661363Y2130454D02*
G01X2668181Y2132727D01*
G01X2668181Y2132727D02*
G01X2672727Y2137272D01*
G01X2672727Y2137272D02*
G01X2675000Y2144090D01*
G04 Draw part b17*
G04 draw part outline for part b17*
G01X2133000Y330000D02*
G01X2133000Y170000D01*
G01X2133000Y170000D02*
G01X2067000Y170000D01*
G01X2067000Y170000D02*
G01X2067000Y330000D01*
G01X2067000Y330000D02*
G01X2133000Y330000D01*
G04 draw reference designator for part b17*
G01X2220727Y250000D02*
G01X2173000Y250000D01*
G01X2202545Y245454D02*
G01X2198000Y250000D01*
G01X2204818Y240909D02*
G01X2202545Y245454D01*
G01X2204818Y234090D02*
G01X2204818Y240909D01*
G01X2204818Y234090D02*
G01X2202545Y229545D01*
G01X2202545Y229545D02*
G01X2198000Y225000D01*
G01X2198000Y225000D02*
G01X2191181Y222727D01*
G01X2191181Y222727D02*
G01X2186636Y222727D01*
G01X2186636Y222727D02*
G01X2179818Y225000D01*
G01X2179818Y225000D02*
G01X2175272Y229545D01*
G01X2175272Y229545D02*
G01X2173000Y234090D01*
G01X2173000Y240909D02*
G01X2173000Y234090D01*
G01X2175272Y245454D02*
G01X2173000Y240909D01*
G01X2179818Y250000D02*
G01X2175272Y245454D01*
G01X2213909Y200000D02*
G01X2211636Y204545D01*
G01X2220727Y193181D02*
G01X2213909Y200000D01*
G01X2220727Y193181D02*
G01X2173000Y193181D01*
G01X2220727Y143181D02*
G01X2173000Y165909D01*
G01X2220727Y143181D02*
G01X2220727Y175000D01*
G04 Draw part b44*
G04 draw part outline for part b44*
G01X3077944Y2377944D02*
G01X3222055Y2377944D01*
G01X3222055Y2377944D02*
G01X3222055Y2522055D01*
G01X3222055Y2522055D02*
G01X3077944Y2522055D01*
G01X3077944Y2522055D02*
G01X3077944Y2377944D01*
G04 draw reference designator for part b44*
G54D10*
G01X3150000Y2497727D02*
G01X3150000Y2450000D01*
G01X3154545Y2479545D02*
G01X3150000Y2475000D01*
G01X3159090Y2481818D02*
G01X3154545Y2479545D01*
G01X3165909Y2481818D02*
G01X3159090Y2481818D01*
G01X3165909Y2481818D02*
G01X3170454Y2479545D01*
G01X3170454Y2479545D02*
G01X3175000Y2475000D01*
G01X3175000Y2475000D02*
G01X3177272Y2468181D01*
G01X3177272Y2468181D02*
G01X3177272Y2463636D01*
G01X3177272Y2463636D02*
G01X3175000Y2456818D01*
G01X3175000Y2456818D02*
G01X3170454Y2452272D01*
G01X3170454Y2452272D02*
G01X3165909Y2450000D01*
G01X3159090Y2450000D02*
G01X3165909Y2450000D01*
G01X3154545Y2452272D02*
G01X3159090Y2450000D01*
G01X3150000Y2456818D02*
G01X3154545Y2452272D01*
G01X3218181Y2497727D02*
G01X3195454Y2465909D01*
G01X3229545Y2465909D02*
G01X3195454Y2465909D01*
G01X3218181Y2497727D02*
G01X3218181Y2450000D01*
G01X3270454Y2497727D02*
G01X3247727Y2465909D01*
G01X3281818Y2465909D02*
G01X3247727Y2465909D01*
G01X3270454Y2497727D02*
G01X3270454Y2450000D01*
G04 Draw part d3*
G04 draw part outline for part d3*
G54D11*
G01X977944Y77944D02*
G01X1122055Y77944D01*
G01X1122055Y77944D02*
G01X1122055Y222055D01*
G01X1122055Y222055D02*
G01X977944Y222055D01*
G01X977944Y222055D02*
G01X977944Y77944D01*
G04 draw reference designator for part d3*
G54D10*
G01X1077272Y197727D02*
G01X1077272Y150000D01*
G01X1072727Y179545D02*
G01X1077272Y175000D01*
G01X1068181Y181818D02*
G01X1072727Y179545D01*
G01X1061363Y181818D02*
G01X1068181Y181818D01*
G01X1061363Y181818D02*
G01X1056818Y179545D01*
G01X1056818Y179545D02*
G01X1052272Y175000D01*
G01X1052272Y175000D02*
G01X1050000Y168181D01*
G01X1050000Y168181D02*
G01X1050000Y163636D01*
G01X1050000Y163636D02*
G01X1052272Y156818D01*
G01X1052272Y156818D02*
G01X1056818Y152272D01*
G01X1056818Y152272D02*
G01X1061363Y150000D01*
G01X1068181Y150000D02*
G01X1061363Y150000D01*
G01X1072727Y152272D02*
G01X1068181Y150000D01*
G01X1077272Y156818D02*
G01X1072727Y152272D01*
G01X1125000Y197727D02*
G01X1100000Y197727D01*
G01X1125000Y197727D02*
G01X1111363Y179545D01*
G01X1118181Y179545D02*
G01X1111363Y179545D01*
G01X1118181Y179545D02*
G01X1122727Y177272D01*
G01X1122727Y177272D02*
G01X1125000Y175000D01*
G01X1125000Y175000D02*
G01X1127272Y168181D01*
G01X1127272Y168181D02*
G01X1127272Y163636D01*
G01X1127272Y163636D02*
G01X1125000Y156818D01*
G01X1125000Y156818D02*
G01X1120454Y152272D01*
G01X1120454Y152272D02*
G01X1113636Y150000D01*
G01X1106818Y150000D02*
G01X1113636Y150000D01*
G01X1100000Y152272D02*
G01X1106818Y150000D01*
G01X1097727Y154545D02*
G01X1100000Y152272D01*
G01X1095454Y159090D02*
G01X1097727Y154545D01*
G04 Draw part e1*
G04 draw part outline for part e1*
G54D11*
G01X750000Y1450000D02*
G01X750000Y2350000D01*
G01X750000Y2350000D02*
G01X550000Y2350000D01*
G01X550000Y2350000D02*
G01X550000Y1450000D01*
G01X550000Y1450000D02*
G01X750000Y1450000D01*
G01X700000Y1450000D02*
G01X700000Y1500000D01*
G01X700000Y1500000D02*
G01X600000Y1500000D01*
G01X600000Y1500000D02*
G01X600000Y1450000D01*
G01X600000Y1450000D02*
G01X700000Y1450000D01*
G04 draw reference designator for part e1*
G01X622727Y1381818D02*
G01X650000Y1381818D01*
G01X622727Y1377272D02*
G01X622727Y1381818D01*
G01X625000Y1372727D02*
G01X622727Y1377272D01*
G01X627272Y1370454D02*
G01X625000Y1372727D01*
G01X631818Y1368181D02*
G01X627272Y1370454D01*
G01X638636Y1368181D02*
G01X631818Y1368181D01*
G01X638636Y1368181D02*
G01X643181Y1370454D01*
G01X643181Y1370454D02*
G01X647727Y1375000D01*
G01X647727Y1375000D02*
G01X650000Y1381818D01*
G01X650000Y1381818D02*
G01X650000Y1386363D01*
G01X650000Y1386363D02*
G01X647727Y1393181D01*
G01X647727Y1393181D02*
G01X643181Y1397727D01*
G01X643181Y1397727D02*
G01X638636Y1400000D01*
G01X631818Y1400000D02*
G01X638636Y1400000D01*
G01X627272Y1397727D02*
G01X631818Y1400000D01*
G01X622727Y1393181D02*
G01X627272Y1397727D01*
G01X600000Y1359090D02*
G01X604545Y1361363D01*
G01X593181Y1352272D02*
G01X600000Y1359090D01*
G01X593181Y1352272D02*
G01X593181Y1400000D01*
G04 Draw part e2*
G04 draw part outline for part e2*
G01X750000Y250000D02*
G01X750000Y1150000D01*
G01X750000Y1150000D02*
G01X550000Y1150000D01*
G01X550000Y1150000D02*
G01X550000Y250000D01*
G01X550000Y250000D02*
G01X750000Y250000D01*
G01X700000Y250000D02*
G01X700000Y300000D01*
G01X700000Y300000D02*
G01X600000Y300000D01*
G01X600000Y300000D02*
G01X600000Y250000D01*
G01X600000Y250000D02*
G01X700000Y250000D01*
G04 draw reference designator for part e2*
G01X622727Y181818D02*
G01X650000Y181818D01*
G01X622727Y177272D02*
G01X622727Y181818D01*
G01X625000Y172727D02*
G01X622727Y177272D01*
G01X627272Y170454D02*
G01X625000Y172727D01*
G01X631818Y168181D02*
G01X627272Y170454D01*
G01X638636Y168181D02*
G01X631818Y168181D01*
G01X638636Y168181D02*
G01X643181Y170454D01*
G01X643181Y170454D02*
G01X647727Y175000D01*
G01X647727Y175000D02*
G01X650000Y181818D01*
G01X650000Y181818D02*
G01X650000Y186363D01*
G01X650000Y186363D02*
G01X647727Y193181D01*
G01X647727Y193181D02*
G01X643181Y197727D01*
G01X643181Y197727D02*
G01X638636Y200000D01*
G01X631818Y200000D02*
G01X638636Y200000D01*
G01X627272Y197727D02*
G01X631818Y200000D01*
G01X622727Y193181D02*
G01X627272Y197727D01*
G01X602272Y161363D02*
G01X602272Y163636D01*
G01X600000Y156818D02*
G01X602272Y161363D01*
G01X597727Y154545D02*
G01X600000Y156818D01*
G01X593181Y152272D02*
G01X597727Y154545D01*
G01X584090Y152272D02*
G01X593181Y152272D01*
G01X584090Y152272D02*
G01X579545Y154545D01*
G01X579545Y154545D02*
G01X577272Y156818D01*
G01X577272Y156818D02*
G01X575000Y161363D01*
G01X575000Y161363D02*
G01X575000Y165909D01*
G01X575000Y165909D02*
G01X577272Y170454D01*
G01X577272Y170454D02*
G01X581818Y177272D01*
G01X581818Y177272D02*
G01X604545Y200000D01*
G01X572727Y200000D02*
G01X604545Y200000D01*
G04 Draw part c1*
G04 draw part outline for part c1*
G01X128003Y2471996D02*
G01X128003Y1928003D01*
G01X128003Y1928003D02*
G01X271996Y1928003D01*
G01X271996Y1928003D02*
G01X271996Y2471996D01*
G01X271996Y2471996D02*
G01X128003Y2471996D01*
G04 draw reference designator for part c1*
G54D10*
G01X229545Y2277272D02*
G01X225000Y2272727D01*
G01X231818Y2281818D02*
G01X229545Y2277272D01*
G01X231818Y2288636D02*
G01X231818Y2281818D01*
G01X231818Y2288636D02*
G01X229545Y2293181D01*
G01X229545Y2293181D02*
G01X225000Y2297727D01*
G01X225000Y2297727D02*
G01X218181Y2300000D01*
G01X218181Y2300000D02*
G01X213636Y2300000D01*
G01X213636Y2300000D02*
G01X206818Y2297727D01*
G01X206818Y2297727D02*
G01X202272Y2293181D01*
G01X202272Y2293181D02*
G01X200000Y2288636D01*
G01X200000Y2281818D02*
G01X200000Y2288636D01*
G01X202272Y2277272D02*
G01X200000Y2281818D01*
G01X206818Y2272727D02*
G01X202272Y2277272D01*
G01X240909Y2250000D02*
G01X238636Y2254545D01*
G01X247727Y2243181D02*
G01X240909Y2250000D01*
G01X247727Y2243181D02*
G01X200000Y2243181D01*
G04 Draw part c2*
G04 draw part outline for part c2*
G54D11*
G01X128003Y1871996D02*
G01X128003Y1328003D01*
G01X128003Y1328003D02*
G01X271996Y1328003D01*
G01X271996Y1328003D02*
G01X271996Y1871996D01*
G01X271996Y1871996D02*
G01X128003Y1871996D01*
G04 draw reference designator for part c2*
G54D10*
G01X229545Y1677272D02*
G01X225000Y1672727D01*
G01X231818Y1681818D02*
G01X229545Y1677272D01*
G01X231818Y1688636D02*
G01X231818Y1681818D01*
G01X231818Y1688636D02*
G01X229545Y1693181D01*
G01X229545Y1693181D02*
G01X225000Y1697727D01*
G01X225000Y1697727D02*
G01X218181Y1700000D01*
G01X218181Y1700000D02*
G01X213636Y1700000D01*
G01X213636Y1700000D02*
G01X206818Y1697727D01*
G01X206818Y1697727D02*
G01X202272Y1693181D01*
G01X202272Y1693181D02*
G01X200000Y1688636D01*
G01X200000Y1681818D02*
G01X200000Y1688636D01*
G01X202272Y1677272D02*
G01X200000Y1681818D01*
G01X206818Y1672727D02*
G01X202272Y1677272D01*
G01X238636Y1652272D02*
G01X236363Y1652272D01*
G01X243181Y1650000D02*
G01X238636Y1652272D01*
G01X245454Y1647727D02*
G01X243181Y1650000D01*
G01X247727Y1643181D02*
G01X245454Y1647727D01*
G01X247727Y1634090D02*
G01X247727Y1643181D01*
G01X247727Y1634090D02*
G01X245454Y1629545D01*
G01X245454Y1629545D02*
G01X243181Y1627272D01*
G01X243181Y1627272D02*
G01X238636Y1625000D01*
G01X238636Y1625000D02*
G01X234090Y1625000D01*
G01X234090Y1625000D02*
G01X229545Y1627272D01*
G01X229545Y1627272D02*
G01X222727Y1631818D01*
G01X222727Y1631818D02*
G01X200000Y1654545D01*
G01X200000Y1622727D02*
G01X200000Y1654545D01*
G04 Draw part c3*
G04 draw part outline for part c3*
G54D11*
G01X128003Y1271996D02*
G01X128003Y728003D01*
G01X128003Y728003D02*
G01X271996Y728003D01*
G01X271996Y728003D02*
G01X271996Y1271996D01*
G01X271996Y1271996D02*
G01X128003Y1271996D01*
G04 draw reference designator for part c3*
G54D10*
G01X229545Y1077272D02*
G01X225000Y1072727D01*
G01X231818Y1081818D02*
G01X229545Y1077272D01*
G01X231818Y1088636D02*
G01X231818Y1081818D01*
G01X231818Y1088636D02*
G01X229545Y1093181D01*
G01X229545Y1093181D02*
G01X225000Y1097727D01*
G01X225000Y1097727D02*
G01X218181Y1100000D01*
G01X218181Y1100000D02*
G01X213636Y1100000D01*
G01X213636Y1100000D02*
G01X206818Y1097727D01*
G01X206818Y1097727D02*
G01X202272Y1093181D01*
G01X202272Y1093181D02*
G01X200000Y1088636D01*
G01X200000Y1081818D02*
G01X200000Y1088636D01*
G01X202272Y1077272D02*
G01X200000Y1081818D01*
G01X206818Y1072727D02*
G01X202272Y1077272D01*
G01X247727Y1025000D02*
G01X247727Y1050000D01*
G01X247727Y1025000D02*
G01X229545Y1038636D01*
G01X229545Y1031818D02*
G01X229545Y1038636D01*
G01X229545Y1031818D02*
G01X227272Y1027272D01*
G01X227272Y1027272D02*
G01X225000Y1025000D01*
G01X225000Y1025000D02*
G01X218181Y1022727D01*
G01X218181Y1022727D02*
G01X213636Y1022727D01*
G01X213636Y1022727D02*
G01X206818Y1025000D01*
G01X206818Y1025000D02*
G01X202272Y1029545D01*
G01X202272Y1029545D02*
G01X200000Y1036363D01*
G01X200000Y1043181D02*
G01X200000Y1036363D01*
G01X202272Y1050000D02*
G01X200000Y1043181D01*
G01X204545Y1052272D02*
G01X202272Y1050000D01*
G01X209090Y1054545D02*
G01X204545Y1052272D01*
G04 Draw part c4*
G04 draw part outline for part c4*
G54D11*
G01X128003Y671996D02*
G01X128003Y128003D01*
G01X128003Y128003D02*
G01X271996Y128003D01*
G01X271996Y128003D02*
G01X271996Y671996D01*
G01X271996Y671996D02*
G01X128003Y671996D01*
G04 draw reference designator for part c4*
G54D10*
G01X229545Y477272D02*
G01X225000Y472727D01*
G01X231818Y481818D02*
G01X229545Y477272D01*
G01X231818Y488636D02*
G01X231818Y481818D01*
G01X231818Y488636D02*
G01X229545Y493181D01*
G01X229545Y493181D02*
G01X225000Y497727D01*
G01X225000Y497727D02*
G01X218181Y500000D01*
G01X218181Y500000D02*
G01X213636Y500000D01*
G01X213636Y500000D02*
G01X206818Y497727D01*
G01X206818Y497727D02*
G01X202272Y493181D01*
G01X202272Y493181D02*
G01X200000Y488636D01*
G01X200000Y481818D02*
G01X200000Y488636D01*
G01X202272Y477272D02*
G01X200000Y481818D01*
G01X206818Y472727D02*
G01X202272Y477272D01*
G01X247727Y431818D02*
G01X215909Y454545D01*
G01X215909Y420454D02*
G01X215909Y454545D01*
G01X247727Y431818D02*
G01X200000Y431818D01*
G04 Draw part c5*
G04 draw part outline for part c5*
G54D11*
G01X1551566Y1651566D02*
G01X1948433Y1651566D01*
G01X1948433Y1651566D02*
G01X1948433Y1748433D01*
G01X1948433Y1748433D02*
G01X1551566Y1748433D01*
G01X1551566Y1748433D02*
G01X1551566Y1651566D01*
G04 draw reference designator for part c5*
G54D10*
G01X1697727Y1729545D02*
G01X1702272Y1725000D01*
G01X1693181Y1731818D02*
G01X1697727Y1729545D01*
G01X1686363Y1731818D02*
G01X1693181Y1731818D01*
G01X1686363Y1731818D02*
G01X1681818Y1729545D01*
G01X1681818Y1729545D02*
G01X1677272Y1725000D01*
G01X1677272Y1725000D02*
G01X1675000Y1718181D01*
G01X1675000Y1718181D02*
G01X1675000Y1713636D01*
G01X1675000Y1713636D02*
G01X1677272Y1706818D01*
G01X1677272Y1706818D02*
G01X1681818Y1702272D01*
G01X1681818Y1702272D02*
G01X1686363Y1700000D01*
G01X1693181Y1700000D02*
G01X1686363Y1700000D01*
G01X1697727Y1702272D02*
G01X1693181Y1700000D01*
G01X1702272Y1706818D02*
G01X1697727Y1702272D01*
G01X1725000Y1747727D02*
G01X1747727Y1747727D01*
G01X1725000Y1747727D02*
G01X1722727Y1727272D01*
G01X1725000Y1729545D02*
G01X1722727Y1727272D01*
G01X1731818Y1731818D02*
G01X1725000Y1729545D01*
G01X1738636Y1731818D02*
G01X1731818Y1731818D01*
G01X1738636Y1731818D02*
G01X1745454Y1729545D01*
G01X1745454Y1729545D02*
G01X1750000Y1725000D01*
G01X1750000Y1725000D02*
G01X1752272Y1718181D01*
G01X1752272Y1718181D02*
G01X1752272Y1713636D01*
G01X1752272Y1713636D02*
G01X1750000Y1706818D01*
G01X1750000Y1706818D02*
G01X1745454Y1702272D01*
G01X1745454Y1702272D02*
G01X1738636Y1700000D01*
G01X1731818Y1700000D02*
G01X1738636Y1700000D01*
G01X1725000Y1702272D02*
G01X1731818Y1700000D01*
G01X1722727Y1704545D02*
G01X1725000Y1702272D01*
G01X1720454Y1709090D02*
G01X1722727Y1704545D01*
G04 Draw part c9*
G04 draw part outline for part c9*
G54D11*
G01X2551566Y251566D02*
G01X2948433Y251566D01*
G01X2948433Y251566D02*
G01X2948433Y348433D01*
G01X2948433Y348433D02*
G01X2551566Y348433D01*
G01X2551566Y348433D02*
G01X2551566Y251566D01*
G04 draw reference designator for part c9*
G54D10*
G01X2697727Y329545D02*
G01X2702272Y325000D01*
G01X2693181Y331818D02*
G01X2697727Y329545D01*
G01X2686363Y331818D02*
G01X2693181Y331818D01*
G01X2686363Y331818D02*
G01X2681818Y329545D01*
G01X2681818Y329545D02*
G01X2677272Y325000D01*
G01X2677272Y325000D02*
G01X2675000Y318181D01*
G01X2675000Y318181D02*
G01X2675000Y313636D01*
G01X2675000Y313636D02*
G01X2677272Y306818D01*
G01X2677272Y306818D02*
G01X2681818Y302272D01*
G01X2681818Y302272D02*
G01X2686363Y300000D01*
G01X2693181Y300000D02*
G01X2686363Y300000D01*
G01X2697727Y302272D02*
G01X2693181Y300000D01*
G01X2702272Y306818D02*
G01X2697727Y302272D01*
G01X2750000Y331818D02*
G01X2747727Y325000D01*
G01X2747727Y325000D02*
G01X2743181Y320454D01*
G01X2743181Y320454D02*
G01X2736363Y318181D01*
G01X2734090Y318181D02*
G01X2736363Y318181D01*
G01X2727272Y320454D02*
G01X2734090Y318181D01*
G01X2722727Y325000D02*
G01X2727272Y320454D01*
G01X2720454Y331818D02*
G01X2722727Y325000D01*
G01X2720454Y334090D02*
G01X2720454Y331818D01*
G01X2722727Y340909D02*
G01X2720454Y334090D01*
G01X2727272Y345454D02*
G01X2722727Y340909D01*
G01X2734090Y347727D02*
G01X2727272Y345454D01*
G01X2736363Y347727D02*
G01X2734090Y347727D01*
G01X2736363Y347727D02*
G01X2743181Y345454D01*
G01X2743181Y345454D02*
G01X2747727Y340909D01*
G01X2747727Y340909D02*
G01X2750000Y331818D01*
G01X2750000Y331818D02*
G01X2750000Y320454D01*
G01X2750000Y320454D02*
G01X2747727Y309090D01*
G01X2747727Y309090D02*
G01X2743181Y302272D01*
G01X2743181Y302272D02*
G01X2736363Y300000D01*
G01X2731818Y300000D02*
G01X2736363Y300000D01*
G01X2725000Y302272D02*
G01X2731818Y300000D01*
G01X2722727Y306818D02*
G01X2725000Y302272D01*
G04 Draw part c10*
G04 draw part outline for part c10*
G54D11*
G01X2551566Y151566D02*
G01X2948433Y151566D01*
G01X2948433Y151566D02*
G01X2948433Y248433D01*
G01X2948433Y248433D02*
G01X2551566Y248433D01*
G01X2551566Y248433D02*
G01X2551566Y151566D01*
G04 draw reference designator for part c10*
G54D10*
G01X2697727Y229545D02*
G01X2702272Y225000D01*
G01X2693181Y231818D02*
G01X2697727Y229545D01*
G01X2686363Y231818D02*
G01X2693181Y231818D01*
G01X2686363Y231818D02*
G01X2681818Y229545D01*
G01X2681818Y229545D02*
G01X2677272Y225000D01*
G01X2677272Y225000D02*
G01X2675000Y218181D01*
G01X2675000Y218181D02*
G01X2675000Y213636D01*
G01X2675000Y213636D02*
G01X2677272Y206818D01*
G01X2677272Y206818D02*
G01X2681818Y202272D01*
G01X2681818Y202272D02*
G01X2686363Y200000D01*
G01X2693181Y200000D02*
G01X2686363Y200000D01*
G01X2697727Y202272D02*
G01X2693181Y200000D01*
G01X2702272Y206818D02*
G01X2697727Y202272D01*
G01X2725000Y240909D02*
G01X2720454Y238636D01*
G01X2731818Y247727D02*
G01X2725000Y240909D01*
G01X2731818Y247727D02*
G01X2731818Y200000D01*
G01X2763636Y247727D02*
G01X2756818Y245454D01*
G01X2756818Y245454D02*
G01X2752272Y238636D01*
G01X2752272Y238636D02*
G01X2750000Y227272D01*
G01X2750000Y227272D02*
G01X2750000Y220454D01*
G01X2750000Y220454D02*
G01X2752272Y209090D01*
G01X2752272Y209090D02*
G01X2756818Y202272D01*
G01X2756818Y202272D02*
G01X2763636Y200000D01*
G01X2768181Y200000D02*
G01X2763636Y200000D01*
G01X2775000Y202272D02*
G01X2768181Y200000D01*
G01X2779545Y209090D02*
G01X2775000Y202272D01*
G01X2781818Y220454D02*
G01X2779545Y209090D01*
G01X2781818Y227272D02*
G01X2781818Y220454D01*
G01X2779545Y238636D02*
G01X2781818Y227272D01*
G01X2775000Y245454D02*
G01X2779545Y238636D01*
G01X2768181Y247727D02*
G01X2775000Y245454D01*
G01X2763636Y247727D02*
G01X2768181Y247727D01*
G04 Draw part c11*
G04 draw part outline for part c11*
G54D11*
G01X2150000Y2315000D02*
G01X2150000Y2285000D01*
G01X2165000Y2300000D02*
G01X2135000Y2300000D01*
G01X2200000Y1837000D02*
G01X2203926Y1837024D01*
G01X2207853Y1837097D01*
G01X2211778Y1837220D01*
G01X2215701Y1837391D01*
G01X2219622Y1837611D01*
G01X2223539Y1837880D01*
G01X2227454Y1838198D01*
G01X2231363Y1838565D01*
G01X2235268Y1838980D01*
G01X2239168Y1839444D01*
G01X2243061Y1839957D01*
G01X2246948Y1840518D01*
G01X2250827Y1841127D01*
G01X2254699Y1841785D01*
G01X2258562Y1842491D01*
G01X2262416Y1843245D01*
G01X2266260Y1844047D01*
G01X2270094Y1844897D01*
G01X2273917Y1845795D01*
G01X2277728Y1846740D01*
G01X2281527Y1847733D01*
G01X2285314Y1848773D01*
G01X2289088Y1849860D01*
G01X2292847Y1850994D01*
G01X2296593Y1852175D01*
G01X2300323Y1853402D01*
G01X2304037Y1854676D01*
G01X2307736Y1855996D01*
G01X2311418Y1857362D01*
G01X2315082Y1858774D01*
G01X2318728Y1860232D01*
G01X2322356Y1861734D01*
G01X2325965Y1863282D01*
G01X2329555Y1864875D01*
G01X2333124Y1866513D01*
G01X2336673Y1868194D01*
G01X2340200Y1869920D01*
G01X2343706Y1871690D01*
G01X2347189Y1873503D01*
G01X2350650Y1875360D01*
G01X2354086Y1877259D01*
G01X2357500Y1879201D01*
G01X2360888Y1881186D01*
G01X2364252Y1883213D01*
G01X2367590Y1885281D01*
G01X2370902Y1887391D01*
G01X2374187Y1889542D01*
G01X2377445Y1891734D01*
G01X2380676Y1893967D01*
G01X2383879Y1896239D01*
G01X2387053Y1898551D01*
G01X2390198Y1900903D01*
G01X2393313Y1903293D01*
G01X2396399Y1905723D01*
G01X2399454Y1908190D01*
G01X2402478Y1910695D01*
G01X2405470Y1913238D01*
G01X2408431Y1915818D01*
G01X2411359Y1918435D01*
G01X2414254Y1921088D01*
G01X2417116Y1923777D01*
G01X2419944Y1926501D01*
G01X2422738Y1929261D01*
G01X2425498Y1932055D01*
G01X2428222Y1934883D01*
G01X2430911Y1937745D01*
G01X2433564Y1940640D01*
G01X2436181Y1943568D01*
G01X2438761Y1946529D01*
G01X2441303Y1949521D01*
G01X2443809Y1952545D01*
G01X2446276Y1955600D01*
G01X2448706Y1958686D01*
G01X2451096Y1961801D01*
G01X2453448Y1964946D01*
G01X2455760Y1968120D01*
G01X2458032Y1971323D01*
G01X2460265Y1974554D01*
G01X2462457Y1977812D01*
G01X2464608Y1981097D01*
G01X2466718Y1984409D01*
G01X2468786Y1987747D01*
G01X2470813Y1991111D01*
G01X2472797Y1994500D01*
G01X2474740Y1997912D01*
G01X2476639Y2001349D01*
G01X2478496Y2004810D01*
G01X2480309Y2008293D01*
G01X2482079Y2011799D01*
G01X2483805Y2015326D01*
G01X2485486Y2018875D01*
G01X2487124Y2022444D01*
G01X2488717Y2026033D01*
G01X2490265Y2029643D01*
G01X2491767Y2033271D01*
G01X2493225Y2036917D01*
G01X2494637Y2040581D01*
G01X2496003Y2044263D01*
G01X2497323Y2047962D01*
G01X2498597Y2051676D01*
G01X2499824Y2055406D01*
G01X2501005Y2059152D01*
G01X2502139Y2062911D01*
G01X2503226Y2066685D01*
G01X2504266Y2070471D01*
G01X2505259Y2074271D01*
G01X2506204Y2078082D01*
G01X2507102Y2081905D01*
G01X2507952Y2085739D01*
G01X2508754Y2089583D01*
G01X2509508Y2093437D01*
G01X2510214Y2097300D01*
G01X2510872Y2101172D01*
G01X2511481Y2105051D01*
G01X2512042Y2108938D01*
G01X2512555Y2112831D01*
G01X2513019Y2116731D01*
G01X2513434Y2120636D01*
G01X2513801Y2124545D01*
G01X2514119Y2128460D01*
G01X2514388Y2132377D01*
G01X2514608Y2136298D01*
G01X2514779Y2140221D01*
G01X2514902Y2144146D01*
G01X2514975Y2148073D01*
G01X2515000Y2152000D01*
G01X2515000Y2152000D02*
G01X2514975Y2155926D01*
G01X2514902Y2159853D01*
G01X2514779Y2163778D01*
G01X2514608Y2167701D01*
G01X2514388Y2171622D01*
G01X2514119Y2175539D01*
G01X2513801Y2179454D01*
G01X2513434Y2183363D01*
G01X2513019Y2187268D01*
G01X2512555Y2191168D01*
G01X2512042Y2195061D01*
G01X2511481Y2198948D01*
G01X2510872Y2202827D01*
G01X2510214Y2206699D01*
G01X2509508Y2210562D01*
G01X2508754Y2214416D01*
G01X2507952Y2218260D01*
G01X2507102Y2222094D01*
G01X2506204Y2225917D01*
G01X2505259Y2229728D01*
G01X2504266Y2233527D01*
G01X2503226Y2237314D01*
G01X2502139Y2241088D01*
G01X2501005Y2244847D01*
G01X2499824Y2248593D01*
G01X2498597Y2252323D01*
G01X2497323Y2256037D01*
G01X2496003Y2259736D01*
G01X2494637Y2263418D01*
G01X2493225Y2267082D01*
G01X2491767Y2270728D01*
G01X2490265Y2274356D01*
G01X2488717Y2277965D01*
G01X2487124Y2281555D01*
G01X2485486Y2285124D01*
G01X2483805Y2288673D01*
G01X2482079Y2292200D01*
G01X2480309Y2295706D01*
G01X2478496Y2299189D01*
G01X2476639Y2302650D01*
G01X2474740Y2306086D01*
G01X2472797Y2309500D01*
G01X2470813Y2312888D01*
G01X2468786Y2316252D01*
G01X2466718Y2319590D01*
G01X2464608Y2322902D01*
G01X2462457Y2326187D01*
G01X2460265Y2329445D01*
G01X2458032Y2332676D01*
G01X2455760Y2335879D01*
G01X2453448Y2339053D01*
G01X2451096Y2342198D01*
G01X2448706Y2345313D01*
G01X2446276Y2348399D01*
G01X2443809Y2351454D01*
G01X2441303Y2354478D01*
G01X2438761Y2357470D01*
G01X2436181Y2360431D01*
G01X2433564Y2363359D01*
G01X2430911Y2366254D01*
G01X2428222Y2369116D01*
G01X2425498Y2371944D01*
G01X2422738Y2374738D01*
G01X2419944Y2377498D01*
G01X2417116Y2380222D01*
G01X2414254Y2382911D01*
G01X2411359Y2385564D01*
G01X2408431Y2388181D01*
G01X2405470Y2390761D01*
G01X2402478Y2393303D01*
G01X2399454Y2395809D01*
G01X2396399Y2398276D01*
G01X2393313Y2400706D01*
G01X2390198Y2403096D01*
G01X2387053Y2405448D01*
G01X2383879Y2407760D01*
G01X2380676Y2410032D01*
G01X2377445Y2412265D01*
G01X2374187Y2414457D01*
G01X2370902Y2416608D01*
G01X2367590Y2418718D01*
G01X2364252Y2420786D01*
G01X2360888Y2422813D01*
G01X2357499Y2424797D01*
G01X2354086Y2426740D01*
G01X2350650Y2428639D01*
G01X2347189Y2430496D01*
G01X2343706Y2432309D01*
G01X2340200Y2434079D01*
G01X2336673Y2435805D01*
G01X2333124Y2437486D01*
G01X2329555Y2439124D01*
G01X2325965Y2440717D01*
G01X2322356Y2442265D01*
G01X2318728Y2443767D01*
G01X2315082Y2445225D01*
G01X2311418Y2446637D01*
G01X2307736Y2448003D01*
G01X2304037Y2449323D01*
G01X2300323Y2450597D01*
G01X2296593Y2451824D01*
G01X2292847Y2453005D01*
G01X2289088Y2454139D01*
G01X2285314Y2455226D01*
G01X2281527Y2456266D01*
G01X2277728Y2457259D01*
G01X2273917Y2458204D01*
G01X2270094Y2459102D01*
G01X2266260Y2459952D01*
G01X2262416Y2460754D01*
G01X2258562Y2461508D01*
G01X2254699Y2462214D01*
G01X2250827Y2462872D01*
G01X2246948Y2463481D01*
G01X2243061Y2464042D01*
G01X2239168Y2464555D01*
G01X2235268Y2465019D01*
G01X2231363Y2465434D01*
G01X2227454Y2465801D01*
G01X2223539Y2466119D01*
G01X2219622Y2466388D01*
G01X2215701Y2466608D01*
G01X2211778Y2466779D01*
G01X2207853Y2466902D01*
G01X2203926Y2466975D01*
G01X2200000Y2467000D01*
G01X2200000Y2467000D02*
G01X2196073Y2466975D01*
G01X2192146Y2466902D01*
G01X2188221Y2466779D01*
G01X2184298Y2466608D01*
G01X2180377Y2466388D01*
G01X2176460Y2466119D01*
G01X2172545Y2465801D01*
G01X2168636Y2465434D01*
G01X2164731Y2465019D01*
G01X2160831Y2464555D01*
G01X2156938Y2464042D01*
G01X2153051Y2463481D01*
G01X2149172Y2462872D01*
G01X2145300Y2462214D01*
G01X2141437Y2461508D01*
G01X2137583Y2460754D01*
G01X2133739Y2459952D01*
G01X2129905Y2459102D01*
G01X2126082Y2458204D01*
G01X2122271Y2457259D01*
G01X2118471Y2456266D01*
G01X2114685Y2455226D01*
G01X2110911Y2454139D01*
G01X2107152Y2453005D01*
G01X2103406Y2451824D01*
G01X2099676Y2450597D01*
G01X2095962Y2449323D01*
G01X2092263Y2448003D01*
G01X2088581Y2446637D01*
G01X2084917Y2445225D01*
G01X2081271Y2443767D01*
G01X2077643Y2442265D01*
G01X2074033Y2440717D01*
G01X2070444Y2439124D01*
G01X2066875Y2437486D01*
G01X2063326Y2435805D01*
G01X2059799Y2434079D01*
G01X2056293Y2432309D01*
G01X2052810Y2430496D01*
G01X2049349Y2428639D01*
G01X2045912Y2426740D01*
G01X2042499Y2424797D01*
G01X2039111Y2422813D01*
G01X2035747Y2420786D01*
G01X2032409Y2418718D01*
G01X2029097Y2416608D01*
G01X2025812Y2414457D01*
G01X2022554Y2412265D01*
G01X2019323Y2410032D01*
G01X2016120Y2407760D01*
G01X2012946Y2405448D01*
G01X2009801Y2403096D01*
G01X2006686Y2400706D01*
G01X2003600Y2398276D01*
G01X2000545Y2395809D01*
G01X1997521Y2393303D01*
G01X1994529Y2390761D01*
G01X1991568Y2388181D01*
G01X1988640Y2385564D01*
G01X1985745Y2382911D01*
G01X1982883Y2380222D01*
G01X1980055Y2377498D01*
G01X1977261Y2374738D01*
G01X1974501Y2371944D01*
G01X1971777Y2369116D01*
G01X1969088Y2366254D01*
G01X1966435Y2363359D01*
G01X1963818Y2360431D01*
G01X1961238Y2357470D01*
G01X1958695Y2354478D01*
G01X1956190Y2351454D01*
G01X1953723Y2348399D01*
G01X1951293Y2345313D01*
G01X1948903Y2342198D01*
G01X1946551Y2339053D01*
G01X1944239Y2335879D01*
G01X1941967Y2332676D01*
G01X1939734Y2329445D01*
G01X1937542Y2326187D01*
G01X1935391Y2322902D01*
G01X1933281Y2319590D01*
G01X1931213Y2316252D01*
G01X1929186Y2312888D01*
G01X1927201Y2309499D01*
G01X1925259Y2306086D01*
G01X1923360Y2302650D01*
G01X1921503Y2299189D01*
G01X1919690Y2295706D01*
G01X1917920Y2292200D01*
G01X1916194Y2288673D01*
G01X1914513Y2285124D01*
G01X1912875Y2281555D01*
G01X1911282Y2277965D01*
G01X1909734Y2274356D01*
G01X1908232Y2270728D01*
G01X1906774Y2267082D01*
G01X1905362Y2263418D01*
G01X1903996Y2259736D01*
G01X1902676Y2256037D01*
G01X1901402Y2252323D01*
G01X1900175Y2248593D01*
G01X1898994Y2244847D01*
G01X1897860Y2241088D01*
G01X1896773Y2237314D01*
G01X1895733Y2233527D01*
G01X1894740Y2229728D01*
G01X1893795Y2225917D01*
G01X1892897Y2222094D01*
G01X1892047Y2218260D01*
G01X1891245Y2214416D01*
G01X1890491Y2210562D01*
G01X1889785Y2206699D01*
G01X1889127Y2202827D01*
G01X1888518Y2198948D01*
G01X1887957Y2195061D01*
G01X1887444Y2191168D01*
G01X1886980Y2187268D01*
G01X1886565Y2183363D01*
G01X1886198Y2179454D01*
G01X1885880Y2175539D01*
G01X1885611Y2171622D01*
G01X1885391Y2167701D01*
G01X1885220Y2163778D01*
G01X1885097Y2159853D01*
G01X1885024Y2155926D01*
G01X1885000Y2152000D01*
G01X1885000Y2152000D02*
G01X1885024Y2148073D01*
G01X1885097Y2144146D01*
G01X1885220Y2140221D01*
G01X1885391Y2136298D01*
G01X1885611Y2132377D01*
G01X1885880Y2128460D01*
G01X1886198Y2124545D01*
G01X1886565Y2120636D01*
G01X1886980Y2116731D01*
G01X1887444Y2112831D01*
G01X1887957Y2108938D01*
G01X1888518Y2105051D01*
G01X1889127Y2101172D01*
G01X1889785Y2097300D01*
G01X1890491Y2093437D01*
G01X1891245Y2089583D01*
G01X1892047Y2085739D01*
G01X1892897Y2081905D01*
G01X1893795Y2078082D01*
G01X1894740Y2074271D01*
G01X1895733Y2070471D01*
G01X1896773Y2066685D01*
G01X1897860Y2062911D01*
G01X1898994Y2059152D01*
G01X1900175Y2055406D01*
G01X1901402Y2051676D01*
G01X1902676Y2047962D01*
G01X1903996Y2044263D01*
G01X1905362Y2040581D01*
G01X1906774Y2036917D01*
G01X1908232Y2033271D01*
G01X1909734Y2029643D01*
G01X1911282Y2026033D01*
G01X1912875Y2022444D01*
G01X1914513Y2018875D01*
G01X1916194Y2015326D01*
G01X1917920Y2011799D01*
G01X1919690Y2008293D01*
G01X1921503Y2004810D01*
G01X1923360Y2001349D01*
G01X1925259Y1997912D01*
G01X1927201Y1994499D01*
G01X1929186Y1991111D01*
G01X1931213Y1987747D01*
G01X1933281Y1984409D01*
G01X1935391Y1981097D01*
G01X1937542Y1977812D01*
G01X1939734Y1974554D01*
G01X1941967Y1971323D01*
G01X1944239Y1968120D01*
G01X1946551Y1964946D01*
G01X1948903Y1961801D01*
G01X1951293Y1958686D01*
G01X1953723Y1955600D01*
G01X1956190Y1952545D01*
G01X1958695Y1949521D01*
G01X1961238Y1946529D01*
G01X1963818Y1943568D01*
G01X1966435Y1940640D01*
G01X1969088Y1937745D01*
G01X1971777Y1934883D01*
G01X1974501Y1932055D01*
G01X1977261Y1929261D01*
G01X1980055Y1926501D01*
G01X1982883Y1923777D01*
G01X1985745Y1921088D01*
G01X1988640Y1918435D01*
G01X1991568Y1915818D01*
G01X1994529Y1913238D01*
G01X1997521Y1910695D01*
G01X2000545Y1908190D01*
G01X2003600Y1905723D01*
G01X2006686Y1903293D01*
G01X2009801Y1900903D01*
G01X2012946Y1898551D01*
G01X2016120Y1896239D01*
G01X2019323Y1893967D01*
G01X2022554Y1891734D01*
G01X2025812Y1889542D01*
G01X2029097Y1887391D01*
G01X2032409Y1885281D01*
G01X2035747Y1883213D01*
G01X2039111Y1881186D01*
G01X2042500Y1879201D01*
G01X2045912Y1877259D01*
G01X2049349Y1875360D01*
G01X2052810Y1873503D01*
G01X2056293Y1871690D01*
G01X2059799Y1869920D01*
G01X2063326Y1868194D01*
G01X2066875Y1866513D01*
G01X2070444Y1864875D01*
G01X2074033Y1863282D01*
G01X2077643Y1861734D01*
G01X2081271Y1860232D01*
G01X2084917Y1858774D01*
G01X2088581Y1857362D01*
G01X2092263Y1855996D01*
G01X2095962Y1854676D01*
G01X2099676Y1853402D01*
G01X2103406Y1852175D01*
G01X2107152Y1850994D01*
G01X2110911Y1849860D01*
G01X2114685Y1848773D01*
G01X2118471Y1847733D01*
G01X2122271Y1846740D01*
G01X2126082Y1845795D01*
G01X2129905Y1844897D01*
G01X2133739Y1844047D01*
G01X2137583Y1843245D01*
G01X2141437Y1842491D01*
G01X2145300Y1841785D01*
G01X2149172Y1841127D01*
G01X2153051Y1840518D01*
G01X2156938Y1839957D01*
G01X2160831Y1839444D01*
G01X2164731Y1838980D01*
G01X2168636Y1838565D01*
G01X2172545Y1838198D01*
G01X2176460Y1837880D01*
G01X2180377Y1837611D01*
G01X2184298Y1837391D01*
G01X2188221Y1837220D01*
G01X2192146Y1837097D01*
G01X2196073Y1837024D01*
G01X2200000Y1837000D01*
G04 draw reference designator for part c11*
G01X2579545Y2129272D02*
G01X2575000Y2124727D01*
G01X2581818Y2133818D02*
G01X2579545Y2129272D01*
G01X2581818Y2140636D02*
G01X2581818Y2133818D01*
G01X2581818Y2140636D02*
G01X2579545Y2145181D01*
G01X2579545Y2145181D02*
G01X2575000Y2149727D01*
G01X2575000Y2149727D02*
G01X2568181Y2152000D01*
G01X2568181Y2152000D02*
G01X2563636Y2152000D01*
G01X2563636Y2152000D02*
G01X2556818Y2149727D01*
G01X2556818Y2149727D02*
G01X2552272Y2145181D01*
G01X2552272Y2145181D02*
G01X2550000Y2140636D01*
G01X2550000Y2133818D02*
G01X2550000Y2140636D01*
G01X2552272Y2129272D02*
G01X2550000Y2133818D01*
G01X2556818Y2124727D02*
G01X2552272Y2129272D01*
G01X2590909Y2102000D02*
G01X2588636Y2106545D01*
G01X2597727Y2095181D02*
G01X2590909Y2102000D01*
G01X2597727Y2095181D02*
G01X2550000Y2095181D01*
G01X2590909Y2072454D02*
G01X2588636Y2077000D01*
G01X2597727Y2065636D02*
G01X2590909Y2072454D01*
G01X2597727Y2065636D02*
G01X2550000Y2065636D01*
G04 Draw part v1*
G04 draw part outline for part v1*
G01X2535000Y1850000D02*
G01X2565000Y1850000D01*
G01X2550000Y1865000D02*
G01X2550000Y1835000D01*
G01X2723000Y1900000D02*
G01X2722936Y1903974D01*
G01X2722745Y1907944D01*
G01X2722427Y1911906D01*
G01X2721981Y1915856D01*
G01X2721410Y1919790D01*
G01X2720713Y1923703D01*
G01X2719891Y1927592D01*
G01X2718944Y1931453D01*
G01X2717874Y1935281D01*
G01X2716682Y1939073D01*
G01X2715370Y1942825D01*
G01X2713937Y1946533D01*
G01X2712387Y1950193D01*
G01X2710720Y1953801D01*
G01X2708938Y1957354D01*
G01X2707043Y1960848D01*
G01X2705037Y1964280D01*
G01X2702922Y1967646D01*
G01X2700701Y1970942D01*
G01X2698375Y1974165D01*
G01X2695947Y1977312D01*
G01X2693419Y1980380D01*
G01X2690794Y1983365D01*
G01X2688075Y1986264D01*
G01X2685264Y1989075D01*
G01X2682365Y1991794D01*
G01X2679380Y1994419D01*
G01X2676312Y1996947D01*
G01X2673165Y1999375D01*
G01X2669942Y2001701D01*
G01X2666646Y2003922D01*
G01X2663280Y2006037D01*
G01X2659848Y2008043D01*
G01X2656354Y2009938D01*
G01X2652801Y2011720D01*
G01X2649193Y2013387D01*
G01X2645533Y2014937D01*
G01X2641825Y2016370D01*
G01X2638073Y2017682D01*
G01X2634281Y2018874D01*
G01X2630453Y2019944D01*
G01X2626592Y2020891D01*
G01X2622703Y2021713D01*
G01X2618790Y2022410D01*
G01X2614856Y2022981D01*
G01X2610906Y2023427D01*
G01X2606944Y2023745D01*
G01X2602974Y2023936D01*
G01X2599000Y2024000D01*
G01X2599000Y2024000D02*
G01X2595025Y2023936D01*
G01X2591055Y2023745D01*
G01X2587093Y2023427D01*
G01X2583143Y2022981D01*
G01X2579209Y2022410D01*
G01X2575296Y2021713D01*
G01X2571407Y2020891D01*
G01X2567546Y2019944D01*
G01X2563718Y2018874D01*
G01X2559926Y2017682D01*
G01X2556174Y2016370D01*
G01X2552466Y2014937D01*
G01X2548806Y2013387D01*
G01X2545198Y2011720D01*
G01X2541645Y2009938D01*
G01X2538150Y2008043D01*
G01X2534719Y2006037D01*
G01X2531353Y2003922D01*
G01X2528057Y2001701D01*
G01X2524834Y1999375D01*
G01X2521687Y1996947D01*
G01X2518619Y1994419D01*
G01X2515634Y1991794D01*
G01X2512735Y1989075D01*
G01X2509924Y1986264D01*
G01X2507205Y1983365D01*
G01X2504580Y1980380D01*
G01X2502052Y1977312D01*
G01X2499624Y1974165D01*
G01X2497298Y1970942D01*
G01X2495077Y1967646D01*
G01X2492962Y1964280D01*
G01X2490956Y1960848D01*
G01X2489061Y1957354D01*
G01X2487279Y1953801D01*
G01X2485612Y1950193D01*
G01X2484062Y1946533D01*
G01X2482629Y1942825D01*
G01X2481317Y1939073D01*
G01X2480125Y1935281D01*
G01X2479055Y1931453D01*
G01X2478108Y1927592D01*
G01X2477286Y1923703D01*
G01X2476589Y1919790D01*
G01X2476018Y1915856D01*
G01X2475572Y1911906D01*
G01X2475254Y1907944D01*
G01X2475063Y1903974D01*
G01X2475000Y1900000D01*
G01X2475000Y1900000D02*
G01X2475063Y1896025D01*
G01X2475254Y1892055D01*
G01X2475572Y1888093D01*
G01X2476018Y1884143D01*
G01X2476589Y1880209D01*
G01X2477286Y1876296D01*
G01X2478108Y1872407D01*
G01X2479055Y1868546D01*
G01X2480125Y1864718D01*
G01X2481317Y1860926D01*
G01X2482629Y1857174D01*
G01X2484062Y1853466D01*
G01X2485612Y1849806D01*
G01X2487279Y1846198D01*
G01X2489061Y1842645D01*
G01X2490956Y1839150D01*
G01X2492962Y1835719D01*
G01X2495077Y1832353D01*
G01X2497298Y1829057D01*
G01X2499624Y1825834D01*
G01X2502052Y1822687D01*
G01X2504580Y1819619D01*
G01X2507205Y1816634D01*
G01X2509924Y1813735D01*
G01X2512735Y1810924D01*
G01X2515634Y1808205D01*
G01X2518619Y1805580D01*
G01X2521687Y1803052D01*
G01X2524834Y1800624D01*
G01X2528057Y1798298D01*
G01X2531353Y1796077D01*
G01X2534719Y1793962D01*
G01X2538150Y1791956D01*
G01X2541645Y1790061D01*
G01X2545198Y1788279D01*
G01X2548806Y1786612D01*
G01X2552466Y1785062D01*
G01X2556174Y1783629D01*
G01X2559926Y1782317D01*
G01X2563718Y1781125D01*
G01X2567546Y1780055D01*
G01X2571407Y1779108D01*
G01X2575296Y1778286D01*
G01X2579209Y1777589D01*
G01X2583143Y1777018D01*
G01X2587093Y1776572D01*
G01X2591055Y1776254D01*
G01X2595025Y1776063D01*
G01X2599000Y1776000D01*
G01X2599000Y1776000D02*
G01X2602974Y1776063D01*
G01X2606944Y1776254D01*
G01X2610906Y1776572D01*
G01X2614856Y1777018D01*
G01X2618790Y1777589D01*
G01X2622703Y1778286D01*
G01X2626592Y1779108D01*
G01X2630453Y1780055D01*
G01X2634281Y1781125D01*
G01X2638073Y1782317D01*
G01X2641825Y1783629D01*
G01X2645533Y1785062D01*
G01X2649193Y1786612D01*
G01X2652801Y1788279D01*
G01X2656354Y1790061D01*
G01X2659848Y1791956D01*
G01X2663280Y1793962D01*
G01X2666646Y1796077D01*
G01X2669942Y1798298D01*
G01X2673165Y1800624D01*
G01X2676312Y1803052D01*
G01X2679380Y1805580D01*
G01X2682365Y1808205D01*
G01X2685264Y1810924D01*
G01X2688075Y1813735D01*
G01X2690794Y1816634D01*
G01X2693419Y1819619D01*
G01X2695947Y1822687D01*
G01X2698375Y1825834D01*
G01X2700701Y1829057D01*
G01X2702922Y1832353D01*
G01X2705037Y1835719D01*
G01X2707043Y1839150D01*
G01X2708938Y1842645D01*
G01X2710720Y1846198D01*
G01X2712387Y1849806D01*
G01X2713937Y1853466D01*
G01X2715370Y1857174D01*
G01X2716682Y1860926D01*
G01X2717874Y1864718D01*
G01X2718944Y1868546D01*
G01X2719891Y1872407D01*
G01X2720713Y1876296D01*
G01X2721410Y1880209D01*
G01X2721981Y1884143D01*
G01X2722427Y1888093D01*
G01X2722745Y1892055D01*
G01X2722936Y1896025D01*
G01X2723000Y1900000D01*
G04 draw reference designator for part v1*
G01X2599000Y2090818D02*
G01X2612636Y2059000D01*
G01X2626272Y2090818D02*
G01X2612636Y2059000D01*
G01X2649000Y2099909D02*
G01X2644454Y2097636D01*
G01X2655818Y2106727D02*
G01X2649000Y2099909D01*
G01X2655818Y2106727D02*
G01X2655818Y2059000D01*
G04 Draw part f1*
G04 draw part outline for part f1*
G54D12*
G01X1750000Y2025000D02*
G01X1200000Y2025000D01*
G01X1200000Y2025000D02*
G01X1200000Y2175000D01*
G01X1200000Y2175000D02*
G01X1750000Y2175000D01*
G01X1750000Y2175000D02*
G01X1750000Y2025000D01*
G01X1650000Y2025000D02*
G01X1650000Y2175000D01*
G01X1700000Y2050000D02*
G01X1700000Y2070000D01*
G01X1700000Y2070000D02*
G01X1700000Y2060000D01*
G01X1700000Y2060000D02*
G01X1710000Y2060000D01*
G01X1710000Y2060000D02*
G01X1690000Y2060000D01*
G01X1690000Y2060000D02*
G01X1700000Y2060000D01*
G01X1580000Y2070000D02*
G01X1560000Y2050000D01*
G01X1560000Y2050000D02*
G01X1540000Y2070000D01*
G01X1540000Y2070000D02*
G01X1520000Y2050000D01*
G01X1430000Y2070000D02*
G01X1410000Y2050000D01*
G01X1410000Y2050000D02*
G01X1390000Y2070000D01*
G01X1390000Y2070000D02*
G01X1370000Y2050000D01*
G01X1270000Y2060000D02*
G01X1240000Y2060000D01*
G04 draw reference designator for part f1*
G01X1572727Y1804545D02*
G01X1563636Y1804545D01*
G01X1572727Y1804545D02*
G01X1581818Y1809090D01*
G01X1581818Y1809090D02*
G01X1586363Y1822727D01*
G01X1586363Y1822727D02*
G01X1586363Y1900000D01*
G01X1568181Y1836363D02*
G01X1600000Y1836363D01*
G01X1518181Y1818181D02*
G01X1527272Y1822727D01*
G01X1504545Y1804545D02*
G01X1518181Y1818181D01*
G01X1504545Y1804545D02*
G01X1504545Y1900000D01*
G04 Draw part d2*
G04 draw part outline for part d2*
G54D11*
G01X2250000Y2579000D02*
G01X2455000Y2579000D01*
G01X2455000Y2579000D02*
G01X2455000Y2471000D01*
G01X2455000Y2471000D02*
G01X2250000Y2471000D01*
G01X2250000Y2471000D02*
G01X2250000Y2579000D01*
G01X2430000Y2579000D02*
G01X2430000Y2471000D01*
G04 draw reference designator for part d2*
G01X2352272Y2447727D02*
G01X2352272Y2400000D01*
G01X2347727Y2429545D02*
G01X2352272Y2425000D01*
G01X2343181Y2431818D02*
G01X2347727Y2429545D01*
G01X2336363Y2431818D02*
G01X2343181Y2431818D01*
G01X2336363Y2431818D02*
G01X2331818Y2429545D01*
G01X2331818Y2429545D02*
G01X2327272Y2425000D01*
G01X2327272Y2425000D02*
G01X2325000Y2418181D01*
G01X2325000Y2418181D02*
G01X2325000Y2413636D01*
G01X2325000Y2413636D02*
G01X2327272Y2406818D01*
G01X2327272Y2406818D02*
G01X2331818Y2402272D01*
G01X2331818Y2402272D02*
G01X2336363Y2400000D01*
G01X2343181Y2400000D02*
G01X2336363Y2400000D01*
G01X2347727Y2402272D02*
G01X2343181Y2400000D01*
G01X2352272Y2406818D02*
G01X2347727Y2402272D01*
G01X2372727Y2438636D02*
G01X2372727Y2436363D01*
G01X2375000Y2443181D02*
G01X2372727Y2438636D01*
G01X2377272Y2445454D02*
G01X2375000Y2443181D01*
G01X2381818Y2447727D02*
G01X2377272Y2445454D01*
G01X2390909Y2447727D02*
G01X2381818Y2447727D01*
G01X2390909Y2447727D02*
G01X2395454Y2445454D01*
G01X2395454Y2445454D02*
G01X2397727Y2443181D01*
G01X2397727Y2443181D02*
G01X2400000Y2438636D01*
G01X2400000Y2438636D02*
G01X2400000Y2434090D01*
G01X2400000Y2434090D02*
G01X2397727Y2429545D01*
G01X2397727Y2429545D02*
G01X2393181Y2422727D01*
G01X2393181Y2422727D02*
G01X2370454Y2400000D01*
G01X2402272Y2400000D02*
G01X2370454Y2400000D01*
G04 Draw part b1*
G04 draw part outline for part b1*
G54D12*
G01X1125000Y700000D02*
G01X1125000Y650000D01*
G01X1125000Y650000D02*
G01X1150000Y625000D01*
G01X1150000Y625000D02*
G01X1450000Y625000D01*
G01X1450000Y625000D02*
G01X1450000Y625000D01*
G01X1450000Y625000D02*
G01X1475000Y650000D01*
G01X1475000Y650000D02*
G01X1475000Y750000D01*
G01X1475000Y750000D02*
G01X1450000Y775000D01*
G01X1450000Y775000D02*
G01X1150000Y775000D01*
G01X1150000Y775000D02*
G01X1125000Y750000D01*
G01X1125000Y750000D02*
G01X1125000Y700000D01*
G04 draw reference designator for part b1*
G54D11*
G01X1300000Y827727D02*
G01X1300000Y780000D01*
G01X1304545Y809545D02*
G01X1300000Y805000D01*
G01X1309090Y811818D02*
G01X1304545Y809545D01*
G01X1315909Y811818D02*
G01X1309090Y811818D01*
G01X1315909Y811818D02*
G01X1320454Y809545D01*
G01X1320454Y809545D02*
G01X1325000Y805000D01*
G01X1325000Y805000D02*
G01X1327272Y798181D01*
G01X1327272Y798181D02*
G01X1327272Y793636D01*
G01X1327272Y793636D02*
G01X1325000Y786818D01*
G01X1325000Y786818D02*
G01X1320454Y782272D01*
G01X1320454Y782272D02*
G01X1315909Y780000D01*
G01X1309090Y780000D02*
G01X1315909Y780000D01*
G01X1304545Y782272D02*
G01X1309090Y780000D01*
G01X1300000Y786818D02*
G01X1304545Y782272D01*
G01X1350000Y820909D02*
G01X1345454Y818636D01*
G01X1356818Y827727D02*
G01X1350000Y820909D01*
G01X1356818Y827727D02*
G01X1356818Y780000D01*
G04 Draw part b4*
G04 draw part outline for part b4*
G01X1250000Y1150000D02*
G01X1250000Y850000D01*
G01X1250000Y850000D02*
G01X1150000Y850000D01*
G01X1150000Y850000D02*
G01X1150000Y1150000D01*
G01X1150000Y1150000D02*
G01X1250000Y1150000D01*
G04 draw reference designator for part b4*
G01X1327727Y1000000D02*
G01X1280000Y1000000D01*
G01X1309545Y995454D02*
G01X1305000Y1000000D01*
G01X1311818Y990909D02*
G01X1309545Y995454D01*
G01X1311818Y984090D02*
G01X1311818Y990909D01*
G01X1311818Y984090D02*
G01X1309545Y979545D01*
G01X1309545Y979545D02*
G01X1305000Y975000D01*
G01X1305000Y975000D02*
G01X1298181Y972727D01*
G01X1298181Y972727D02*
G01X1293636Y972727D01*
G01X1293636Y972727D02*
G01X1286818Y975000D01*
G01X1286818Y975000D02*
G01X1282272Y979545D01*
G01X1282272Y979545D02*
G01X1280000Y984090D01*
G01X1280000Y990909D02*
G01X1280000Y984090D01*
G01X1282272Y995454D02*
G01X1280000Y990909D01*
G01X1286818Y1000000D02*
G01X1282272Y995454D01*
G01X1327727Y931818D02*
G01X1295909Y954545D01*
G01X1295909Y920454D02*
G01X1295909Y954545D01*
G01X1327727Y931818D02*
G01X1280000Y931818D01*
G04 Draw part b6*
G04 draw part outline for part b6*
G01X1350000Y1150000D02*
G01X1350000Y850000D01*
G01X1350000Y850000D02*
G01X1250000Y850000D01*
G01X1250000Y850000D02*
G01X1250000Y1150000D01*
G01X1250000Y1150000D02*
G01X1350000Y1150000D01*
G04 draw reference designator for part b6*
G01X1427727Y1000000D02*
G01X1380000Y1000000D01*
G01X1409545Y995454D02*
G01X1405000Y1000000D01*
G01X1411818Y990909D02*
G01X1409545Y995454D01*
G01X1411818Y984090D02*
G01X1411818Y990909D01*
G01X1411818Y984090D02*
G01X1409545Y979545D01*
G01X1409545Y979545D02*
G01X1405000Y975000D01*
G01X1405000Y975000D02*
G01X1398181Y972727D01*
G01X1398181Y972727D02*
G01X1393636Y972727D01*
G01X1393636Y972727D02*
G01X1386818Y975000D01*
G01X1386818Y975000D02*
G01X1382272Y979545D01*
G01X1382272Y979545D02*
G01X1380000Y984090D01*
G01X1380000Y990909D02*
G01X1380000Y984090D01*
G01X1382272Y995454D02*
G01X1380000Y990909D01*
G01X1386818Y1000000D02*
G01X1382272Y995454D01*
G01X1425454Y929545D02*
G01X1420909Y927272D01*
G01X1427727Y936363D02*
G01X1425454Y929545D01*
G01X1427727Y940909D02*
G01X1427727Y936363D01*
G01X1427727Y940909D02*
G01X1425454Y947727D01*
G01X1425454Y947727D02*
G01X1418636Y952272D01*
G01X1418636Y952272D02*
G01X1407272Y954545D01*
G01X1407272Y954545D02*
G01X1395909Y954545D01*
G01X1395909Y954545D02*
G01X1386818Y952272D01*
G01X1386818Y952272D02*
G01X1382272Y947727D01*
G01X1382272Y947727D02*
G01X1380000Y940909D01*
G01X1380000Y938636D02*
G01X1380000Y940909D01*
G01X1382272Y931818D02*
G01X1380000Y938636D01*
G01X1386818Y927272D02*
G01X1382272Y931818D01*
G01X1393636Y925000D02*
G01X1386818Y927272D01*
G01X1395909Y925000D02*
G01X1393636Y925000D01*
G01X1402727Y927272D02*
G01X1395909Y925000D01*
G01X1407272Y931818D02*
G01X1402727Y927272D01*
G01X1409545Y938636D02*
G01X1407272Y931818D01*
G01X1409545Y940909D02*
G01X1409545Y938636D01*
G01X1409545Y940909D02*
G01X1407272Y947727D01*
G01X1407272Y947727D02*
G01X1402727Y952272D01*
G01X1402727Y952272D02*
G01X1395909Y954545D01*
G04 Draw part b7*
G04 draw part outline for part b7*
G54D12*
G01X2200000Y250000D02*
G01X2200077Y246074D01*
G01X2200308Y242154D01*
G01X2200693Y238246D01*
G01X2201231Y234356D01*
G01X2201921Y230490D01*
G01X2202762Y226655D01*
G01X2203754Y222855D01*
G01X2204894Y219098D01*
G01X2206180Y215388D01*
G01X2207612Y211731D01*
G01X2209185Y208134D01*
G01X2210899Y204600D01*
G01X2212750Y201137D01*
G01X2214735Y197750D01*
G01X2216853Y194442D01*
G01X2219098Y191221D01*
G01X2221468Y188090D01*
G01X2223959Y185055D01*
G01X2226567Y182119D01*
G01X2229289Y179289D01*
G01X2232119Y176567D01*
G01X2235055Y173959D01*
G01X2238090Y171468D01*
G01X2241221Y169098D01*
G01X2244442Y166853D01*
G01X2247750Y164735D01*
G01X2251137Y162750D01*
G01X2254600Y160899D01*
G01X2258134Y159185D01*
G01X2261731Y157612D01*
G01X2265388Y156180D01*
G01X2269098Y154894D01*
G01X2272855Y153754D01*
G01X2276655Y152762D01*
G01X2280490Y151921D01*
G01X2284356Y151231D01*
G01X2288246Y150693D01*
G01X2292154Y150308D01*
G01X2296074Y150077D01*
G01X2300000Y150000D01*
G01X2300000Y150000D02*
G01X2303925Y150077D01*
G01X2307845Y150308D01*
G01X2311753Y150693D01*
G01X2315643Y151231D01*
G01X2319509Y151921D01*
G01X2323344Y152762D01*
G01X2327144Y153754D01*
G01X2330901Y154894D01*
G01X2334611Y156180D01*
G01X2338268Y157612D01*
G01X2341865Y159185D01*
G01X2345399Y160899D01*
G01X2348862Y162750D01*
G01X2352249Y164735D01*
G01X2355557Y166853D01*
G01X2358778Y169098D01*
G01X2361909Y171468D01*
G01X2364944Y173959D01*
G01X2367880Y176567D01*
G01X2370710Y179289D01*
G01X2373432Y182119D01*
G01X2376040Y185055D01*
G01X2378531Y188090D01*
G01X2380901Y191221D01*
G01X2383146Y194442D01*
G01X2385264Y197750D01*
G01X2387249Y201137D01*
G01X2389100Y204600D01*
G01X2390814Y208134D01*
G01X2392387Y211731D01*
G01X2393819Y215388D01*
G01X2395105Y219098D01*
G01X2396245Y222855D01*
G01X2397236Y226655D01*
G01X2398078Y230490D01*
G01X2398768Y234356D01*
G01X2399306Y238246D01*
G01X2399691Y242154D01*
G01X2399922Y246074D01*
G01X2400000Y250000D01*
G01X2400000Y250000D02*
G01X2399922Y253925D01*
G01X2399691Y257845D01*
G01X2399306Y261753D01*
G01X2398768Y265643D01*
G01X2398078Y269509D01*
G01X2397236Y273344D01*
G01X2396245Y277144D01*
G01X2395105Y280901D01*
G01X2393819Y284611D01*
G01X2392387Y288268D01*
G01X2390814Y291865D01*
G01X2389100Y295399D01*
G01X2387249Y298862D01*
G01X2385264Y302249D01*
G01X2383146Y305557D01*
G01X2380901Y308778D01*
G01X2378531Y311909D01*
G01X2376040Y314944D01*
G01X2373432Y317880D01*
G01X2370710Y320710D01*
G01X2367880Y323432D01*
G01X2364944Y326040D01*
G01X2361909Y328531D01*
G01X2358778Y330901D01*
G01X2355557Y333146D01*
G01X2352249Y335264D01*
G01X2348862Y337249D01*
G01X2345399Y339100D01*
G01X2341865Y340814D01*
G01X2338268Y342387D01*
G01X2334611Y343819D01*
G01X2330901Y345105D01*
G01X2327144Y346245D01*
G01X2323344Y347236D01*
G01X2319509Y348078D01*
G01X2315643Y348768D01*
G01X2311753Y349306D01*
G01X2307845Y349691D01*
G01X2303925Y349922D01*
G01X2300000Y350000D01*
G01X2300000Y350000D02*
G01X2296074Y349922D01*
G01X2292154Y349691D01*
G01X2288246Y349306D01*
G01X2284356Y348768D01*
G01X2280490Y348078D01*
G01X2276655Y347236D01*
G01X2272855Y346245D01*
G01X2269098Y345105D01*
G01X2265388Y343819D01*
G01X2261731Y342387D01*
G01X2258134Y340814D01*
G01X2254600Y339100D01*
G01X2251137Y337249D01*
G01X2247750Y335264D01*
G01X2244442Y333146D01*
G01X2241221Y330901D01*
G01X2238090Y328531D01*
G01X2235055Y326040D01*
G01X2232119Y323432D01*
G01X2229289Y320710D01*
G01X2226567Y317880D01*
G01X2223959Y314944D01*
G01X2221468Y311909D01*
G01X2219098Y308778D01*
G01X2216853Y305557D01*
G01X2214735Y302249D01*
G01X2212750Y298862D01*
G01X2210899Y295399D01*
G01X2209185Y291865D01*
G01X2207612Y288268D01*
G01X2206180Y284611D01*
G01X2204894Y280901D01*
G01X2203754Y277144D01*
G01X2202762Y273344D01*
G01X2201921Y269509D01*
G01X2201231Y265643D01*
G01X2200693Y261753D01*
G01X2200308Y257845D01*
G01X2200077Y253925D01*
G01X2200000Y250000D01*
G01X2370000Y180000D02*
G01X2230000Y180000D01*
G04 draw reference designator for part b7*
G54D10*
G01X2347727Y275000D02*
G01X2300000Y275000D01*
G01X2329545Y270454D02*
G01X2325000Y275000D01*
G01X2331818Y265909D02*
G01X2329545Y270454D01*
G01X2331818Y259090D02*
G01X2331818Y265909D01*
G01X2331818Y259090D02*
G01X2329545Y254545D01*
G01X2329545Y254545D02*
G01X2325000Y250000D01*
G01X2325000Y250000D02*
G01X2318181Y247727D01*
G01X2318181Y247727D02*
G01X2313636Y247727D01*
G01X2313636Y247727D02*
G01X2306818Y250000D01*
G01X2306818Y250000D02*
G01X2302272Y254545D01*
G01X2302272Y254545D02*
G01X2300000Y259090D01*
G01X2300000Y265909D02*
G01X2300000Y259090D01*
G01X2302272Y270454D02*
G01X2300000Y265909D01*
G01X2306818Y275000D02*
G01X2302272Y270454D01*
G01X2347727Y197727D02*
G01X2300000Y220454D01*
G01X2347727Y197727D02*
G01X2347727Y229545D01*
G04 Draw part b9*
G04 draw part outline for part b9*
G54D11*
G01X2050000Y950000D02*
G01X2050000Y650000D01*
G01X2050000Y650000D02*
G01X1950000Y650000D01*
G01X1950000Y650000D02*
G01X1950000Y950000D01*
G01X1950000Y950000D02*
G01X2050000Y950000D01*
G04 draw reference designator for part b9*
G01X2127727Y800000D02*
G01X2080000Y800000D01*
G01X2109545Y795454D02*
G01X2105000Y800000D01*
G01X2111818Y790909D02*
G01X2109545Y795454D01*
G01X2111818Y784090D02*
G01X2111818Y790909D01*
G01X2111818Y784090D02*
G01X2109545Y779545D01*
G01X2109545Y779545D02*
G01X2105000Y775000D01*
G01X2105000Y775000D02*
G01X2098181Y772727D01*
G01X2098181Y772727D02*
G01X2093636Y772727D01*
G01X2093636Y772727D02*
G01X2086818Y775000D01*
G01X2086818Y775000D02*
G01X2082272Y779545D01*
G01X2082272Y779545D02*
G01X2080000Y784090D01*
G01X2080000Y790909D02*
G01X2080000Y784090D01*
G01X2082272Y795454D02*
G01X2080000Y790909D01*
G01X2086818Y800000D02*
G01X2082272Y795454D01*
G01X2111818Y725000D02*
G01X2105000Y727272D01*
G01X2105000Y727272D02*
G01X2100454Y731818D01*
G01X2100454Y731818D02*
G01X2098181Y738636D01*
G01X2098181Y740909D02*
G01X2098181Y738636D01*
G01X2100454Y747727D02*
G01X2098181Y740909D01*
G01X2105000Y752272D02*
G01X2100454Y747727D01*
G01X2111818Y754545D02*
G01X2105000Y752272D01*
G01X2114090Y754545D02*
G01X2111818Y754545D01*
G01X2120909Y752272D02*
G01X2114090Y754545D01*
G01X2125454Y747727D02*
G01X2120909Y752272D01*
G01X2127727Y740909D02*
G01X2125454Y747727D01*
G01X2127727Y738636D02*
G01X2127727Y740909D01*
G01X2127727Y738636D02*
G01X2125454Y731818D01*
G01X2125454Y731818D02*
G01X2120909Y727272D01*
G01X2120909Y727272D02*
G01X2111818Y725000D01*
G01X2111818Y725000D02*
G01X2100454Y725000D01*
G01X2100454Y725000D02*
G01X2089090Y727272D01*
G01X2089090Y727272D02*
G01X2082272Y731818D01*
G01X2082272Y731818D02*
G01X2080000Y738636D01*
G01X2080000Y743181D02*
G01X2080000Y738636D01*
G01X2082272Y750000D02*
G01X2080000Y743181D01*
G01X2086818Y752272D02*
G01X2082272Y750000D01*
G04 Draw part d1*
G04 draw part outline for part d1*
G01X1450000Y1650000D02*
G01X1050000Y1650000D01*
G01X1050000Y1650000D02*
G01X1050000Y1450000D01*
G01X1050000Y1450000D02*
G01X1450000Y1450000D01*
G01X1450000Y1450000D02*
G01X1450000Y1650000D01*
G01X1450000Y1600000D02*
G01X1400000Y1600000D01*
G01X1400000Y1600000D02*
G01X1400000Y1500000D01*
G01X1400000Y1500000D02*
G01X1450000Y1500000D01*
G01X1450000Y1500000D02*
G01X1450000Y1600000D01*
G04 draw reference designator for part d1*
G01X1547727Y1522727D02*
G01X1500000Y1522727D01*
G01X1529545Y1527272D02*
G01X1525000Y1522727D01*
G01X1531818Y1531818D02*
G01X1529545Y1527272D01*
G01X1531818Y1538636D02*
G01X1531818Y1531818D01*
G01X1531818Y1538636D02*
G01X1529545Y1543181D01*
G01X1529545Y1543181D02*
G01X1525000Y1547727D01*
G01X1525000Y1547727D02*
G01X1518181Y1550000D01*
G01X1518181Y1550000D02*
G01X1513636Y1550000D01*
G01X1513636Y1550000D02*
G01X1506818Y1547727D01*
G01X1506818Y1547727D02*
G01X1502272Y1543181D01*
G01X1502272Y1543181D02*
G01X1500000Y1538636D01*
G01X1500000Y1531818D02*
G01X1500000Y1538636D01*
G01X1502272Y1527272D02*
G01X1500000Y1531818D01*
G01X1506818Y1522727D02*
G01X1502272Y1527272D01*
G01X1540909Y1500000D02*
G01X1538636Y1504545D01*
G01X1547727Y1493181D02*
G01X1540909Y1500000D01*
G01X1547727Y1493181D02*
G01X1500000Y1493181D01*
G04 Draw part d4*
G04 draw part outline for part d4*
G01X1133000Y2105000D02*
G01X1133000Y1945000D01*
G01X1133000Y1945000D02*
G01X1067000Y1945000D01*
G01X1067000Y1945000D02*
G01X1067000Y2105000D01*
G01X1067000Y2105000D02*
G01X1133000Y2105000D01*
G04 draw reference designator for part d4*
G01X1220727Y1997727D02*
G01X1173000Y1997727D01*
G01X1202545Y2002272D02*
G01X1198000Y1997727D01*
G01X1204818Y2006818D02*
G01X1202545Y2002272D01*
G01X1204818Y2013636D02*
G01X1204818Y2006818D01*
G01X1204818Y2013636D02*
G01X1202545Y2018181D01*
G01X1202545Y2018181D02*
G01X1198000Y2022727D01*
G01X1198000Y2022727D02*
G01X1191181Y2025000D01*
G01X1191181Y2025000D02*
G01X1186636Y2025000D01*
G01X1186636Y2025000D02*
G01X1179818Y2022727D01*
G01X1179818Y2022727D02*
G01X1175272Y2018181D01*
G01X1175272Y2018181D02*
G01X1173000Y2013636D01*
G01X1173000Y2006818D02*
G01X1173000Y2013636D01*
G01X1175272Y2002272D02*
G01X1173000Y2006818D01*
G01X1179818Y1997727D02*
G01X1175272Y2002272D01*
G01X1220727Y1956818D02*
G01X1188909Y1979545D01*
G01X1188909Y1945454D02*
G01X1188909Y1979545D01*
G01X1220727Y1956818D02*
G01X1173000Y1956818D01*
G04 Draw part d5*
G04 draw part outline for part d5*
G01X1270000Y1333000D02*
G01X1430000Y1333000D01*
G01X1430000Y1333000D02*
G01X1430000Y1267000D01*
G01X1430000Y1267000D02*
G01X1270000Y1267000D01*
G01X1270000Y1267000D02*
G01X1270000Y1333000D01*
G04 draw reference designator for part d5*
G01X1377272Y1420727D02*
G01X1377272Y1373000D01*
G01X1372727Y1402545D02*
G01X1377272Y1398000D01*
G01X1368181Y1404818D02*
G01X1372727Y1402545D01*
G01X1361363Y1404818D02*
G01X1368181Y1404818D01*
G01X1361363Y1404818D02*
G01X1356818Y1402545D01*
G01X1356818Y1402545D02*
G01X1352272Y1398000D01*
G01X1352272Y1398000D02*
G01X1350000Y1391181D01*
G01X1350000Y1391181D02*
G01X1350000Y1386636D01*
G01X1350000Y1386636D02*
G01X1352272Y1379818D01*
G01X1352272Y1379818D02*
G01X1356818Y1375272D01*
G01X1356818Y1375272D02*
G01X1361363Y1373000D01*
G01X1368181Y1373000D02*
G01X1361363Y1373000D01*
G01X1372727Y1375272D02*
G01X1368181Y1373000D01*
G01X1377272Y1379818D02*
G01X1372727Y1375272D01*
G01X1400000Y1420727D02*
G01X1422727Y1420727D01*
G01X1400000Y1420727D02*
G01X1397727Y1400272D01*
G01X1400000Y1402545D02*
G01X1397727Y1400272D01*
G01X1406818Y1404818D02*
G01X1400000Y1402545D01*
G01X1413636Y1404818D02*
G01X1406818Y1404818D01*
G01X1413636Y1404818D02*
G01X1420454Y1402545D01*
G01X1420454Y1402545D02*
G01X1425000Y1398000D01*
G01X1425000Y1398000D02*
G01X1427272Y1391181D01*
G01X1427272Y1391181D02*
G01X1427272Y1386636D01*
G01X1427272Y1386636D02*
G01X1425000Y1379818D01*
G01X1425000Y1379818D02*
G01X1420454Y1375272D01*
G01X1420454Y1375272D02*
G01X1413636Y1373000D01*
G01X1406818Y1373000D02*
G01X1413636Y1373000D01*
G01X1400000Y1375272D02*
G01X1406818Y1373000D01*
G01X1397727Y1377545D02*
G01X1400000Y1375272D01*
G01X1395454Y1382090D02*
G01X1397727Y1377545D01*
G04 Draw part d6*
G04 draw part outline for part d6*
G01X1250000Y1825000D02*
G01X1350000Y1825000D01*
G01X1350000Y1825000D02*
G01X1350000Y1775000D01*
G01X1350000Y1775000D02*
G01X1250000Y1775000D01*
G01X1250000Y1775000D02*
G01X1250000Y1825000D01*
G01X1325000Y1825000D02*
G01X1325000Y1775000D01*
G04 draw reference designator for part d6*
G01X1327272Y1917727D02*
G01X1327272Y1870000D01*
G01X1322727Y1899545D02*
G01X1327272Y1895000D01*
G01X1318181Y1901818D02*
G01X1322727Y1899545D01*
G01X1311363Y1901818D02*
G01X1318181Y1901818D01*
G01X1311363Y1901818D02*
G01X1306818Y1899545D01*
G01X1306818Y1899545D02*
G01X1302272Y1895000D01*
G01X1302272Y1895000D02*
G01X1300000Y1888181D01*
G01X1300000Y1888181D02*
G01X1300000Y1883636D01*
G01X1300000Y1883636D02*
G01X1302272Y1876818D01*
G01X1302272Y1876818D02*
G01X1306818Y1872272D01*
G01X1306818Y1872272D02*
G01X1311363Y1870000D01*
G01X1318181Y1870000D02*
G01X1311363Y1870000D01*
G01X1322727Y1872272D02*
G01X1318181Y1870000D01*
G01X1327272Y1876818D02*
G01X1322727Y1872272D01*
G01X1370454Y1915454D02*
G01X1372727Y1910909D01*
G01X1363636Y1917727D02*
G01X1370454Y1915454D01*
G01X1359090Y1917727D02*
G01X1363636Y1917727D01*
G01X1359090Y1917727D02*
G01X1352272Y1915454D01*
G01X1352272Y1915454D02*
G01X1347727Y1908636D01*
G01X1347727Y1908636D02*
G01X1345454Y1897272D01*
G01X1345454Y1897272D02*
G01X1345454Y1885909D01*
G01X1345454Y1885909D02*
G01X1347727Y1876818D01*
G01X1347727Y1876818D02*
G01X1352272Y1872272D01*
G01X1352272Y1872272D02*
G01X1359090Y1870000D01*
G01X1361363Y1870000D02*
G01X1359090Y1870000D01*
G01X1368181Y1872272D02*
G01X1361363Y1870000D01*
G01X1372727Y1876818D02*
G01X1368181Y1872272D01*
G01X1375000Y1883636D02*
G01X1372727Y1876818D01*
G01X1375000Y1885909D02*
G01X1375000Y1883636D01*
G01X1372727Y1892727D02*
G01X1375000Y1885909D01*
G01X1368181Y1897272D02*
G01X1372727Y1892727D01*
G01X1361363Y1899545D02*
G01X1368181Y1897272D01*
G01X1359090Y1899545D02*
G01X1361363Y1899545D01*
G01X1359090Y1899545D02*
G01X1352272Y1897272D01*
G01X1352272Y1897272D02*
G01X1347727Y1892727D01*
G01X1347727Y1892727D02*
G01X1345454Y1885909D01*
G04 Draw part d7*
G04 draw part outline for part d7*
G01X1028000Y2328000D02*
G01X1372000Y2328000D01*
G01X1372000Y2328000D02*
G01X1372000Y2472000D01*
G01X1372000Y2472000D02*
G01X1028000Y2472000D01*
G01X1028000Y2472000D02*
G01X1028000Y2328000D01*
G04 draw reference designator for part d7*
G54D10*
G01X1177272Y2447727D02*
G01X1177272Y2400000D01*
G01X1172727Y2429545D02*
G01X1177272Y2425000D01*
G01X1168181Y2431818D02*
G01X1172727Y2429545D01*
G01X1161363Y2431818D02*
G01X1168181Y2431818D01*
G01X1161363Y2431818D02*
G01X1156818Y2429545D01*
G01X1156818Y2429545D02*
G01X1152272Y2425000D01*
G01X1152272Y2425000D02*
G01X1150000Y2418181D01*
G01X1150000Y2418181D02*
G01X1150000Y2413636D01*
G01X1150000Y2413636D02*
G01X1152272Y2406818D01*
G01X1152272Y2406818D02*
G01X1156818Y2402272D01*
G01X1156818Y2402272D02*
G01X1161363Y2400000D01*
G01X1168181Y2400000D02*
G01X1161363Y2400000D01*
G01X1172727Y2402272D02*
G01X1168181Y2400000D01*
G01X1177272Y2406818D02*
G01X1172727Y2402272D01*
G01X1227272Y2447727D02*
G01X1204545Y2400000D01*
G01X1227272Y2447727D02*
G01X1195454Y2447727D01*

G04 Draw traces*

G04 Draw Text*
G54D13*
G01X2200000Y600161D02*
G01X2200000Y525000D01*
G01X2200000Y600161D02*
G01X2228632Y525000D01*
G01X2257265Y600161D02*
G01X2228632Y525000D01*
G01X2257265Y600161D02*
G01X2257265Y525000D01*
G01X2289477Y532158D02*
G01X2285898Y528579D01*
G01X2285898Y528579D02*
G01X2289477Y525000D01*
G01X2289477Y525000D02*
G01X2293056Y528579D01*
G01X2293056Y528579D02*
G01X2289477Y532158D01*
G01X2321689Y600161D02*
G01X2321689Y525000D01*
G01X2321689Y600161D02*
G01X2353901Y600161D01*
G01X2353901Y600161D02*
G01X2364638Y596581D01*
G01X2364638Y596581D02*
G01X2368217Y593002D01*
G01X2368217Y593002D02*
G01X2371796Y585844D01*
G01X2371796Y585844D02*
G01X2371796Y578686D01*
G01X2371796Y578686D02*
G01X2368217Y571528D01*
G01X2368217Y571528D02*
G01X2364638Y567949D01*
G01X2364638Y567949D02*
G01X2353901Y564370D01*
G01X2353901Y564370D02*
G01X2321689Y564370D01*
G01X2346742Y564370D02*
G01X2371796Y525000D01*
G01X2418324Y575107D02*
G01X2411166Y571528D01*
G01X2411166Y571528D02*
G01X2404008Y564370D01*
G01X2404008Y564370D02*
G01X2400429Y553632D01*
G01X2400429Y553632D02*
G01X2400429Y546474D01*
G01X2400429Y546474D02*
G01X2404008Y535737D01*
G01X2404008Y535737D02*
G01X2411166Y528579D01*
G01X2411166Y528579D02*
G01X2418324Y525000D01*
G01X2418324Y525000D02*
G01X2429062Y525000D01*
G01X2429062Y525000D02*
G01X2436220Y528579D01*
G01X2436220Y528579D02*
G01X2443378Y535737D01*
G01X2443378Y535737D02*
G01X2446957Y546474D01*
G01X2446957Y546474D02*
G01X2446957Y553632D01*
G01X2446957Y553632D02*
G01X2443378Y564370D01*
G01X2443378Y564370D02*
G01X2436220Y571528D01*
G01X2436220Y571528D02*
G01X2429062Y575107D01*
G01X2429062Y575107D02*
G01X2418324Y575107D01*
G01X2514960Y564370D02*
G01X2511381Y571528D01*
G01X2511381Y571528D02*
G01X2500644Y575107D01*
G01X2500644Y575107D02*
G01X2489906Y575107D01*
G01X2489906Y575107D02*
G01X2479169Y571528D01*
G01X2479169Y571528D02*
G01X2475590Y564370D01*
G01X2475590Y564370D02*
G01X2479169Y557211D01*
G01X2479169Y557211D02*
G01X2486327Y553632D01*
G01X2486327Y553632D02*
G01X2504223Y550053D01*
G01X2504223Y550053D02*
G01X2511381Y546474D01*
G01X2511381Y546474D02*
G01X2514960Y539316D01*
G01X2514960Y539316D02*
G01X2514960Y535737D01*
G01X2514960Y535737D02*
G01X2511381Y528579D01*
G01X2511381Y528579D02*
G01X2500644Y525000D01*
G01X2500644Y525000D02*
G01X2489906Y525000D01*
G01X2489906Y525000D02*
G01X2479169Y528579D01*
G01X2479169Y528579D02*
G01X2475590Y535737D01*
G01X2582963Y564370D02*
G01X2579384Y571528D01*
G01X2579384Y571528D02*
G01X2568647Y575107D01*
G01X2568647Y575107D02*
G01X2557909Y575107D01*
G01X2557909Y575107D02*
G01X2547172Y571528D01*
G01X2547172Y571528D02*
G01X2543593Y564370D01*
G01X2543593Y564370D02*
G01X2547172Y557211D01*
G01X2547172Y557211D02*
G01X2554330Y553632D01*
G01X2554330Y553632D02*
G01X2572226Y550053D01*
G01X2572226Y550053D02*
G01X2579384Y546474D01*
G01X2579384Y546474D02*
G01X2582963Y539316D01*
G01X2582963Y539316D02*
G01X2582963Y535737D01*
G01X2582963Y535737D02*
G01X2579384Y528579D01*
G01X2579384Y528579D02*
G01X2568647Y525000D01*
G01X2568647Y525000D02*
G01X2557909Y525000D01*
G01X2557909Y525000D02*
G01X2547172Y528579D01*
G01X2547172Y528579D02*
G01X2543593Y535737D01*
G01X3585522Y125000D02*
G01X3700053Y125000D01*
G01X3599838Y200161D02*
G01X3603418Y189423D01*
G01X3603418Y189423D02*
G01X3610576Y185844D01*
G01X3610576Y185844D02*
G01X3617734Y185844D01*
G01X3617734Y185844D02*
G01X3624892Y189423D01*
G01X3624892Y189423D02*
G01X3628471Y196581D01*
G01X3628471Y196581D02*
G01X3632050Y210898D01*
G01X3632050Y210898D02*
G01X3635629Y221635D01*
G01X3635629Y221635D02*
G01X3642788Y228793D01*
G01X3642788Y228793D02*
G01X3649946Y232372D01*
G01X3649946Y232372D02*
G01X3660683Y232372D01*
G01X3660683Y232372D02*
G01X3667841Y228793D01*
G01X3667841Y228793D02*
G01X3671420Y225214D01*
G01X3671420Y225214D02*
G01X3675000Y214477D01*
G01X3675000Y214477D02*
G01X3675000Y200161D01*
G01X3675000Y200161D02*
G01X3671420Y189423D01*
G01X3671420Y189423D02*
G01X3667841Y185844D01*
G01X3667841Y185844D02*
G01X3660683Y182265D01*
G01X3660683Y182265D02*
G01X3649946Y182265D01*
G01X3649946Y182265D02*
G01X3642788Y185844D01*
G01X3642788Y185844D02*
G01X3635629Y193002D01*
G01X3635629Y193002D02*
G01X3632050Y203740D01*
G01X3632050Y203740D02*
G01X3628471Y218056D01*
G01X3628471Y218056D02*
G01X3624892Y225214D01*
G01X3624892Y225214D02*
G01X3617734Y228793D01*
G01X3617734Y228793D02*
G01X3610576Y228793D01*
G01X3610576Y228793D02*
G01X3603418Y225214D01*
G01X3603418Y225214D02*
G01X3599838Y214477D01*
G01X3599838Y214477D02*
G01X3599838Y200161D01*
G01X3599838Y339745D02*
G01X3675000Y339745D01*
G01X3599838Y339745D02*
G01X3599838Y371957D01*
G01X3599838Y371957D02*
G01X3603418Y382695D01*
G01X3603418Y382695D02*
G01X3606997Y386274D01*
G01X3606997Y386274D02*
G01X3614155Y389853D01*
G01X3614155Y389853D02*
G01X3621313Y389853D01*
G01X3621313Y389853D02*
G01X3628471Y386274D01*
G01X3628471Y386274D02*
G01X3632050Y382695D01*
G01X3632050Y382695D02*
G01X3635629Y371957D01*
G01X3635629Y371957D02*
G01X3635629Y339745D01*
G01X3635629Y364799D02*
G01X3675000Y389853D01*
G01X3599838Y547333D02*
G01X3675000Y511542D01*
G01X3599838Y497226D02*
G01X3599838Y547333D01*
G01X3585522Y654706D02*
G01X3700053Y654706D01*
G01X3585522Y725000D02*
G01X3700053Y725000D01*
G01X3610576Y825214D02*
G01X3603418Y821635D01*
G01X3603418Y821635D02*
G01X3599838Y810898D01*
G01X3599838Y810898D02*
G01X3599838Y803740D01*
G01X3599838Y803740D02*
G01X3603418Y793002D01*
G01X3603418Y793002D02*
G01X3614155Y785844D01*
G01X3614155Y785844D02*
G01X3632050Y782265D01*
G01X3632050Y782265D02*
G01X3649946Y782265D01*
G01X3649946Y782265D02*
G01X3664262Y785844D01*
G01X3664262Y785844D02*
G01X3671420Y793002D01*
G01X3671420Y793002D02*
G01X3675000Y803740D01*
G01X3675000Y803740D02*
G01X3675000Y807319D01*
G01X3675000Y807319D02*
G01X3671420Y818056D01*
G01X3671420Y818056D02*
G01X3664262Y825214D01*
G01X3664262Y825214D02*
G01X3653525Y828793D01*
G01X3653525Y828793D02*
G01X3649946Y828793D01*
G01X3649946Y828793D02*
G01X3639209Y825214D01*
G01X3639209Y825214D02*
G01X3632050Y818056D01*
G01X3632050Y818056D02*
G01X3628471Y807319D01*
G01X3628471Y807319D02*
G01X3628471Y803740D01*
G01X3628471Y803740D02*
G01X3632050Y793002D01*
G01X3632050Y793002D02*
G01X3639209Y785844D01*
G01X3639209Y785844D02*
G01X3649946Y782265D01*
G01X3599838Y932587D02*
G01X3675000Y932587D01*
G01X3599838Y932587D02*
G01X3599838Y964799D01*
G01X3599838Y964799D02*
G01X3603418Y975536D01*
G01X3603418Y975536D02*
G01X3606997Y979115D01*
G01X3606997Y979115D02*
G01X3614155Y982695D01*
G01X3614155Y982695D02*
G01X3621313Y982695D01*
G01X3621313Y982695D02*
G01X3628471Y979115D01*
G01X3628471Y979115D02*
G01X3632050Y975536D01*
G01X3632050Y975536D02*
G01X3635629Y964799D01*
G01X3635629Y964799D02*
G01X3635629Y932587D01*
G01X3635629Y957641D02*
G01X3675000Y982695D01*
G01X3599838Y1133017D02*
G01X3599838Y1097226D01*
G01X3599838Y1097226D02*
G01X3632050Y1093647D01*
G01X3632050Y1093647D02*
G01X3628471Y1097226D01*
G01X3628471Y1097226D02*
G01X3624892Y1107963D01*
G01X3624892Y1107963D02*
G01X3624892Y1118700D01*
G01X3624892Y1118700D02*
G01X3628471Y1129438D01*
G01X3628471Y1129438D02*
G01X3635629Y1136596D01*
G01X3635629Y1136596D02*
G01X3646367Y1140175D01*
G01X3646367Y1140175D02*
G01X3653525Y1140175D01*
G01X3653525Y1140175D02*
G01X3664262Y1136596D01*
G01X3664262Y1136596D02*
G01X3671420Y1129438D01*
G01X3671420Y1129438D02*
G01X3675000Y1118700D01*
G01X3675000Y1118700D02*
G01X3675000Y1107963D01*
G01X3675000Y1107963D02*
G01X3671420Y1097226D01*
G01X3671420Y1097226D02*
G01X3667841Y1093647D01*
G01X3667841Y1093647D02*
G01X3660683Y1090067D01*
G01X3585522Y1247548D02*
G01X3700053Y1247548D01*
G01X3585522Y1925000D02*
G01X3700053Y1925000D01*
G01X3617734Y2014477D02*
G01X3614155Y2014477D01*
G01X3614155Y2014477D02*
G01X3606997Y2018056D01*
G01X3606997Y2018056D02*
G01X3603418Y2021635D01*
G01X3603418Y2021635D02*
G01X3599838Y2028793D01*
G01X3599838Y2028793D02*
G01X3599838Y2043110D01*
G01X3599838Y2043110D02*
G01X3603418Y2050268D01*
G01X3603418Y2050268D02*
G01X3606997Y2053847D01*
G01X3606997Y2053847D02*
G01X3614155Y2057426D01*
G01X3614155Y2057426D02*
G01X3621313Y2057426D01*
G01X3621313Y2057426D02*
G01X3628471Y2053847D01*
G01X3628471Y2053847D02*
G01X3639209Y2046689D01*
G01X3639209Y2046689D02*
G01X3675000Y2010898D01*
G01X3675000Y2010898D02*
G01X3675000Y2061005D01*
G01X3599838Y2168378D02*
G01X3675000Y2168378D01*
G01X3599838Y2168378D02*
G01X3599838Y2200590D01*
G01X3599838Y2200590D02*
G01X3603418Y2211327D01*
G01X3603418Y2211327D02*
G01X3606997Y2214906D01*
G01X3606997Y2214906D02*
G01X3614155Y2218486D01*
G01X3614155Y2218486D02*
G01X3621313Y2218486D01*
G01X3621313Y2218486D02*
G01X3628471Y2214906D01*
G01X3628471Y2214906D02*
G01X3632050Y2211327D01*
G01X3632050Y2211327D02*
G01X3635629Y2200590D01*
G01X3635629Y2200590D02*
G01X3635629Y2168378D01*
G01X3635629Y2193432D02*
G01X3675000Y2218486D01*
G01X3614155Y2325858D02*
G01X3610576Y2333017D01*
G01X3610576Y2333017D02*
G01X3599838Y2343754D01*
G01X3599838Y2343754D02*
G01X3675000Y2343754D01*
G01X3585522Y2465443D02*
G01X3700053Y2465443D01*
G01X2100107Y1350000D02*
G01X2050000Y1328525D01*
G01X2100107Y1307050D02*
G01X2050000Y1328525D01*
G01X2107265Y1274838D02*
G01X2110844Y1274838D01*
G01X2110844Y1274838D02*
G01X2118002Y1271259D01*
G01X2118002Y1271259D02*
G01X2121581Y1267680D01*
G01X2121581Y1267680D02*
G01X2125161Y1260522D01*
G01X2125161Y1260522D02*
G01X2125161Y1246206D01*
G01X2125161Y1246206D02*
G01X2121581Y1239047D01*
G01X2121581Y1239047D02*
G01X2118002Y1235468D01*
G01X2118002Y1235468D02*
G01X2110844Y1231889D01*
G01X2110844Y1231889D02*
G01X2103686Y1231889D01*
G01X2103686Y1231889D02*
G01X2096528Y1235468D01*
G01X2096528Y1235468D02*
G01X2085790Y1242627D01*
G01X2085790Y1242627D02*
G01X2050000Y1278418D01*
G01X2050000Y1278418D02*
G01X2050000Y1228310D01*
G01X2057158Y1196098D02*
G01X2053579Y1199677D01*
G01X2053579Y1199677D02*
G01X2050000Y1196098D01*
G01X2050000Y1196098D02*
G01X2053579Y1192519D01*
G01X2053579Y1192519D02*
G01X2057158Y1196098D01*
G01X2125161Y1156728D02*
G01X2125161Y1117358D01*
G01X2125161Y1117358D02*
G01X2096528Y1138833D01*
G01X2096528Y1138833D02*
G01X2096528Y1128095D01*
G01X2096528Y1128095D02*
G01X2092949Y1120937D01*
G01X2092949Y1120937D02*
G01X2089370Y1117358D01*
G01X2089370Y1117358D02*
G01X2078632Y1113779D01*
G01X2078632Y1113779D02*
G01X2071474Y1113779D01*
G01X2071474Y1113779D02*
G01X2060737Y1117358D01*
G01X2060737Y1117358D02*
G01X2053579Y1124516D01*
G01X2053579Y1124516D02*
G01X2050000Y1135254D01*
G01X2050000Y1135254D02*
G01X2050000Y1145991D01*
G01X2050000Y1145991D02*
G01X2053579Y1156728D01*
G01X2053579Y1156728D02*
G01X2057158Y1160307D01*
G01X2057158Y1160307D02*
G01X2064316Y1163886D01*
G01X1012741Y1982050D02*
G01X900000Y2025000D01*
G01X1012741Y1982050D02*
G01X900000Y1939101D01*
G01X937580Y2008894D02*
G01X937580Y1955207D01*
G01X959055Y1831728D02*
G01X969792Y1842466D01*
G01X969792Y1842466D02*
G01X975161Y1853203D01*
G01X975161Y1853203D02*
G01X975161Y1869309D01*
G01X975161Y1869309D02*
G01X969792Y1880046D01*
G01X969792Y1880046D02*
G01X959055Y1890783D01*
G01X959055Y1890783D02*
G01X942949Y1896152D01*
G01X942949Y1896152D02*
G01X932211Y1896152D01*
G01X932211Y1896152D02*
G01X916105Y1890783D01*
G01X916105Y1890783D02*
G01X905368Y1880046D01*
G01X905368Y1880046D02*
G01X900000Y1869309D01*
G01X900000Y1869309D02*
G01X900000Y1853203D01*
G01X900000Y1853203D02*
G01X905368Y1842466D01*
G01X905368Y1842466D02*
G01X916105Y1831728D01*
G01X959055Y1724355D02*
G01X969792Y1735093D01*
G01X969792Y1735093D02*
G01X975161Y1745830D01*
G01X975161Y1745830D02*
G01X975161Y1761936D01*
G01X975161Y1761936D02*
G01X969792Y1772673D01*
G01X969792Y1772673D02*
G01X959055Y1783410D01*
G01X959055Y1783410D02*
G01X942949Y1788779D01*
G01X942949Y1788779D02*
G01X932211Y1788779D01*
G01X932211Y1788779D02*
G01X916105Y1783410D01*
G01X916105Y1783410D02*
G01X905368Y1772673D01*
G01X905368Y1772673D02*
G01X900000Y1761936D01*
G01X900000Y1761936D02*
G01X900000Y1745830D01*
G01X900000Y1745830D02*
G01X905368Y1735093D01*
G01X905368Y1735093D02*
G01X916105Y1724355D01*
G01X1012741Y1681406D02*
G01X900000Y1681406D01*
G01X1012741Y1681406D02*
G01X1012741Y1643826D01*
G01X1012741Y1643826D02*
G01X1007372Y1627720D01*
G01X1007372Y1627720D02*
G01X996635Y1616982D01*
G01X996635Y1616982D02*
G01X985898Y1611614D01*
G01X985898Y1611614D02*
G01X969792Y1606245D01*
G01X969792Y1606245D02*
G01X942949Y1606245D01*
G01X942949Y1606245D02*
G01X926843Y1611614D01*
G01X926843Y1611614D02*
G01X916105Y1616982D01*
G01X916105Y1616982D02*
G01X905368Y1627720D01*
G01X905368Y1627720D02*
G01X900000Y1643826D01*
G01X900000Y1643826D02*
G01X900000Y1681406D01*
G01X942949Y1563296D02*
G01X942949Y1498872D01*
G01X942949Y1498872D02*
G01X953686Y1498872D01*
G01X953686Y1498872D02*
G01X964423Y1504241D01*
G01X964423Y1504241D02*
G01X969792Y1509609D01*
G01X969792Y1509609D02*
G01X975161Y1520347D01*
G01X975161Y1520347D02*
G01X975161Y1536453D01*
G01X975161Y1536453D02*
G01X969792Y1547190D01*
G01X969792Y1547190D02*
G01X959055Y1557927D01*
G01X959055Y1557927D02*
G01X942949Y1563296D01*
G01X942949Y1563296D02*
G01X932211Y1563296D01*
G01X932211Y1563296D02*
G01X916105Y1557927D01*
G01X916105Y1557927D02*
G01X905368Y1547190D01*
G01X905368Y1547190D02*
G01X900000Y1536453D01*
G01X900000Y1536453D02*
G01X900000Y1520347D01*
G01X900000Y1520347D02*
G01X905368Y1509609D01*
G01X905368Y1509609D02*
G01X916105Y1498872D01*
G01X959055Y1391499D02*
G01X969792Y1402236D01*
G01X969792Y1402236D02*
G01X975161Y1412974D01*
G01X975161Y1412974D02*
G01X975161Y1429080D01*
G01X975161Y1429080D02*
G01X969792Y1439817D01*
G01X969792Y1439817D02*
G01X959055Y1450554D01*
G01X959055Y1450554D02*
G01X942949Y1455923D01*
G01X942949Y1455923D02*
G01X932211Y1455923D01*
G01X932211Y1455923D02*
G01X916105Y1450554D01*
G01X916105Y1450554D02*
G01X905368Y1439817D01*
G01X905368Y1439817D02*
G01X900000Y1429080D01*
G01X900000Y1429080D02*
G01X900000Y1412974D01*
G01X900000Y1412974D02*
G01X905368Y1402236D01*
G01X905368Y1402236D02*
G01X916105Y1391499D01*
G01X1012741Y1294864D02*
G01X937580Y1348550D01*
G01X937580Y1348550D02*
G01X937580Y1268020D01*
G01X1012741Y1294864D02*
G01X900000Y1294864D01*
G01X985898Y1144541D02*
G01X996635Y1149910D01*
G01X996635Y1149910D02*
G01X1007372Y1160647D01*
G01X1007372Y1160647D02*
G01X1012741Y1171385D01*
G01X1012741Y1171385D02*
G01X1012741Y1192859D01*
G01X1012741Y1192859D02*
G01X1007372Y1203597D01*
G01X1007372Y1203597D02*
G01X996635Y1214334D01*
G01X996635Y1214334D02*
G01X985898Y1219702D01*
G01X985898Y1219702D02*
G01X969792Y1225071D01*
G01X969792Y1225071D02*
G01X942949Y1225071D01*
G01X942949Y1225071D02*
G01X926843Y1219702D01*
G01X926843Y1219702D02*
G01X916105Y1214334D01*
G01X916105Y1214334D02*
G01X905368Y1203597D01*
G01X905368Y1203597D02*
G01X900000Y1192859D01*
G01X900000Y1192859D02*
G01X900000Y1171385D01*
G01X900000Y1171385D02*
G01X905368Y1160647D01*
G01X905368Y1160647D02*
G01X916105Y1149910D01*
G01X916105Y1149910D02*
G01X926843Y1144541D01*
G01X975161Y1074749D02*
G01X969792Y1085486D01*
G01X969792Y1085486D02*
G01X959055Y1096224D01*
G01X959055Y1096224D02*
G01X942949Y1101592D01*
G01X942949Y1101592D02*
G01X932211Y1101592D01*
G01X932211Y1101592D02*
G01X916105Y1096224D01*
G01X916105Y1096224D02*
G01X905368Y1085486D01*
G01X905368Y1085486D02*
G01X900000Y1074749D01*
G01X900000Y1074749D02*
G01X900000Y1058643D01*
G01X900000Y1058643D02*
G01X905368Y1047906D01*
G01X905368Y1047906D02*
G01X916105Y1037168D01*
G01X916105Y1037168D02*
G01X932211Y1031800D01*
G01X932211Y1031800D02*
G01X942949Y1031800D01*
G01X942949Y1031800D02*
G01X959055Y1037168D01*
G01X959055Y1037168D02*
G01X969792Y1047906D01*
G01X969792Y1047906D02*
G01X975161Y1058643D01*
G01X975161Y1058643D02*
G01X975161Y1074749D01*
G01X1012741Y988851D02*
G01X1007372Y983482D01*
G01X1007372Y983482D02*
G01X1012741Y978113D01*
G01X1012741Y978113D02*
G01X1018110Y983482D01*
G01X1018110Y983482D02*
G01X1012741Y988851D01*
G01X975161Y983482D02*
G01X900000Y983482D01*
G01X1012741Y935164D02*
G01X900000Y935164D01*
G01X1012741Y838529D02*
G01X937580Y892215D01*
G01X937580Y892215D02*
G01X937580Y811685D01*
G01X1012741Y838529D02*
G01X900000Y838529D01*
G01X1012741Y768736D02*
G01X900000Y768736D01*
G01X1012741Y768736D02*
G01X1012741Y720418D01*
G01X1012741Y720418D02*
G01X1007372Y704312D01*
G01X1007372Y704312D02*
G01X1002004Y698944D01*
G01X1002004Y698944D02*
G01X991266Y693575D01*
G01X991266Y693575D02*
G01X980529Y693575D01*
G01X980529Y693575D02*
G01X969792Y698944D01*
G01X969792Y698944D02*
G01X964423Y704312D01*
G01X964423Y704312D02*
G01X959055Y720418D01*
G01X959055Y720418D02*
G01X959055Y768736D01*
G01X959055Y731156D02*
G01X900000Y693575D01*
G01X942949Y650626D02*
G01X942949Y586202D01*
G01X942949Y586202D02*
G01X953686Y586202D01*
G01X953686Y586202D02*
G01X964423Y591571D01*
G01X964423Y591571D02*
G01X969792Y596939D01*
G01X969792Y596939D02*
G01X975161Y607677D01*
G01X975161Y607677D02*
G01X975161Y623783D01*
G01X975161Y623783D02*
G01X969792Y634520D01*
G01X969792Y634520D02*
G01X959055Y645257D01*
G01X959055Y645257D02*
G01X942949Y650626D01*
G01X942949Y650626D02*
G01X932211Y650626D01*
G01X932211Y650626D02*
G01X916105Y645257D01*
G01X916105Y645257D02*
G01X905368Y634520D01*
G01X905368Y634520D02*
G01X900000Y623783D01*
G01X900000Y623783D02*
G01X900000Y607677D01*
G01X900000Y607677D02*
G01X905368Y596939D01*
G01X905368Y596939D02*
G01X916105Y586202D01*
G01X1012741Y543253D02*
G01X900000Y543253D01*
G01X942949Y500304D02*
G01X942949Y435880D01*
G01X942949Y435880D02*
G01X953686Y435880D01*
G01X953686Y435880D02*
G01X964423Y441249D01*
G01X964423Y441249D02*
G01X969792Y446617D01*
G01X969792Y446617D02*
G01X975161Y457355D01*
G01X975161Y457355D02*
G01X975161Y473461D01*
G01X975161Y473461D02*
G01X969792Y484198D01*
G01X969792Y484198D02*
G01X959055Y494935D01*
G01X959055Y494935D02*
G01X942949Y500304D01*
G01X942949Y500304D02*
G01X932211Y500304D01*
G01X932211Y500304D02*
G01X916105Y494935D01*
G01X916105Y494935D02*
G01X905368Y484198D01*
G01X905368Y484198D02*
G01X900000Y473461D01*
G01X900000Y473461D02*
G01X900000Y457355D01*
G01X900000Y457355D02*
G01X905368Y446617D01*
G01X905368Y446617D02*
G01X916105Y435880D01*
G01X985898Y446617D02*
G01X1028847Y484198D01*
G01X114477Y650000D02*
G01X-53Y650000D01*
G01X100161Y542627D02*
G01X25000Y578418D01*
G01X100161Y592734D02*
G01X100161Y542627D01*
G01X82265Y381567D02*
G01X89423Y385146D01*
G01X89423Y385146D02*
G01X96581Y392304D01*
G01X96581Y392304D02*
G01X100161Y399463D01*
G01X100161Y399463D02*
G01X100161Y413779D01*
G01X100161Y413779D02*
G01X96581Y420937D01*
G01X96581Y420937D02*
G01X89423Y428095D01*
G01X89423Y428095D02*
G01X82265Y431675D01*
G01X82265Y431675D02*
G01X71528Y435254D01*
G01X71528Y435254D02*
G01X53632Y435254D01*
G01X53632Y435254D02*
G01X42895Y431675D01*
G01X42895Y431675D02*
G01X35737Y428095D01*
G01X35737Y428095D02*
G01X28579Y420937D01*
G01X28579Y420937D02*
G01X25000Y413779D01*
G01X25000Y413779D02*
G01X25000Y399463D01*
G01X25000Y399463D02*
G01X28579Y392304D01*
G01X28579Y392304D02*
G01X35737Y385146D01*
G01X35737Y385146D02*
G01X42895Y381567D01*
G01X100161Y252720D02*
G01X96581Y263457D01*
G01X96581Y263457D02*
G01X89423Y267036D01*
G01X89423Y267036D02*
G01X82265Y267036D01*
G01X82265Y267036D02*
G01X75107Y263457D01*
G01X75107Y263457D02*
G01X71528Y256299D01*
G01X71528Y256299D02*
G01X67949Y241982D01*
G01X67949Y241982D02*
G01X64370Y231245D01*
G01X64370Y231245D02*
G01X57211Y224087D01*
G01X57211Y224087D02*
G01X50053Y220508D01*
G01X50053Y220508D02*
G01X39316Y220508D01*
G01X39316Y220508D02*
G01X32158Y224087D01*
G01X32158Y224087D02*
G01X28579Y227666D01*
G01X28579Y227666D02*
G01X25000Y238403D01*
G01X25000Y238403D02*
G01X25000Y252720D01*
G01X25000Y252720D02*
G01X28579Y263457D01*
G01X28579Y263457D02*
G01X32158Y267036D01*
G01X32158Y267036D02*
G01X39316Y270615D01*
G01X39316Y270615D02*
G01X50053Y270615D01*
G01X50053Y270615D02*
G01X57211Y267036D01*
G01X57211Y267036D02*
G01X64370Y259878D01*
G01X64370Y259878D02*
G01X67949Y249141D01*
G01X67949Y249141D02*
G01X71528Y234824D01*
G01X71528Y234824D02*
G01X75107Y227666D01*
G01X75107Y227666D02*
G01X82265Y224087D01*
G01X82265Y224087D02*
G01X89423Y224087D01*
G01X89423Y224087D02*
G01X96581Y227666D01*
G01X96581Y227666D02*
G01X100161Y238403D01*
G01X100161Y238403D02*
G01X100161Y252720D01*
G01X114477Y113135D02*
G01X-53Y113135D01*
G01X114477Y1250000D02*
G01X-53Y1250000D01*
G01X100161Y1149785D02*
G01X100161Y1185576D01*
G01X100161Y1185576D02*
G01X67949Y1189155D01*
G01X67949Y1189155D02*
G01X71528Y1185576D01*
G01X71528Y1185576D02*
G01X75107Y1174838D01*
G01X75107Y1174838D02*
G01X75107Y1164101D01*
G01X75107Y1164101D02*
G01X71528Y1153364D01*
G01X71528Y1153364D02*
G01X64370Y1146206D01*
G01X64370Y1146206D02*
G01X53632Y1142627D01*
G01X53632Y1142627D02*
G01X46474Y1142627D01*
G01X46474Y1142627D02*
G01X35737Y1146206D01*
G01X35737Y1146206D02*
G01X28579Y1153364D01*
G01X28579Y1153364D02*
G01X25000Y1164101D01*
G01X25000Y1164101D02*
G01X25000Y1174838D01*
G01X25000Y1174838D02*
G01X28579Y1185576D01*
G01X28579Y1185576D02*
G01X32158Y1189155D01*
G01X32158Y1189155D02*
G01X39316Y1192734D01*
G01X82265Y981567D02*
G01X89423Y985146D01*
G01X89423Y985146D02*
G01X96581Y992304D01*
G01X96581Y992304D02*
G01X100161Y999463D01*
G01X100161Y999463D02*
G01X100161Y1013779D01*
G01X100161Y1013779D02*
G01X96581Y1020937D01*
G01X96581Y1020937D02*
G01X89423Y1028095D01*
G01X89423Y1028095D02*
G01X82265Y1031675D01*
G01X82265Y1031675D02*
G01X71528Y1035254D01*
G01X71528Y1035254D02*
G01X53632Y1035254D01*
G01X53632Y1035254D02*
G01X42895Y1031675D01*
G01X42895Y1031675D02*
G01X35737Y1028095D01*
G01X35737Y1028095D02*
G01X28579Y1020937D01*
G01X28579Y1020937D02*
G01X25000Y1013779D01*
G01X25000Y1013779D02*
G01X25000Y999463D01*
G01X25000Y999463D02*
G01X28579Y992304D01*
G01X28579Y992304D02*
G01X35737Y985146D01*
G01X35737Y985146D02*
G01X42895Y981567D01*
G01X89423Y827666D02*
G01X96581Y831245D01*
G01X96581Y831245D02*
G01X100161Y841982D01*
G01X100161Y841982D02*
G01X100161Y849141D01*
G01X100161Y849141D02*
G01X96581Y859878D01*
G01X96581Y859878D02*
G01X85844Y867036D01*
G01X85844Y867036D02*
G01X67949Y870615D01*
G01X67949Y870615D02*
G01X50053Y870615D01*
G01X50053Y870615D02*
G01X35737Y867036D01*
G01X35737Y867036D02*
G01X28579Y859878D01*
G01X28579Y859878D02*
G01X25000Y849141D01*
G01X25000Y849141D02*
G01X25000Y845561D01*
G01X25000Y845561D02*
G01X28579Y834824D01*
G01X28579Y834824D02*
G01X35737Y827666D01*
G01X35737Y827666D02*
G01X46474Y824087D01*
G01X46474Y824087D02*
G01X50053Y824087D01*
G01X50053Y824087D02*
G01X60790Y827666D01*
G01X60790Y827666D02*
G01X67949Y834824D01*
G01X67949Y834824D02*
G01X71528Y845561D01*
G01X71528Y845561D02*
G01X71528Y849141D01*
G01X71528Y849141D02*
G01X67949Y859878D01*
G01X67949Y859878D02*
G01X60790Y867036D01*
G01X60790Y867036D02*
G01X50053Y870615D01*
G01X114477Y720293D02*
G01X-53Y720293D01*
G01X114477Y1875000D02*
G01X-53Y1875000D01*
G01X100161Y1810576D02*
G01X100161Y1771206D01*
G01X100161Y1771206D02*
G01X71528Y1792680D01*
G01X71528Y1792680D02*
G01X71528Y1781943D01*
G01X71528Y1781943D02*
G01X67949Y1774785D01*
G01X67949Y1774785D02*
G01X64370Y1771206D01*
G01X64370Y1771206D02*
G01X53632Y1767627D01*
G01X53632Y1767627D02*
G01X46474Y1767627D01*
G01X46474Y1767627D02*
G01X35737Y1771206D01*
G01X35737Y1771206D02*
G01X28579Y1778364D01*
G01X28579Y1778364D02*
G01X25000Y1789101D01*
G01X25000Y1789101D02*
G01X25000Y1799838D01*
G01X25000Y1799838D02*
G01X28579Y1810576D01*
G01X28579Y1810576D02*
G01X32158Y1814155D01*
G01X32158Y1814155D02*
G01X39316Y1817734D01*
G01X82265Y1606567D02*
G01X89423Y1610146D01*
G01X89423Y1610146D02*
G01X96581Y1617304D01*
G01X96581Y1617304D02*
G01X100161Y1624463D01*
G01X100161Y1624463D02*
G01X100161Y1638779D01*
G01X100161Y1638779D02*
G01X96581Y1645937D01*
G01X96581Y1645937D02*
G01X89423Y1653095D01*
G01X89423Y1653095D02*
G01X82265Y1656675D01*
G01X82265Y1656675D02*
G01X71528Y1660254D01*
G01X71528Y1660254D02*
G01X53632Y1660254D01*
G01X53632Y1660254D02*
G01X42895Y1656675D01*
G01X42895Y1656675D02*
G01X35737Y1653095D01*
G01X35737Y1653095D02*
G01X28579Y1645937D01*
G01X28579Y1645937D02*
G01X25000Y1638779D01*
G01X25000Y1638779D02*
G01X25000Y1624463D01*
G01X25000Y1624463D02*
G01X28579Y1617304D01*
G01X28579Y1617304D02*
G01X35737Y1610146D01*
G01X35737Y1610146D02*
G01X42895Y1606567D01*
G01X100161Y1459824D02*
G01X50053Y1495615D01*
G01X50053Y1495615D02*
G01X50053Y1441929D01*
G01X100161Y1459824D02*
G01X25000Y1459824D01*
G01X114477Y1330977D02*
G01X-53Y1330977D01*
G01X114477Y2450000D02*
G01X-53Y2450000D01*
G01X85844Y2392734D02*
G01X89423Y2385576D01*
G01X89423Y2385576D02*
G01X100161Y2374838D01*
G01X100161Y2374838D02*
G01X25000Y2374838D01*
G01X82265Y2199463D02*
G01X89423Y2203042D01*
G01X89423Y2203042D02*
G01X96581Y2210200D01*
G01X96581Y2210200D02*
G01X100161Y2217358D01*
G01X100161Y2217358D02*
G01X100161Y2231675D01*
G01X100161Y2231675D02*
G01X96581Y2238833D01*
G01X96581Y2238833D02*
G01X89423Y2245991D01*
G01X89423Y2245991D02*
G01X82265Y2249570D01*
G01X82265Y2249570D02*
G01X71528Y2253149D01*
G01X71528Y2253149D02*
G01X53632Y2253149D01*
G01X53632Y2253149D02*
G01X42895Y2249570D01*
G01X42895Y2249570D02*
G01X35737Y2245991D01*
G01X35737Y2245991D02*
G01X28579Y2238833D01*
G01X28579Y2238833D02*
G01X25000Y2231675D01*
G01X25000Y2231675D02*
G01X25000Y2217358D01*
G01X25000Y2217358D02*
G01X28579Y2210200D01*
G01X28579Y2210200D02*
G01X35737Y2203042D01*
G01X35737Y2203042D02*
G01X42895Y2199463D01*
G01X82265Y2084932D02*
G01X85844Y2084932D01*
G01X85844Y2084932D02*
G01X93002Y2081352D01*
G01X93002Y2081352D02*
G01X96581Y2077773D01*
G01X96581Y2077773D02*
G01X100161Y2070615D01*
G01X100161Y2070615D02*
G01X100161Y2056299D01*
G01X100161Y2056299D02*
G01X96581Y2049141D01*
G01X96581Y2049141D02*
G01X93002Y2045561D01*
G01X93002Y2045561D02*
G01X85844Y2041982D01*
G01X85844Y2041982D02*
G01X78686Y2041982D01*
G01X78686Y2041982D02*
G01X71528Y2045561D01*
G01X71528Y2045561D02*
G01X60790Y2052720D01*
G01X60790Y2052720D02*
G01X25000Y2088511D01*
G01X25000Y2088511D02*
G01X25000Y2038403D01*
G01X114477Y1931030D02*
G01X-53Y1931030D01*
G54D14*
G01X1459896Y2562580D02*
G01X1457211Y2554527D01*
G01X1457211Y2554527D02*
G01X1451843Y2549158D01*
G01X1451843Y2549158D02*
G01X1443790Y2546474D01*
G01X1443790Y2546474D02*
G01X1441105Y2546474D01*
G01X1441105Y2546474D02*
G01X1433052Y2549158D01*
G01X1433052Y2549158D02*
G01X1427684Y2554527D01*
G01X1427684Y2554527D02*
G01X1425000Y2562580D01*
G01X1425000Y2562580D02*
G01X1425000Y2565264D01*
G01X1425000Y2565264D02*
G01X1427684Y2573317D01*
G01X1427684Y2573317D02*
G01X1433052Y2578686D01*
G01X1433052Y2578686D02*
G01X1441105Y2581370D01*
G01X1441105Y2581370D02*
G01X1443790Y2581370D01*
G01X1443790Y2581370D02*
G01X1451843Y2578686D01*
G01X1451843Y2578686D02*
G01X1457211Y2573317D01*
G01X1457211Y2573317D02*
G01X1459896Y2562580D01*
G01X1459896Y2562580D02*
G01X1459896Y2549158D01*
G01X1459896Y2549158D02*
G01X1457211Y2535737D01*
G01X1457211Y2535737D02*
G01X1451843Y2527684D01*
G01X1451843Y2527684D02*
G01X1443790Y2525000D01*
G01X1443790Y2525000D02*
G01X1438421Y2525000D01*
G01X1438421Y2525000D02*
G01X1430368Y2527684D01*
G01X1430368Y2527684D02*
G01X1427684Y2533052D01*
G01X1529688Y2592108D02*
G01X1481370Y2506209D01*
G01X1551163Y2570633D02*
G01X1556531Y2573317D01*
G01X1556531Y2573317D02*
G01X1564584Y2581370D01*
G01X1564584Y2581370D02*
G01X1564584Y2525000D01*
G01X1599481Y2581370D02*
G01X1591428Y2578686D01*
G01X1591428Y2578686D02*
G01X1588743Y2573317D01*
G01X1588743Y2573317D02*
G01X1588743Y2567949D01*
G01X1588743Y2567949D02*
G01X1591428Y2562580D01*
G01X1591428Y2562580D02*
G01X1596796Y2559896D01*
G01X1596796Y2559896D02*
G01X1607533Y2557211D01*
G01X1607533Y2557211D02*
G01X1615586Y2554527D01*
G01X1615586Y2554527D02*
G01X1620955Y2549158D01*
G01X1620955Y2549158D02*
G01X1623639Y2543790D01*
G01X1623639Y2543790D02*
G01X1623639Y2535737D01*
G01X1623639Y2535737D02*
G01X1620955Y2530368D01*
G01X1620955Y2530368D02*
G01X1618271Y2527684D01*
G01X1618271Y2527684D02*
G01X1610218Y2525000D01*
G01X1610218Y2525000D02*
G01X1599481Y2525000D01*
G01X1599481Y2525000D02*
G01X1591428Y2527684D01*
G01X1591428Y2527684D02*
G01X1588743Y2530368D01*
G01X1588743Y2530368D02*
G01X1586059Y2535737D01*
G01X1586059Y2535737D02*
G01X1586059Y2543790D01*
G01X1586059Y2543790D02*
G01X1588743Y2549158D01*
G01X1588743Y2549158D02*
G01X1594112Y2554527D01*
G01X1594112Y2554527D02*
G01X1602165Y2557211D01*
G01X1602165Y2557211D02*
G01X1612902Y2559896D01*
G01X1612902Y2559896D02*
G01X1618271Y2562580D01*
G01X1618271Y2562580D02*
G01X1620955Y2567949D01*
G01X1620955Y2567949D02*
G01X1620955Y2573317D01*
G01X1620955Y2573317D02*
G01X1618271Y2578686D01*
G01X1618271Y2578686D02*
G01X1610218Y2581370D01*
G01X1610218Y2581370D02*
G01X1599481Y2581370D01*
G01X1645114Y2581370D02*
G01X1666589Y2525000D01*
G01X1688063Y2581370D02*
G01X1666589Y2525000D01*
G01X1741750Y2562580D02*
G01X1741750Y2525000D01*
G01X1741750Y2554527D02*
G01X1736381Y2559896D01*
G01X1736381Y2559896D02*
G01X1731012Y2562580D01*
G01X1731012Y2562580D02*
G01X1722959Y2562580D01*
G01X1722959Y2562580D02*
G01X1717591Y2559896D01*
G01X1717591Y2559896D02*
G01X1712222Y2554527D01*
G01X1712222Y2554527D02*
G01X1709538Y2546474D01*
G01X1709538Y2546474D02*
G01X1709538Y2541105D01*
G01X1709538Y2541105D02*
G01X1712222Y2533052D01*
G01X1712222Y2533052D02*
G01X1717591Y2527684D01*
G01X1717591Y2527684D02*
G01X1722959Y2525000D01*
G01X1722959Y2525000D02*
G01X1731012Y2525000D01*
G01X1731012Y2525000D02*
G01X1736381Y2527684D01*
G01X1736381Y2527684D02*
G01X1741750Y2533052D01*
G01X1795436Y2554527D02*
G01X1790067Y2559896D01*
G01X1790067Y2559896D02*
G01X1784699Y2562580D01*
G01X1784699Y2562580D02*
G01X1776646Y2562580D01*
G01X1776646Y2562580D02*
G01X1771277Y2559896D01*
G01X1771277Y2559896D02*
G01X1765909Y2554527D01*
G01X1765909Y2554527D02*
G01X1763224Y2546474D01*
G01X1763224Y2546474D02*
G01X1763224Y2541105D01*
G01X1763224Y2541105D02*
G01X1765909Y2533052D01*
G01X1765909Y2533052D02*
G01X1771277Y2527684D01*
G01X1771277Y2527684D02*
G01X1776646Y2525000D01*
G01X1776646Y2525000D02*
G01X1784699Y2525000D01*
G01X1784699Y2525000D02*
G01X1790067Y2527684D01*
G01X1790067Y2527684D02*
G01X1795436Y2533052D01*
G54D15*
G01X1125000Y2581370D02*
G01X1125000Y2525000D01*
G01X1125000Y2581370D02*
G01X1143790Y2581370D01*
G01X1143790Y2581370D02*
G01X1151843Y2578686D01*
G01X1151843Y2578686D02*
G01X1157211Y2573317D01*
G01X1157211Y2573317D02*
G01X1159896Y2567949D01*
G01X1159896Y2567949D02*
G01X1162580Y2559896D01*
G01X1162580Y2559896D02*
G01X1162580Y2546474D01*
G01X1162580Y2546474D02*
G01X1159896Y2538421D01*
G01X1159896Y2538421D02*
G01X1157211Y2533052D01*
G01X1157211Y2533052D02*
G01X1151843Y2527684D01*
G01X1151843Y2527684D02*
G01X1143790Y2525000D01*
G01X1143790Y2525000D02*
G01X1125000Y2525000D01*
G01X1224319Y2567949D02*
G01X1221635Y2573317D01*
G01X1221635Y2573317D02*
G01X1216266Y2578686D01*
G01X1216266Y2578686D02*
G01X1210898Y2581370D01*
G01X1210898Y2581370D02*
G01X1200161Y2581370D01*
G01X1200161Y2581370D02*
G01X1194792Y2578686D01*
G01X1194792Y2578686D02*
G01X1189423Y2573317D01*
G01X1189423Y2573317D02*
G01X1186739Y2567949D01*
G01X1186739Y2567949D02*
G01X1184055Y2559896D01*
G01X1184055Y2559896D02*
G01X1184055Y2546474D01*
G01X1184055Y2546474D02*
G01X1186739Y2538421D01*
G01X1186739Y2538421D02*
G01X1189423Y2533052D01*
G01X1189423Y2533052D02*
G01X1194792Y2527684D01*
G01X1194792Y2527684D02*
G01X1200161Y2525000D01*
G01X1200161Y2525000D02*
G01X1210898Y2525000D01*
G01X1210898Y2525000D02*
G01X1216266Y2527684D01*
G01X1216266Y2527684D02*
G01X1221635Y2533052D01*
G01X1221635Y2533052D02*
G01X1224319Y2538421D01*
G01X1286059Y2567949D02*
G01X1283375Y2573317D01*
G01X1283375Y2573317D02*
G01X1278006Y2578686D01*
G01X1278006Y2578686D02*
G01X1272637Y2581370D01*
G01X1272637Y2581370D02*
G01X1261900Y2581370D01*
G01X1261900Y2581370D02*
G01X1256531Y2578686D01*
G01X1256531Y2578686D02*
G01X1251163Y2573317D01*
G01X1251163Y2573317D02*
G01X1248478Y2567949D01*
G01X1248478Y2567949D02*
G01X1245794Y2559896D01*
G01X1245794Y2559896D02*
G01X1245794Y2546474D01*
G01X1245794Y2546474D02*
G01X1248478Y2538421D01*
G01X1248478Y2538421D02*
G01X1251163Y2533052D01*
G01X1251163Y2533052D02*
G01X1256531Y2527684D01*
G01X1256531Y2527684D02*
G01X1261900Y2525000D01*
G01X1261900Y2525000D02*
G01X1272637Y2525000D01*
G01X1272637Y2525000D02*
G01X1278006Y2527684D01*
G01X1278006Y2527684D02*
G01X1283375Y2533052D01*
G01X1283375Y2533052D02*
G01X1286059Y2538421D01*
G54D13*
G01X3585522Y1325000D02*
G01X3700053Y1325000D01*
G01X3599838Y1418056D02*
G01X3649946Y1382265D01*
G01X3649946Y1382265D02*
G01X3649946Y1435952D01*
G01X3599838Y1418056D02*
G01X3675000Y1418056D01*
G01X3599838Y1546904D02*
G01X3675000Y1546904D01*
G01X3599838Y1546904D02*
G01X3599838Y1579115D01*
G01X3599838Y1579115D02*
G01X3603418Y1589853D01*
G01X3603418Y1589853D02*
G01X3606997Y1593432D01*
G01X3606997Y1593432D02*
G01X3614155Y1597011D01*
G01X3614155Y1597011D02*
G01X3621313Y1597011D01*
G01X3621313Y1597011D02*
G01X3628471Y1593432D01*
G01X3628471Y1593432D02*
G01X3632050Y1589853D01*
G01X3632050Y1589853D02*
G01X3635629Y1579115D01*
G01X3635629Y1579115D02*
G01X3635629Y1546904D01*
G01X3635629Y1571957D02*
G01X3675000Y1597011D01*
G01X3599838Y1711542D02*
G01X3599838Y1750912D01*
G01X3599838Y1750912D02*
G01X3628471Y1729438D01*
G01X3628471Y1729438D02*
G01X3628471Y1740175D01*
G01X3628471Y1740175D02*
G01X3632050Y1747333D01*
G01X3632050Y1747333D02*
G01X3635629Y1750912D01*
G01X3635629Y1750912D02*
G01X3646367Y1754491D01*
G01X3646367Y1754491D02*
G01X3653525Y1754491D01*
G01X3653525Y1754491D02*
G01X3664262Y1750912D01*
G01X3664262Y1750912D02*
G01X3671420Y1743754D01*
G01X3671420Y1743754D02*
G01X3675000Y1733017D01*
G01X3675000Y1733017D02*
G01X3675000Y1722279D01*
G01X3675000Y1722279D02*
G01X3671420Y1711542D01*
G01X3671420Y1711542D02*
G01X3667841Y1707963D01*
G01X3667841Y1707963D02*
G01X3660683Y1704384D01*
G01X3585522Y1861864D02*
G01X3700053Y1861864D01*
M00*
M02*
